        <svg
          width="115"
          height="59"
          viewBox="0 0 115 59"
          fill="none"
          xmlns="http://www.w3.org/2000/svg"
        >
          <path
            fillRule="evenodd"
            clipRule="evenodd"
            d="M58.4551 57.6934C59.8398 58.8069 59.4341 54.591 59.4341 54.5643C59.5491 52.2957 60.5636 48.8935 63.1469 48.647C64.4896 48.5218 65.8939 49.6758 66.5342 50.2073C69.183 52.3928 69.6273 53.4367 73.0155 52.0484C76.0469 50.7946 77.5365 47.2859 76.3057 46.4939C74.9884 46.8092 73.7508 50.6075 71.7583 51.4969C70.8118 51.9271 70.101 52.011 69.194 51.4275C68.1561 50.7784 66.858 49.2668 66.7155 47.5813C66.5263 45.3328 68.1515 44.787 69.5571 43.9557C73.613 41.5658 77.5549 39.2053 81.3177 36.3965C82.5485 35.4774 83.8304 34.5639 84.9664 33.5708L87.5558 31.4048C87.9283 31.113 88.0168 30.9661 88.3662 30.6288C88.91 30.0987 89.4902 29.66 90.0519 29.1337C90.6158 28.6023 91.1066 27.9781 91.6757 27.4747C94.2596 25.1767 98.5487 19.5694 100.242 16.8931C101.086 15.5689 101.942 14.3739 102.68 12.8959C103.624 10.9989 103.947 10.6677 100.98 9.50136C99.7431 9.01997 97.1917 8.22635 95.712 8.32593C95.3228 10.2323 95.7912 10.0779 94.5982 12.6112C92.8231 16.3683 89.1634 20.5473 86.409 23.552C86.1735 23.8079 85.9611 23.9592 85.7196 24.2199C85.4811 24.4917 85.3317 24.6857 85.082 24.9464C84.6256 25.4237 84.1428 25.825 83.6956 26.2809L73.5607 35.3198C72.5115 36.1533 71.5817 36.9112 70.4974 37.7006C68.0274 39.5033 59.4423 45.8087 56.2522 45.4244C54.7929 45.2547 50.396 42.001 49.3694 41.2327C46.8298 39.3258 46.6848 40.0028 42.4015 43.1795C41.3523 43.9637 40.3414 44.732 39.2601 45.4852C38.9437 45.7006 38.6832 45.7595 38.5688 46.1567C38.453 46.5434 38.6967 46.8928 38.9357 47.0028C39.4922 47.2521 40.5642 46.5396 40.9012 46.3113C41.6767 45.7757 42.2274 44.1095 43.959 43.9337C45.6117 43.7687 46.8757 44.9595 47.5923 45.7047C48.4302 46.5751 49.4337 47.4364 49.9506 48.77C50.4507 50.0612 50.4386 52.0613 49.8076 53.3391C49.1972 54.5836 46.8757 53.9723 45.755 53.3319C45.2753 53.0563 42.0931 51.0449 42.1817 52.7799C42.2351 53.8579 44.0297 55.0135 44.9199 55.4666C46.5979 56.3257 47.7714 56.0154 49.2698 55.1722C50.4441 54.5151 51.6066 53.714 52.3138 52.7702C53.0555 51.781 53.4686 50.0048 55.26 50.2351C57.105 50.4623 58.4314 52.9556 58.495 55.1148C58.5167 55.8335 58.1844 57.1677 58.4551 57.6934Z"
            fill="#5294C4"
          />
          <path
            fillRule="evenodd"
            clipRule="evenodd"
            d="M54.8729 4.81471C54.8621 6.65171 54.5169 8.3773 52.5869 8.72501C51.1815 8.98579 51.0019 7.98201 48.8469 6.81016C48.0464 6.37333 47.458 6.20167 46.652 6.75432C46.3351 6.97493 45.3797 7.88491 45.1413 8.18337C44.491 8.99294 43.154 10.5241 43.2137 11.9905C43.9655 11.0404 44.5663 9.56044 45.6722 8.47579C48.0164 6.18325 50.3252 8.46973 51.0451 10.2396C51.4695 11.2786 51.5551 11.6117 51.0451 12.6128C50.3744 13.9381 49.229 15.1589 48.1991 15.884C44.4756 18.5133 37.2588 23.0918 33.2502 25.48C31.975 26.2362 30.7299 27.0037 29.4404 27.8081C25.8486 30.0459 21.5452 32.5183 17.8352 34.6257C15.2277 36.1101 12.5805 37.6329 9.89518 38.9668C7.82683 39.9901 3.6541 42.2067 1.68726 42.934C2.32132 43.4174 3.55919 44.0066 4.27771 44.4418C6.91163 46.0427 9.46632 47.6434 11.5003 49.8397C12.1632 49.2235 13.296 47.3802 15.7839 45.1702C16.0323 44.9526 16.2144 44.741 16.4809 44.508L22.3806 39.9651C24.4022 38.4183 26.3371 36.9678 28.2963 35.4397C30.2334 33.9308 32.2745 32.3923 34.2466 30.9437C36.2531 29.4753 38.1863 28.0468 40.1939 26.5586C43.8965 23.8144 51.9022 18.2211 56.023 16.2433C58.1009 15.2461 59.0217 15.2871 61.3832 15.3006C63.3647 15.3116 65.1673 16.0199 66.9113 16.0296C69.1285 16.0422 74.9368 14.1444 74.656 11.5669C73.8588 11.0189 73.4055 10.9188 72.205 12.4604C71.4978 13.3659 71.1275 13.9865 69.4588 13.9769C68.0279 13.9695 66.2338 13.3442 65.1351 12.8411C63.5336 12.1069 62.9782 11.9732 62.2467 10.4044C61.6091 9.03833 61.5334 7.44175 62.5724 6.40496C63.2431 5.73129 64.7745 4.65516 65.8335 4.24144C65.6522 3.48743 64.9106 3.51137 64.1643 3.0286C63.5517 2.62643 63.2981 2.18354 62.7853 1.66831C61.9945 2.87372 62.9223 4.27582 61.2749 6.02149C59.8252 7.55673 58.724 7.47421 57.4644 5.99399C56.4815 4.83892 56.2197 3.42609 55.9476 1.67821C55.7638 0.478852 54.8745 1.2268 54.6858 2.05975C54.5645 2.59919 54.877 4.07694 54.8729 4.81471Z"
            fill="#FF0000"
          />
          <path
            fillRule="evenodd"
            clipRule="evenodd"
            d="M58.4552 57.6929C58.1848 57.1672 58.5169 55.8331 58.4954 55.1137C58.4321 52.9543 57.1054 50.4613 55.2604 50.234C53.4691 50.0038 53.0559 51.78 52.3143 52.7692C51.6071 53.7133 50.4443 54.5143 49.2702 55.1712C47.7719 56.0144 46.5981 56.3247 44.9203 55.4656C44.0302 55.0128 42.2355 53.8569 42.1822 52.7788C42.0939 51.0436 45.2758 53.0553 45.7555 53.3309C46.8762 53.9713 49.1979 54.5828 49.808 53.3381C50.4391 52.06 50.4512 50.0602 49.9511 48.769C49.4342 47.4353 48.4307 46.5741 47.5928 45.7037C46.8762 44.9588 45.6122 43.7679 43.9595 43.9327C42.2278 44.1085 41.6771 45.7744 40.9017 46.3103C40.5647 46.5386 39.493 47.251 38.9362 47.0018C38.6972 46.8918 38.4534 46.5424 38.5692 46.1557C38.6837 45.7584 38.9439 45.6996 39.2605 45.4842C40.3419 44.731 41.3525 43.9627 42.402 43.1784C46.6853 40.0018 46.8302 39.3248 49.3698 41.2317C50.3964 42 54.7936 45.2537 56.2527 45.4234C59.4431 45.8074 68.0278 39.5022 70.4978 37.6996C71.5819 36.9101 72.5117 36.1523 73.5611 35.3188L83.696 26.2798C84.1433 25.8243 84.6261 25.423 85.0824 24.9454C85.3322 24.6849 85.4816 24.491 85.7201 24.2189C85.9616 23.9584 86.1737 23.8068 86.4094 23.551C89.1638 20.546 92.8233 16.3672 94.5986 12.6101C95.7917 10.0769 95.3232 10.2312 95.7125 8.32491C97.1921 8.2256 99.7435 9.01894 100.981 9.50034C103.948 10.6667 103.624 10.9976 102.681 12.8949C101.942 14.3729 101.086 15.5678 100.242 16.8921C98.5494 19.5684 94.26 25.1756 91.6762 27.4737C91.107 27.9771 90.616 28.6015 90.0523 29.1327C89.4906 29.6587 88.9105 30.0977 88.3666 30.6278C88.017 30.9653 87.9284 31.1122 87.5562 31.4038L84.9669 33.5698C83.8308 34.5629 82.5489 35.4767 81.3182 36.3955C77.5553 39.2046 73.6134 41.5651 69.5576 43.9547C68.1519 44.7858 66.5264 45.3318 66.716 47.5803C66.8585 49.2658 68.1563 50.7773 69.1945 51.4265C70.1014 52.01 70.8122 51.9261 71.7588 51.4959C73.7512 50.6068 74.9888 46.8082 76.3062 46.4929C77.5369 47.2852 76.0473 50.7938 73.0159 52.0474C69.628 53.4357 69.1835 52.3918 66.5347 50.2063C65.8943 49.6748 64.4897 48.5208 63.1473 48.646C60.564 48.8925 59.5495 52.2947 59.4345 54.5633C59.434 54.5905 59.84 58.8064 58.4552 57.6929ZM47.5237 39.1111C45.8903 39.1031 45.5401 39.5644 44.3061 40.4521L38.3373 44.8089C36.809 45.8781 37.3116 48.0911 39.2902 48.1013C41.9316 48.1165 42.611 44.9932 44.2665 45.0028C45.4105 45.0086 46.8674 46.3917 47.447 47.0604C49.4232 49.3722 49.4892 50.2847 48.8273 52.9444C47.137 52.9362 46.8481 52.7395 45.7715 52.0953C44.8587 51.5558 43.8618 51.0202 42.6193 51.0142C41.3985 51.0073 39.6811 53.1128 43.1153 55.6391C46.3004 57.9864 48.6106 57.1813 51.6544 54.9239C54.2982 52.9585 53.6229 51.2978 55.1818 51.3066C55.804 51.3104 57.3588 52.937 57.3469 54.8898C57.3417 55.7288 57.1769 57.4883 57.282 57.8338C57.7846 59.5373 60.3888 59.1855 60.5591 57.1315C60.7274 55.1479 60.1412 53.3018 61.3967 51.2199C63.2519 48.1453 65.0671 50.4228 67.6565 52.569C69.4412 54.0442 70.738 54.0472 72.9527 53.2253C75.6078 52.2314 77.4907 50.2662 77.8733 47.4832C78.0208 46.3837 76.7488 44.1245 74.6639 46.3702C74.2673 46.7922 73.8379 47.5047 73.48 48.0166C72.3821 49.5904 70.8329 52.3035 68.7246 49.5549C67.9107 48.4917 67.1839 46.6841 68.6333 45.7425C70.1077 44.7855 72.3662 43.631 73.9991 42.5768L77.4951 40.3875C80.8621 38.1062 84.1433 35.7298 87.2468 33.1148C87.5142 32.887 87.6696 32.6733 87.9441 32.453C88.2981 32.1707 88.4197 32.105 88.752 31.7875C89.2758 31.2764 89.7261 30.8374 90.2567 30.3439L91.7045 28.9575C92.1897 28.4954 92.7168 28.0516 93.1564 27.5689C93.4227 27.2809 93.4769 27.1444 93.7913 26.8468C94.1321 26.5326 94.2144 26.4284 94.5043 26.0878L95.8343 24.5834C98.0504 22.0656 105.075 12.7876 104.436 10.6359C103.906 8.85582 98.2072 7.28042 95.7812 7.26666C93.5638 7.25511 95.535 8.86407 93.1792 13.0115C92.8274 13.6247 92.4998 14.1864 92.1177 14.783C89.1261 19.4424 86.446 21.7902 83.0226 25.5068L78.6216 29.6092C75.8066 32.3039 68.6982 37.8528 65.9435 39.6367C63.459 41.2482 61.4963 42.5524 58.6797 43.7413C55.93 44.8977 55.7955 44.2815 52.8364 42.3507L49.4994 39.9996C48.9924 39.6263 48.3751 39.116 47.5237 39.1111Z"
            fill="#070606"
          />
          <path
            fillRule="evenodd"
            clipRule="evenodd"
            d="M51.045 10.2399C50.3251 8.46978 48.0163 6.18357 45.672 8.47611C44.5662 9.56076 43.9657 11.0407 43.2136 11.9908C43.1539 10.5244 44.4908 8.99354 45.1411 8.1837C45.3796 7.88523 46.335 6.97498 46.6519 6.75464C47.4582 6.202 48.0463 6.37365 48.8468 6.81048C51.0018 7.98234 51.1811 8.98611 52.5868 8.72533C54.5168 8.37763 54.862 6.65204 54.8727 4.81503C54.8769 4.07699 54.5644 2.59924 54.6862 2.0598C54.8749 1.22713 55.7643 0.478904 55.948 1.67826C56.2198 3.42614 56.4817 4.83896 57.4648 5.99404C58.7242 7.47426 59.8256 7.55678 61.2753 6.02155C62.9228 4.27587 61.9949 2.87378 62.7858 1.66836C63.2982 2.18359 63.5522 2.62647 64.1648 3.02864C64.9111 3.51142 65.6527 3.48748 65.834 4.24148C64.7746 4.65521 63.2432 5.73133 62.5728 6.40501C61.5341 7.44207 61.6095 9.03838 62.2472 10.4044C62.9786 11.9732 63.534 12.1069 65.1355 12.8411C66.2342 13.3443 68.0283 13.9695 69.4593 13.9769C71.1279 13.9866 71.4982 13.366 72.2054 12.4604C73.4059 10.9188 73.8592 11.019 74.6564 11.5669C74.9373 14.1445 69.1286 16.0423 66.9117 16.0296C65.1677 16.02 63.3651 15.3116 61.3837 15.3006C59.0221 15.2872 58.1011 15.2462 56.0234 16.2434C51.9029 18.2212 43.8969 23.8145 40.1943 26.5587C38.1868 28.0469 36.2535 29.4756 34.247 30.9438C32.275 32.3924 30.2338 33.9306 28.2967 35.4397C26.3376 36.9681 24.4026 38.4183 22.3811 39.9651L16.4814 44.5081C16.2148 44.7414 16.0327 44.9526 15.7843 45.1702C13.2965 47.38 12.1637 49.2233 11.5007 49.8398C9.46675 47.6435 6.91205 46.0428 4.27814 44.4418C3.55962 44.0066 2.32175 43.4171 1.68768 42.9341C3.65452 42.2068 7.82726 39.9901 9.8956 38.9668C12.5812 37.6327 15.2284 36.1098 17.8356 34.6258C21.5454 32.5183 25.849 30.0459 29.4408 27.8081C30.7304 27.0038 31.9754 26.2363 33.2507 25.4801C37.2589 23.0918 44.476 18.5133 48.1995 15.8841C49.2294 15.159 50.3746 13.9384 51.0455 12.6128C51.5552 11.6121 51.4694 11.2789 51.045 10.2399ZM53.7259 4.46925C53.7185 5.66999 53.8868 7.70368 52.0916 7.69377C51.6545 7.69157 49.7405 5.34182 47.3825 5.32889C45.7306 5.31981 42.7234 9.12558 42.2313 10.836C41.8861 12.0321 41.9265 13.2161 43.2995 13.2238C44.4768 13.2306 45.754 8.55368 47.8202 8.56551C48.8231 8.57101 50.174 10.3987 50.2665 11.4132C50.3174 11.9267 49.74 12.7635 49.4277 13.1646C47.8457 15.2008 43.7877 17.5778 41.6066 18.9675C40.4493 19.7017 39.4139 20.3611 38.274 21.0911L29.8446 26.3015C27.0924 27.873 24.143 29.7749 21.2983 31.3957C17.7071 33.4313 13.6004 35.8735 9.92008 37.7559C9.56413 37.9336 9.33801 38.0205 9.01011 38.2134C7.45479 39.1154 5.16033 40.1343 3.52633 40.9166L0.672901 42.1649C-0.299517 42.5476 -0.106133 43.224 0.546088 43.5769L2.96159 44.9237C4.08475 45.5815 4.97795 46.1465 6.05572 46.8441C7.46524 47.7684 9.86864 49.4183 10.8185 50.8256C11.8908 52.4016 12.5661 49.8365 14.5899 47.8239L15.8715 46.4903C16.1609 46.24 16.3127 46.1864 16.6299 45.8838C17.5545 44.9942 18.4719 44.2908 19.4916 43.5338C20.5097 42.771 21.495 42.001 22.5208 41.2211C23.5227 40.4523 24.4621 39.7428 25.476 38.9583L35.9487 31.0395C36.4609 30.6445 36.942 30.3191 37.452 29.929L41.9697 26.612C42.4959 26.2341 42.9517 25.9095 43.4865 25.5197C46.722 23.1988 51.1784 20.136 54.6425 18.1552C57.8095 16.352 59.8195 15.8604 63.9439 16.6513C66.9758 17.2301 66.7134 17.3709 69.7941 16.6026C70.5871 16.4045 71.7246 16.0354 72.4148 15.6896C73.8568 14.9507 77.1198 12.4714 75.2822 10.6897C73.928 9.37398 72.7696 10.3761 71.7521 11.3471C71.129 11.932 70.8377 12.9269 69.6969 12.9212C68.4767 12.9143 64.4434 11.7922 63.6908 10.685C63.0677 9.77808 62.9156 9.38388 62.9219 8.31023C62.9357 5.98771 66.9723 5.7693 66.9822 4.10009C66.9846 3.68774 66.5431 3.12272 66.2537 2.90898C65.7572 2.54092 65.4843 2.539 64.9647 2.25841C64.3342 1.92171 62.498 -1.07064 61.5886 1.6227C61.1812 2.83691 61.6059 3.97851 60.6068 5.15036C59.5115 6.43224 58.892 6.30818 58.0329 4.89728C56.5645 2.48453 57.6032 1.18724 56.4894 0.38345C55.344 -0.440423 54.2161 0.105341 53.6753 1.61775C53.3224 2.60887 53.732 3.31886 53.7259 4.46925Z"
            fill="#070606"
          />
          <path
            fillRule="evenodd"
            clipRule="evenodd"
            d="M4.47925 11.0091C5.29459 13.2544 9.82878 21.539 11.2479 23.6957C11.6837 24.3581 12.1139 24.9927 12.5722 25.6427C12.9746 26.2075 13.6797 27.0616 14.067 27.4123C15.7211 26.9469 22.364 23.6426 23.1631 22.8135L20.4717 19.4228C18.3973 16.7067 14.3663 10.9549 13.6125 7.77637C12.8731 8.01376 12.1103 8.42116 11.4028 8.70807C9.19472 9.59081 6.90025 10.5368 4.47925 11.0091Z"
            fill="#5294C4"
          />
          <path
            fillRule="evenodd"
            clipRule="evenodd"
            d="M104.344 42.4058C104.683 42.2677 105.408 41.676 105.72 41.4386C107.914 39.7872 113.407 35.4228 113.698 33.331C111.647 31.7656 105.546 27.8442 103.506 26.7915C102.969 27.0493 102.65 27.6308 102.285 27.9845L99.4429 31.0382C99.2349 31.2666 99.0853 31.3579 98.8589 31.5815C98.4367 31.9991 98.1407 32.4112 97.7203 32.8296C97.2736 33.2747 96.9281 33.5112 96.4998 33.9767L94.0815 36.2816C95.4999 36.656 98.5296 38.2039 99.6836 38.9029C101.768 40.1729 102.64 40.7605 104.344 42.4058Z"
            fill="#FF0000"
          />
          <path
            fillRule="evenodd"
            clipRule="evenodd"
            d="M18.0848 54.5609C18.3687 54.2284 19.1604 53.7915 19.5958 53.4999C22.6457 51.4668 30.8536 44.8602 34.0773 42.0975L55.0474 24.4867C56.8907 23.1118 59.4512 21.4523 61.8826 21.0933C62.9712 20.9378 65.7132 20.9843 66.5956 21.4269C66.7615 22.4742 66.3032 23.2626 66.0727 24.0947C63.2955 24.1937 60.513 23.4372 57.4104 25.3449C55.1439 26.7388 51.0224 29.9006 48.9604 31.6556C48.4616 32.082 48.068 32.4192 47.5877 32.7815C47.3209 32.9821 47.1792 33.1521 46.9159 33.3499C46.6351 33.5677 46.5506 33.6057 46.2811 33.8546C45.8874 34.2227 45.3612 34.6513 44.9166 34.9916L38.294 40.6192C37.7637 41.1306 37.3799 41.3517 36.9574 41.7806C35.8172 42.9241 32.8298 45.2521 31.7388 46.3153C31.2148 46.8248 30.9488 47.0088 30.4698 47.4308L23.921 53.2466C23.4503 53.6521 23.1441 53.9989 22.6853 54.3893C21.7965 55.1375 21.0128 56.0048 20.1078 56.6714C19.3304 56.4376 18.4636 55.31 18.0848 54.5609ZM16.7732 54.2204C16.7705 54.6781 17.3965 55.5975 17.6416 55.9441C18.1173 56.61 19.7463 58.4616 20.7052 57.6226L34.8998 45.0417C35.1597 44.7966 35.3281 44.595 35.6051 44.3848L39.9393 40.6629C40.2446 40.3658 40.3167 40.2935 40.6702 40.0346L47.9316 33.9028C48.2352 33.6255 48.3962 33.5512 48.6858 33.2907L50.9393 31.4658C53.1832 29.5911 54.739 28.5098 57.0173 26.8703C58.059 26.1237 59.2408 25.5199 60.7364 25.2385C62.4345 24.915 64.387 25.154 66.399 25.1653C67.1392 25.1697 68.3911 21.6498 67.4319 20.6298C66.8804 20.0386 63.8146 19.9115 62.9714 19.9068C59.3417 19.8862 54.8925 22.9751 52.1868 25.3986L43.3247 32.8753C43.0356 33.1504 42.9905 33.1939 42.6538 33.4475L38.5292 36.9312C38.2662 37.1295 38.1356 37.3163 37.872 37.5163L35.8188 39.2058C35.5154 39.4286 35.4274 39.5747 35.1559 39.7928L31.0464 43.1766C30.6104 43.5673 30.1574 43.9466 29.6787 44.3037L25.4757 47.7042C23.3345 49.3677 19.6762 52.3119 17.4925 53.5759C17.2045 53.7426 16.7751 53.8438 16.7732 54.2204Z"
            fill="#070606"
          />
          <path
            fillRule="evenodd"
            clipRule="evenodd"
            d="M50.3115 35.785C50.8196 37.0966 53.8656 39.2078 56.2088 39.4381C58.9863 39.7197 61.3088 37.7422 62.7838 36.6606C63.4398 36.1775 68.6912 31.0648 70.1051 29.7972L81.4682 19.8387C84.1481 17.4705 88.6751 10.5117 88.8924 6.1833C88.1569 5.75995 87.8521 4.84805 85.9119 5.12011C85.3818 7.90945 85.1139 9.33603 83.9115 11.685C82.853 13.7407 81.0495 16.2544 79.3303 17.7505L68.2263 28.0807C67.8599 28.4823 67.5053 28.7415 67.1449 29.1491L65.0381 31.3506C62.8663 33.5419 61.2937 36.4163 57.7957 36.8457C54.0964 37.2982 52.3859 34.7768 51.8209 34.4797C51.1569 34.8846 50.6925 35.1759 50.3115 35.785Z"
            fill="#F5EB03"
          />
          <path
            fillRule="evenodd"
            clipRule="evenodd"
            d="M50.3113 35.785C50.6923 35.176 51.1564 34.8847 51.8207 34.4798C52.3857 34.7766 54.0959 37.298 57.7955 36.8458C61.2935 36.4163 62.8664 33.542 65.0379 31.3507L67.1448 29.1492C67.5051 28.7418 67.8597 28.4824 68.2261 28.0808L79.3298 17.7506C81.0491 16.2547 82.8528 13.7407 83.9111 11.685C85.1134 9.33611 85.3816 7.90925 85.9115 5.12019C87.8516 4.8484 88.1564 5.76003 88.892 6.18338C88.6747 10.5115 84.1476 17.4703 81.4678 19.8388L70.1047 29.7973C68.6905 31.0649 63.4394 36.1776 62.7833 36.6606C61.3083 37.7423 58.9855 39.7198 56.2083 39.4381C53.8654 39.2082 50.8194 37.0966 50.3113 35.785ZM57.1152 35.8222C53.5923 35.8035 52.7024 33.2301 52.0603 33.2259C51.3828 33.2221 49.8445 34.5496 49.507 34.9956C48.7376 36.0007 49.1447 36.3781 50.3914 37.5956C51.1988 38.3837 51.8262 38.9017 52.8314 39.4739C58.782 42.8376 63.7032 37.3291 67.2947 33.8985C68.0421 33.1828 68.699 32.5553 69.4411 31.8428L73.7858 27.8002C74.2031 27.4008 74.5272 27.211 74.9475 26.8036C76.6203 25.1822 79.798 22.3417 81.7572 21.018C84.966 18.8449 90.0008 9.99493 90.0242 6.01036C90.0259 5.79222 89.0947 4.89242 88.6782 4.63824C87.6065 3.98382 85.6353 3.69058 84.9916 4.34115C84.7531 4.57992 84.5206 7.28866 83.8822 8.97024C82.9942 11.3192 81.3316 14.3096 79.5062 16.0124C78.7326 16.7317 79.296 16.359 78.0581 17.3985L73.423 21.5022C72.099 22.7651 70.8603 23.946 69.5374 25.2147L66.6389 28.0934C66.2697 28.4472 66.108 28.7237 65.7143 29.0928C65.3144 29.4672 65.1889 29.6295 64.8374 30.0314L62.9797 32.0269C61.3738 33.8559 59.7668 35.8365 57.1152 35.8222Z"
            fill="#070606"
          />
          <path
            fillRule="evenodd"
            clipRule="evenodd"
            d="M18.085 54.5608C18.4637 55.3099 19.3305 56.4374 20.1076 56.6712C21.0127 56.0047 21.7964 55.1374 22.6852 54.3892C23.144 53.9988 23.4502 53.6517 23.9208 53.2465L30.4697 47.4307C30.9487 47.0087 31.2147 46.8246 31.7387 46.3152C32.8297 45.252 35.8171 42.924 36.9573 41.7805C37.3798 41.3516 37.7638 41.1307 38.2939 40.6191L44.9165 34.9914C45.3611 34.6511 45.8873 34.2226 46.2809 33.8545C46.5502 33.6055 46.635 33.5676 46.9158 33.3497C47.1791 33.1517 47.321 32.9817 47.5876 32.7814C48.0679 32.4194 48.4618 32.0819 48.9602 31.6555C51.0223 29.9002 55.1438 26.7387 57.4102 25.3448C60.5129 23.4371 63.2956 24.1936 66.0726 24.0946C66.3034 23.2624 66.7614 22.4738 66.5955 21.4268C65.7131 20.9842 62.971 20.9377 61.8825 21.0931C59.4511 21.4521 56.8909 23.1117 55.0473 24.4866L34.0772 42.0974C30.8535 44.86 22.6456 51.4669 19.5957 53.4998C19.1605 53.7914 18.3688 54.2282 18.085 54.5608Z"
            fill="#F5EB03"
          />
          <path
            fillRule="evenodd"
            clipRule="evenodd"
            d="M19.2754 5.28294C19.8261 6.56097 20.7025 7.94436 21.4054 9.21524C22.7502 11.6594 24.453 14.4729 26.0223 16.7707C26.8352 17.9582 27.8156 19.343 28.7314 20.3008C30.1203 20.037 31.5157 18.9152 32.4034 18.071L27.6574 11.2178C26.8701 10.09 26.0919 8.95749 25.3374 7.79307L23.0644 4.19141C22.3935 4.27036 19.6663 4.97567 19.2754 5.28294Z"
            fill="#F5EB03"
          />
          <path
            fillRule="evenodd"
            clipRule="evenodd"
            d="M4.47947 11.009C6.90047 10.5367 9.19494 9.59067 11.403 8.70793C12.1105 8.42102 12.8736 8.0139 13.6128 7.77622C14.3662 10.9548 18.3976 16.7065 20.472 19.4227L23.1636 22.8133C22.3645 23.6424 15.7213 26.9465 14.0675 27.4122C13.6804 27.0617 12.9751 26.2073 12.5727 25.6426C12.1144 24.9926 11.6842 24.3579 11.2484 23.6955C9.82901 21.5389 5.29482 13.2542 4.47947 11.009ZM3.09058 10.4352C3.13817 11.0571 3.87979 12.2978 4.1579 12.9582C4.50285 13.7802 4.97159 14.5936 5.36111 15.355L10.5329 24.6036C10.7948 25.0344 13.2321 28.554 13.818 28.5571C15.0578 28.5642 24.5611 23.8171 24.5655 23.0422C24.5688 22.4491 22.8542 20.7002 22.4074 20.1145C22.1439 19.7643 21.9368 19.5335 21.6573 19.1724C20.6329 17.8426 19.7677 16.6152 18.8278 15.2312C17.8782 13.8407 17.0177 12.5294 16.2599 11.0307C15.6696 9.85475 15.1056 8.84822 14.6735 7.55836C14.2089 6.18349 14.3503 6.11197 11.3651 7.54543C9.82735 8.28375 6.26916 9.54088 4.49652 9.91334C3.70181 10.0833 3.60663 9.8663 3.09058 10.4352Z"
            fill="#070606"
          />
          <path
            fillRule="evenodd"
            clipRule="evenodd"
            d="M86.9326 41.449C87.107 41.9075 87.5546 42.1661 87.9823 42.5564C88.3751 42.9127 88.6216 43.2087 88.9828 43.5919C89.6587 44.2947 90.3665 45.0069 91.0137 45.7576L93.0073 47.9437C93.5085 48.4982 94.4768 49.6365 94.8456 50.2874C97.2603 50.3655 98.9713 48.8759 99.7075 47.3148C99.4712 46.878 95.9892 43.6694 95.2085 43.0708C94.1874 42.2748 91.3854 39.7121 90.3076 39.3187C89.3819 38.987 87.2311 40.9538 86.9326 41.449Z"
            fill="#F5EB03"
          />
          <path
            fillRule="evenodd"
            clipRule="evenodd"
            d="M104.344 42.4057C102.64 40.7608 101.768 40.1729 99.6839 38.9028C98.5299 38.2039 95.5001 36.656 94.0818 36.2816L96.5001 33.9767C96.9284 33.5112 97.2739 33.2747 97.7206 32.8296C98.1407 32.4112 98.4369 31.9988 98.8592 31.5815C99.0856 31.3579 99.2352 31.2666 99.4432 31.0382L102.285 27.9845C102.65 27.6308 102.969 27.0493 103.506 26.7915C105.546 27.8442 111.648 31.7655 113.699 33.331C113.407 35.4228 107.914 39.7872 105.72 41.4386C105.408 41.6757 104.683 42.2677 104.344 42.4057ZM92.3821 36.3484C92.3788 36.9487 93.1223 37.0452 93.8111 37.3096C94.4469 37.5632 94.8996 37.747 95.5175 38.0064C96.5075 38.4212 97.8507 39.1004 98.7098 39.6106C99.2209 39.9157 99.7012 40.1732 100.222 40.4915L102.923 42.5681C104.604 44.2227 103.903 44.1371 107.982 41.0675L111.472 38.0944L113.921 35.3339C114.637 34.3271 114.756 34.0187 114.762 33.015C114.765 32.4755 111.237 30.3679 110.73 29.997C109.473 29.0873 104.164 25.5968 103.172 25.5913C102.786 25.5883 100.954 27.8839 100.526 28.2849C100.207 28.5892 100.164 28.681 99.8852 28.9949C99.6589 29.262 99.4377 29.4199 99.1918 29.6697C98.9043 29.955 98.8471 30.101 98.5527 30.3901C97.2654 31.6753 95.0427 34.0022 93.8018 35.0467C93.5688 35.2434 93.2923 35.4374 93.0255 35.6313C92.7829 35.8106 92.3837 36.0159 92.3821 36.3484Z"
            fill="#070606"
          />
          <path
            fillRule="evenodd"
            clipRule="evenodd"
            d="M19.2753 5.28317C19.6662 4.97591 22.3934 4.27032 23.0643 4.19137L25.3373 7.79303C26.0916 8.95745 26.8698 10.0902 27.6574 11.2178L32.4034 18.0709C31.5157 18.9152 30.1202 20.037 28.7313 20.3008C27.8156 19.3429 26.8352 17.9582 26.0223 16.7706C24.4529 14.4729 22.7499 11.6593 21.4053 9.2152C20.7027 7.9446 19.826 6.56148 19.2753 5.28317ZM28.4939 21.5059C29.6938 21.5125 33.6993 19.0747 33.7048 18.0781C33.7065 17.8049 31.5809 14.9633 31.187 14.3851L24.824 4.94895C24.5894 4.55888 24.4785 4.34129 24.2549 3.9427L23.6461 2.96973C23.1048 2.97715 19.2379 4.07913 18.4861 4.30828C17.3231 4.67331 18.1084 5.40173 18.9326 7.03187C19.7903 8.71043 22.6814 13.7472 23.6863 15.2365C24.4304 16.3255 27.7944 21.5023 28.4939 21.5059Z"
            fill="#070606"
          />
          <path
            fillRule="evenodd"
            clipRule="evenodd"
            d="M86.9325 41.4491C87.231 40.9539 89.3816 38.9871 90.3072 39.3191C91.385 39.7125 94.187 42.2752 95.2081 43.0713C95.989 43.6698 99.4708 46.8784 99.7071 47.3152C98.9709 48.8763 97.2599 50.3659 94.8453 50.2878C94.4764 49.6372 93.5083 48.4986 93.0069 47.9441L91.0133 45.758C90.3661 45.0073 89.6583 44.2951 88.9824 43.5923C88.6212 43.2091 88.3747 42.9131 87.9819 42.5569C87.5545 42.1665 87.1069 41.9077 86.9325 41.4491ZM85.666 41.6612C85.6644 41.9112 88.1607 44.3234 88.6146 44.8274C89.1447 45.4147 89.5964 45.7497 90.1188 46.3846L91.5899 47.9746C92.0909 48.5553 92.5049 49.0474 92.9807 49.6336C94.1702 51.0902 94.083 51.9793 96.9571 51.0234C97.6805 50.7887 98.5369 50.3563 99.0199 49.9071C99.6366 49.3371 99.9852 49.0117 100.452 48.278C101.064 47.3227 101.161 47.0993 100.367 46.3439C99.868 45.8658 99.3247 45.2474 98.8062 44.8403L95.4975 41.9099C94.4095 41.0046 91.16 38.1253 89.9546 38.1187C89.3629 38.1145 87.8114 39.1478 87.4067 39.4413C86.9113 39.8022 85.6699 40.9014 85.666 41.6612Z"
            fill="#070606"
          />
        </svg>