<?xml version="1.0" encoding="utf-8"?>
<!-- Generator: Adobe Adobe Illustrator 24.2.0, SVG Export Plug-In . SVG Version: 6.00 Build 0)  -->
<svg version="1.1" id="Layer_1" xmlns="http://www.w3.org/2000/svg" xmlns:xlink="http://www.w3.org/1999/xlink" x="0px" y="0px"
	 width="671.2px" height="539.78px" viewBox="0 0 671.2 539.78" style="enable-background:new 0 0 671.2 539.78;"
	 xml:space="preserve">
<style type="text/css">
	.st0{fill:#E30614;}
	.st1{fill:#FDE000;}
	.st2{fill:#EDE9E0;}
	.st3{fill:#053E61;}
	.st4{fill:#8F141C;}
	.st5{fill:#FC6900;}
	.st6{fill:#CCE70B;}
	.st7{fill:#41A0CB;}
	.st8{fill-rule:evenodd;clip-rule:evenodd;fill:#46A2DA;}
	.st9{fill-rule:evenodd;clip-rule:evenodd;fill:#E30614;}
	.st10{fill-rule:evenodd;clip-rule:evenodd;fill:#13110E;}
	.st11{fill-rule:evenodd;clip-rule:evenodd;fill:#FDE100;}
	.st12{fill-rule:evenodd;clip-rule:evenodd;fill:#17120F;}
	.st13{fill:#FFFFFF;}
	.st14{fill:#053E61;stroke:#FFFFFF;stroke-width:16;stroke-linecap:round;stroke-linejoin:round;stroke-miterlimit:10;}
	.st15{fill-rule:evenodd;clip-rule:evenodd;fill:#FDE000;}
	.st16{fill-rule:evenodd;clip-rule:evenodd;fill:#41A0CB;}
	.st17{fill-rule:evenodd;clip-rule:evenodd;fill:#EDE9E0;stroke:#053E61;stroke-width:21.3818;stroke-miterlimit:10;}
	.st18{fill:#053E61;stroke:#EDE9E0;stroke-width:20.8752;stroke-linecap:round;stroke-linejoin:round;stroke-miterlimit:10;}
	.st19{font-family:'Komet-Heavy';}
	.st20{font-size:62.6256px;}
	.st21{fill:#41A0CB;stroke:#EDE9E0;stroke-width:10.4376;stroke-miterlimit:10;}
</style>
<circle class="st17" cx="351.67" cy="269.89" r="259.2"/>
<g>
	<path class="st1" d="M527.46,396.18c-0.32,0-0.64-0.01-0.96-0.03c-4.03-0.25-7.5-2.02-10.37-3.72
		c-21.11-12.51-34.1-33.59-46.66-53.97c-3.38-5.48-6.87-11.14-10.42-16.47c-8.35-12.51-30.87-41.6-59.58-41.6
		c-2.48,0-4.97,0.23-7.42,0.67c-12.86,2.34-23.46,10.92-34.68,20.01c-2.09,1.69-4.17,3.38-6.26,5.02
		c-54.63,42.82-95.13,65.46-117.13,65.46c-13.78,0-17.12-8.44-17.92-12.06c-4.03-18.29,9.66-33.7,25.51-51.54
		c15.6-17.56,33.28-37.46,42.64-66.45c7.26-22.5-10.96-38.24-24.27-49.73c-1.81-1.56-3.51-3.03-5.02-4.41
		c-54.51-49.99-67.3-116.56-58.87-138.23c3.17-8.15,8.63-9.36,11.6-9.36c3.64,0,7.41,1.77,11.21,5.25
		c28.91,26.52,60.86,49.81,94.94,69.24c6.22,3.54,12.31,6.74,18.49,6.87l0.42,0c13.53,0,23.64-13.9,31.75-27.5
		c4.73-7.93,9.2-19.76,13.94-32.3c10.39-27.46,21.12-55.85,39.65-55.85c1.4,0,2.83,0.17,4.25,0.51
		c17.28,4.13,18.86,33.84,20.68,68.25c1.13,21.34,2.3,43.41,7.3,58.62c1.75,5.33,12.24,8.92,26.09,8.92
		c9.78,0,19.83-1.78,27.57-4.89l67.21-26.97c7.07-2.83,15.16-4.46,22.2-4.46c13.65,0,22.41,5.99,24.04,16.43
		c2.2,14.12-12.23,23.99-17.67,27.7l-88.07,60.19c-7.35,5.02-15.68,10.72-19.38,18.82c-5.73,12.59,0.75,28.21,7.27,41.86
		l39.79,83.24c3.1,6.5,6.97,14.58,6.31,23.41C544.76,388.89,535.52,396.18,527.46,396.18z"/>
	<g>
		<path class="st2" d="M418.04,10.69c0.99,0,2,0.12,3.03,0.37c22.8,5.45,11.46,84.56,24.24,123.43c2.83,8.6,16.23,12.5,31.05,12.5
			c10.16,0,20.98-1.84,29.52-5.26c22.4-8.99,44.81-17.98,67.21-26.97c6.01-2.41,13.46-4.09,20.26-4.09c9.37,0,17.5,3.19,18.88,12.01
			c1.49,9.54-7.48,17.14-15.46,22.59c-29.36,20.06-58.72,40.12-88.07,60.19c-8.31,5.68-17.01,11.81-21.18,20.97
			c-6.7,14.7,0.34,31.7,7.31,46.28c13.26,27.75,26.52,55.5,39.79,83.24c3.14,6.57,6.35,13.52,5.82,20.78
			c-0.52,7.05-6,14.24-12.97,14.24c-0.21,0-0.42-0.01-0.63-0.02c-2.88-0.18-5.55-1.53-8.03-3c-25.6-15.17-38.88-44.1-55.4-68.85
			c-14.94-22.37-38-43.92-63.93-43.92c-2.75,0-5.54,0.24-8.35,0.75c-16.76,3.05-29.82,15.55-43.23,26.06
			c-63.83,50.04-97.63,64.35-113.91,64.35c-8.08,0-11.85-3.53-12.83-7.97c-6.88-31.26,48.55-54.96,68.01-115.27
			c9.43-29.22-18.38-48.26-30.73-59.59c-62.53-57.35-68.8-138.53-50.8-138.53c2.21,0,4.79,1.23,7.68,3.87
			c29.21,26.79,61.44,50.29,95.88,69.92c6.53,3.72,13.46,7.39,20.97,7.55c0.18,0,0.35,0.01,0.53,0.01
			c16.35,0,27.81-15.92,36.23-30.05C383.9,71.17,395.73,10.69,418.04,10.69 M418.04,0.25c-16.01,0-25.38,16.56-28.45,22
			c-6.02,10.64-11.13,24.15-16.08,37.22c-4.66,12.31-9.06,23.94-13.55,31.47c-13.19,22.12-21.5,24.96-27.27,24.96
			c-0.1,0-0.21,0-0.31,0c-4.96-0.1-10.41-2.98-16.02-6.18c-33.74-19.23-65.37-42.3-93.99-68.55c-4.79-4.39-9.74-6.62-14.73-6.62
			c-3.47,0-12.01,1.23-16.47,12.69c-5.26,13.52-2.91,37.65,6.15,62.99c7.62,21.31,23.18,52.66,54.06,80.98
			c1.56,1.43,3.3,2.93,5.13,4.52c15.82,13.66,28.45,26.42,22.72,44.18c-9.02,27.94-26.31,47.41-41.57,64.59
			c-7.89,8.88-15.34,17.27-20.41,25.69c-6.4,10.63-8.46,20.59-6.29,30.44c0.83,3.79,4.96,16.16,23.02,16.16
			c23.51,0,64-22.4,120.35-66.57c2.13-1.67,4.27-3.4,6.33-5.07c10.69-8.66,20.78-16.83,32.33-18.93c2.14-0.39,4.32-0.59,6.48-0.59
			c9.66,0,19.69,3.86,29.81,11.47c9.04,6.8,17.84,16.42,25.44,27.81c3.5,5.25,6.97,10.87,10.32,16.31
			c12.89,20.92,26.22,42.55,48.44,55.72c3.4,2.01,7.57,4.12,12.7,4.44c0.43,0.03,0.86,0.04,1.28,0.04
			c13.35,0,22.53-12.41,23.38-23.91c0.76-10.22-3.62-19.37-6.81-26.05l-39.79-83.24c-6.02-12.59-12.03-26.9-7.23-37.45
			c2.86-6.28,9.36-11.07,17.57-16.68l44.04-30.09l44.04-30.09c6.18-4.22,22.59-15.44,19.88-32.82
			c-2.04-13.05-12.95-20.84-29.19-20.84c-7.68,0-16.49,1.76-24.15,4.84l-6.13,2.46l-61.08,24.51c-7.04,2.82-16.62,4.51-25.63,4.51
			c-14.74,0-20.75-4.15-21.13-5.32c-4.78-14.55-5.93-36.27-7.05-57.27c-0.86-16.15-1.67-31.4-4.09-43.69
			c-1.44-7.31-3.36-13.02-5.87-17.46C433.7,4.8,427.72,1.91,423.49,0.9C421.68,0.47,419.85,0.25,418.04,0.25L418.04,0.25z"/>
	</g>
</g>
<g>
	<path class="st0" d="M381.36,528.36c-20.79,0-41.37-3.72-58.75-7.35c-33.84-7.08-69.12-16.63-97.82-38.33
		c-29.75-22.5-51.38-57.95-60.91-99.81c-7.71-33.9-7.92-72.17-0.63-116.98c3.92-24.12,10.32-51.58,28.02-72.41l4.38-5.15l3.88,5.54
		c7.24,10.36,11.63,22.15,12.04,32.35c0.37,9.14-1.77,17.86-3.84,26.3c-0.47,1.91-0.94,3.82-1.37,5.73
		c-5.87,25.65-5.88,53.24-0.02,79.77c5.85,26.54,17.47,51.56,33.58,72.36c22.88,29.53,50.51,40.05,68.74,40.05
		c6.76,0,13.28-1.3,19.37-3.86c19.18-8.06,30.38-26.42,42.24-45.85c9.45-15.49,19.23-31.51,33.65-42.83
		c7.08-5.56,15.17-8.74,22.18-8.74c4.26,0,8.14,1.11,11.52,3.3c12.65,8.19,11.51,26.66,4.02,39.88c-1.7,3-3.61,5.9-5.46,8.71
		c-4.73,7.19-9.2,13.97-9.69,21.46l-0.05,0.81l-0.29,0.75c-8.02,20.56-5.23,26.27-4.59,27.2c0.22,0.32,0.67,0.98,2.38,0.98
		c0.34,0,0.7-0.03,1.07-0.08c6.3-0.9,11.88-5.81,16.62-10.34c12.32-11.78,23.51-24.83,33.28-38.79
		c3.03-4.33,13.87-18.45,26.32-18.45c3.78,0,7.34,1.36,10.29,3.94l2.07,1.81l-0.32,2.73c-3.33,28-12.39,54.45-26.19,76.5
		c-15.42,24.65-36.2,42.37-60.08,51.26C413.31,525.89,398.39,528.36,381.36,528.36z"/>
	<g>
		<path class="st2" d="M195.24,196.85c5.71,8.17,10.68,19.19,11.1,29.57c0.42,10.38-2.77,20.52-5.08,30.65
			c-12.31,53.81,0.71,112.86,34.52,156.49c17.68,22.82,45.4,42.07,72.87,42.07c7.21,0,14.4-1.33,21.39-4.26
			c36.77-15.46,45.72-64.76,77.09-89.39c5.38-4.23,12.38-7.63,18.96-7.63c3.05,0,6.02,0.73,8.68,2.46
			c10.2,6.61,8.31,22.35,2.32,32.93s-15.03,20.28-15.82,32.41c-11.2,28.72-4.46,35.29,2.65,35.29c0.6,0,1.21-0.05,1.81-0.13
			c7.64-1.09,13.92-6.4,19.49-11.73c12.58-12.03,23.97-25.31,33.95-39.58c5.32-7.61,14.12-16.22,22.04-16.22
			c2.41,0,4.73,0.79,6.85,2.65c-6.16,51.81-34,105.29-82.91,123.49c-14.07,5.23-28.83,7.23-43.79,7.23
			c-19.23,0-38.81-3.3-57.68-7.24c-33.82-7.07-68.18-16.54-95.74-37.38c-30.76-23.26-50.41-59.2-58.97-96.81
			s-6.76-76.92-0.57-114.99C172.45,241.78,178.87,216.1,195.24,196.85 M196.04,179.78l-8.76,10.31
			c-18.53,21.8-25.15,50.12-29.19,74.95c-7.4,45.49-7.17,84.41,0.7,118.98c9.8,43.07,32.12,79.58,62.85,102.82
			c29.52,22.32,65.46,32.07,99.9,39.27c17.65,3.69,38.55,7.47,59.82,7.47c17.66,0,33.17-2.58,47.43-7.89
			c24.97-9.29,46.65-27.75,62.69-53.38c14.21-22.7,23.52-49.9,26.94-78.65l0.65-5.46l-4.14-3.62c-3.91-3.43-8.66-5.24-13.73-5.24
			c-6.07,0-12.31,2.55-18.54,7.57c-4.26,3.43-8.54,8.09-12.05,13.11c-9.57,13.69-20.54,26.47-32.61,38.01
			c-3.97,3.79-8.17,7.41-12.25,8.61c-0.06-2.76,0.63-8.87,5.24-20.7l0.59-1.5l0.1-1.61c0.4-6.11,4.5-12.33,8.84-18.93
			c1.9-2.88,3.86-5.86,5.65-9.01c8.66-15.3,9.6-36.91-5.73-46.83c-4.24-2.75-9.07-4.14-14.36-4.14c-11.18,0-20.71,6.18-25.41,9.86
			c-15.17,11.9-25.19,28.33-34.89,44.22c-11.41,18.69-22.18,36.35-39.81,43.76c-5.44,2.29-11.28,3.45-17.34,3.45
			c-10.93,0-22.92-3.79-34.67-10.95c-10.96-6.68-21.6-16.3-29.95-27.07c-15.65-20.2-26.92-44.5-32.61-70.29
			c-5.69-25.79-5.68-52.58,0.02-77.48c0.42-1.86,0.88-3.7,1.36-5.65c2.15-8.79,4.38-17.88,3.98-27.75
			c-0.45-11.17-5.18-23.98-12.97-35.13L196.04,179.78L196.04,179.78z"/>
	</g>
</g>
<g>
	<text transform="matrix(1 0 0 1 10.3601 289.7116)" class="st18 st19 st20">DERECHOS HUMANOS</text>
</g>
<g>
	<path class="st3" d="M14.44,246.26c0.94-0.04,1.81-0.08,2.63-0.12s1.61-0.07,2.37-0.09c0.76-0.02,1.54-0.04,2.34-0.05
		c0.79-0.01,1.63-0.02,2.51-0.02c4.5,0,8.52,0.49,12.03,1.45c3.52,0.97,6.48,2.37,8.9,4.2c2.42,1.83,4.26,4.07,5.52,6.7
		s1.9,5.62,1.9,8.96c0,3.57-0.66,6.75-1.97,9.56s-3.2,5.18-5.64,7.12c-2.45,1.95-5.42,3.43-8.93,4.45
		c-3.51,1.02-7.46,1.53-11.86,1.53c-0.9,0-1.73,0-2.51-0.01c-0.77-0.01-1.55-0.03-2.32-0.05c-0.78-0.02-1.56-0.05-2.35-0.08
		c-0.8-0.03-1.66-0.07-2.6-0.11V246.26z M25.27,280.66c0.24,0,0.48,0,0.72,0c0.23,0,0.49,0,0.75,0c2.27,0,4.31-0.29,6.14-0.89
		c1.83-0.59,3.38-1.44,4.66-2.54s2.26-2.46,2.94-4.07c0.68-1.61,1.03-3.45,1.03-5.5c0-1.96-0.33-3.71-0.98-5.24
		s-1.61-2.83-2.87-3.88c-1.26-1.05-2.81-1.85-4.66-2.4c-1.85-0.55-3.96-0.83-6.33-0.83c-0.25,0-0.49,0-0.72,0s-0.46,0-0.69,0V280.66
		z"/>
	<path class="st3" d="M85.72,255.19H69.88v8.16h14.8v8.93h-14.8v8.5h15.84v8.93H59.06v-43.45h26.67V255.19z"/>
	<path class="st3" d="M92.51,246.26c1.75-0.1,3.48-0.18,5.17-0.24c1.69-0.06,3.32-0.09,4.89-0.09c3.57,0,6.73,0.33,9.49,0.99
		c2.76,0.66,5.09,1.62,6.99,2.89c1.9,1.26,3.34,2.8,4.34,4.6c1,1.8,1.5,3.84,1.5,6.1c0,1.33-0.16,2.56-0.49,3.72
		c-0.33,1.15-0.8,2.22-1.43,3.2c-0.63,0.98-1.41,1.88-2.33,2.71c-0.92,0.83-1.97,1.55-3.15,2.19c1.44,2.57,2.87,5.31,4.29,8.23
		c1.42,2.92,2.81,5.97,4.17,9.17H114.1c-0.98-2.3-2.06-4.65-3.24-7.05c-1.18-2.4-2.44-4.78-3.76-7.14c-0.6,0.08-1.2,0.14-1.82,0.17
		c-0.62,0.03-1.26,0.06-1.94,0.08v13.94H92.51V246.26z M103.34,267.3c0.22,0,0.44,0,0.66,0s0.44,0,0.69,0
		c1.45,0,2.75-0.14,3.88-0.43c1.13-0.29,2.08-0.71,2.84-1.26s1.33-1.22,1.73-1.99c0.4-0.78,0.6-1.66,0.6-2.64
		c0-0.94-0.2-1.79-0.6-2.54c-0.4-0.76-0.98-1.4-1.75-1.93c-0.77-0.53-1.72-0.94-2.85-1.23c-1.13-0.29-2.44-0.43-3.91-0.43
		c-0.23,0-0.44,0-0.64,0c-0.2,0-0.42,0-0.64,0V267.3z"/>
	<path class="st3" d="M157.95,255.19h-15.84v8.16h14.8v8.93h-14.8v8.5h15.84v8.93h-26.67v-43.45h26.67V255.19z"/>
	<path class="st3" d="M193.6,257.79c-1.22-1-2.56-1.76-4.02-2.29c-1.46-0.53-2.96-0.79-4.51-0.79c-1.51,0-2.91,0.28-4.21,0.84
		c-1.29,0.56-2.42,1.39-3.38,2.49c-0.96,1.1-1.72,2.47-2.28,4.11c-0.56,1.64-0.84,3.54-0.84,5.7c0,2.06,0.25,3.9,0.76,5.54
		s1.24,3.02,2.2,4.17c0.96,1.15,2.12,2.03,3.5,2.63s2.94,0.9,4.69,0.9c0.98,0,1.9-0.08,2.77-0.25c0.87-0.16,1.7-0.4,2.49-0.72
		c0.8-0.32,1.56-0.72,2.31-1.21c0.74-0.49,1.48-1.05,2.22-1.68l2.42,8.84c-1.94,1.39-4.04,2.46-6.3,3.21s-4.74,1.13-7.43,1.13
		c-3.12,0-5.95-0.51-8.5-1.54c-2.55-1.03-4.73-2.5-6.54-4.4s-3.22-4.22-4.2-6.96c-0.99-2.73-1.48-5.8-1.48-9.2
		c0-2.43,0.25-4.67,0.75-6.74c0.5-2.07,1.2-3.94,2.11-5.63c0.91-1.68,2-3.17,3.27-4.46c1.27-1.29,2.69-2.38,4.25-3.27
		s3.24-1.55,5.03-1.99c1.79-0.44,3.67-0.66,5.63-0.66c2.37,0,4.54,0.3,6.53,0.9c1.99,0.6,3.75,1.5,5.28,2.71L193.6,257.79z"/>
	<path class="st3" d="M238.43,289.71h-10.83v-17.4h-14.4v17.4h-10.83v-43.45h10.83v16.97h14.4v-16.97h10.83V289.71z"/>
	<path class="st3" d="M267.45,245.56c1.9,0,3.76,0.21,5.58,0.63s3.54,1.04,5.15,1.88c1.61,0.84,3.09,1.87,4.45,3.1
		c1.36,1.23,2.53,2.67,3.52,4.31c0.99,1.64,1.75,3.48,2.29,5.5c0.54,2.03,0.81,4.26,0.81,6.68c0,2.51-0.28,4.81-0.83,6.91
		c-0.55,2.1-1.32,3.99-2.31,5.67c-0.99,1.68-2.18,3.16-3.56,4.43c-1.39,1.27-2.91,2.33-4.57,3.18c-1.66,0.85-3.44,1.48-5.32,1.91
		c-1.89,0.43-3.83,0.64-5.83,0.64c-1.9,0-3.76-0.21-5.58-0.64c-1.82-0.43-3.55-1.05-5.17-1.88c-1.62-0.83-3.11-1.86-4.46-3.09
		c-1.36-1.23-2.53-2.67-3.52-4.31c-0.99-1.64-1.76-3.48-2.31-5.5c-0.55-2.03-0.83-4.26-0.83-6.68c0-2.49,0.28-4.79,0.84-6.9
		c0.56-2.11,1.34-4.01,2.34-5.69c1-1.68,2.19-3.16,3.58-4.43c1.39-1.27,2.91-2.33,4.57-3.18c1.66-0.85,3.44-1.48,5.32-1.91
		C263.51,245.77,265.46,245.56,267.45,245.56z M267.02,254.85c-1.39,0-2.74,0.28-4.05,0.83c-1.32,0.55-2.48,1.37-3.5,2.46
		c-1.02,1.09-1.84,2.45-2.46,4.07c-0.62,1.62-0.93,3.5-0.93,5.64c0,2.24,0.31,4.19,0.93,5.86c0.62,1.66,1.45,3.04,2.48,4.13
		s2.22,1.91,3.56,2.45s2.75,0.81,4.22,0.81c1.39,0,2.73-0.27,4.04-0.81s2.47-1.36,3.5-2.45c1.03-1.09,1.85-2.45,2.46-4.07
		c0.61-1.62,0.92-3.51,0.92-5.67c0-2.24-0.31-4.19-0.92-5.86c-0.61-1.66-1.44-3.04-2.48-4.13s-2.23-1.91-3.56-2.45
		C269.89,255.12,268.49,254.85,267.02,254.85z"/>
	<path class="st3" d="M297.21,278.24c1.61,1.04,3.29,1.84,5.05,2.4c1.75,0.56,3.48,0.84,5.17,0.84c0.88,0,1.65-0.08,2.32-0.24
		c0.67-0.16,1.24-0.39,1.71-0.7c0.47-0.3,0.81-0.68,1.04-1.12c0.22-0.44,0.34-0.95,0.34-1.52c0-0.79-0.27-1.49-0.79-2.09
		c-0.53-0.6-1.22-1.16-2.08-1.67c-0.86-0.51-1.84-1.01-2.95-1.5c-1.11-0.49-2.24-1.01-3.39-1.57c-1.15-0.56-2.28-1.2-3.39-1.93
		s-2.1-1.57-2.97-2.54c-0.87-0.97-1.56-2.1-2.09-3.41s-0.79-2.82-0.79-4.56c0-2.02,0.37-3.83,1.1-5.44
		c0.73-1.61,1.77-2.99,3.12-4.13s2.97-2.01,4.86-2.61c1.9-0.6,4.03-0.9,6.39-0.9c2.3,0,4.39,0.26,6.27,0.78
		c1.88,0.52,3.66,1.28,5.35,2.28l-2.42,8.5c-1.45-0.83-2.92-1.49-4.43-1.97c-1.51-0.48-3.04-0.72-4.59-0.72
		c-0.71,0-1.37,0.08-1.97,0.23c-0.6,0.15-1.11,0.37-1.53,0.66c-0.42,0.29-0.74,0.64-0.98,1.05c-0.23,0.42-0.35,0.9-0.35,1.45
		c0,0.75,0.26,1.42,0.79,1.99c0.53,0.57,1.23,1.1,2.09,1.59c0.87,0.49,1.85,0.97,2.95,1.44c1.1,0.47,2.23,0.99,3.38,1.56
		c1.15,0.57,2.28,1.21,3.39,1.93c1.11,0.71,2.1,1.57,2.97,2.57c0.87,1,1.56,2.16,2.09,3.49c0.53,1.33,0.8,2.88,0.8,4.65
		c0,2.04-0.4,3.88-1.19,5.54c-0.79,1.65-1.9,3.06-3.32,4.22s-3.11,2.06-5.08,2.69c-1.97,0.63-4.12,0.95-6.47,0.95
		c-2.59,0-4.91-0.3-6.97-0.91c-2.06-0.61-3.96-1.51-5.69-2.7L297.21,278.24z"/>
	<path class="st3" d="M381.63,289.71h-10.83v-17.4h-14.4v17.4h-10.83v-43.45h10.83v16.97h14.4v-16.97h10.83V289.71z"/>
	<path class="st3" d="M424.42,273.44c0,2.67-0.41,5.06-1.24,7.16c-0.83,2.1-2.01,3.88-3.56,5.34c-1.55,1.46-3.44,2.57-5.67,3.33
		s-4.77,1.15-7.6,1.15c-2.69,0-5.11-0.37-7.26-1.1c-2.15-0.73-3.97-1.81-5.46-3.23c-1.49-1.42-2.64-3.14-3.44-5.18
		c-0.81-2.04-1.21-4.37-1.21-7v-27.64h10.83v27.28c0,1.35,0.18,2.5,0.54,3.46s0.85,1.74,1.49,2.35c0.63,0.61,1.38,1.05,2.24,1.33
		c0.86,0.28,1.79,0.41,2.79,0.41s1.93-0.14,2.79-0.41c0.86-0.28,1.6-0.71,2.24-1.3c0.63-0.59,1.13-1.33,1.49-2.22
		s0.54-1.94,0.54-3.17v-27.74h10.52V273.44z"/>
	<path class="st3" d="M481.93,246.26c0.63,3.96,1.18,7.79,1.65,11.5c0.47,3.71,0.86,7.35,1.18,10.93c0.32,3.58,0.57,7.11,0.75,10.6
		s0.33,6.96,0.43,10.43h-10.89c-0.1-2.83-0.23-5.65-0.37-8.46s-0.31-5.58-0.49-8.33s-0.4-5.47-0.65-8.15s-0.53-5.32-0.86-7.9
		L464,289.71h-11.56l-8.65-32.9c-0.34,2.57-0.64,5.2-0.88,7.89c-0.24,2.69-0.46,5.42-0.65,8.18c-0.19,2.76-0.35,5.55-0.47,8.36
		c-0.12,2.81-0.23,5.64-0.33,8.47h-10.61c0.1-3.47,0.25-6.94,0.44-10.43c0.19-3.49,0.44-7.02,0.75-10.6
		c0.31-3.58,0.69-7.22,1.16-10.93c0.47-3.71,1.03-7.54,1.68-11.5h15.34l8.26,31.13l8.26-31.13H481.93z"/>
	<path class="st3" d="M516.2,246.26c2.77,7.16,5.25,14.4,7.42,21.73c2.17,7.33,3.92,14.57,5.25,21.73h-11.13
		c-0.22-1.26-0.46-2.55-0.71-3.85c-0.25-1.3-0.51-2.6-0.8-3.88h-13.91c-0.29,1.33-0.55,2.63-0.8,3.91s-0.48,2.56-0.7,3.82h-10.83
		c1.32-7.16,3.08-14.4,5.27-21.73c2.19-7.33,4.66-14.57,7.41-21.73H516.2z M514.28,273.38c-0.71-2.75-1.49-5.48-2.33-8.18
		c-0.84-2.7-1.73-5.37-2.67-8c-0.94,2.63-1.83,5.3-2.68,8s-1.63,5.43-2.34,8.18H514.28z"/>
	<path class="st3" d="M573.61,289.71h-13.24l-14.1-23.76c-0.57-1-1.09-1.98-1.54-2.94c-0.46-0.96-0.87-1.93-1.24-2.91
		c0.08,0.98,0.15,1.95,0.2,2.92c0.05,0.97,0.08,1.94,0.08,2.92v23.76h-9.97v-43.45h13.24l14.1,23.76c0.59,0.98,1.11,1.95,1.56,2.91
		c0.45,0.96,0.86,1.92,1.22,2.87c-0.08-0.96-0.15-1.93-0.2-2.9c-0.05-0.98-0.08-1.94-0.08-2.88v-23.76h9.97V289.71z"/>
	<path class="st3" d="M602.63,245.56c1.9,0,3.76,0.21,5.58,0.63s3.54,1.04,5.15,1.88c1.61,0.84,3.09,1.87,4.45,3.1
		c1.36,1.23,2.53,2.67,3.52,4.31c0.99,1.64,1.75,3.48,2.29,5.5c0.54,2.03,0.81,4.26,0.81,6.68c0,2.51-0.28,4.81-0.83,6.91
		c-0.55,2.1-1.32,3.99-2.31,5.67c-0.99,1.68-2.18,3.16-3.56,4.43c-1.39,1.27-2.91,2.33-4.57,3.18c-1.66,0.85-3.44,1.48-5.32,1.91
		c-1.89,0.43-3.83,0.64-5.83,0.64c-1.9,0-3.76-0.21-5.58-0.64c-1.82-0.43-3.55-1.05-5.17-1.88c-1.62-0.83-3.11-1.86-4.46-3.09
		c-1.36-1.23-2.53-2.67-3.52-4.31c-0.99-1.64-1.76-3.48-2.31-5.5c-0.55-2.03-0.83-4.26-0.83-6.68c0-2.49,0.28-4.79,0.84-6.9
		c0.56-2.11,1.34-4.01,2.34-5.69c1-1.68,2.19-3.16,3.58-4.43c1.39-1.27,2.91-2.33,4.57-3.18c1.66-0.85,3.44-1.48,5.32-1.91
		C598.69,245.77,600.63,245.56,602.63,245.56z M602.2,254.85c-1.39,0-2.74,0.28-4.05,0.83c-1.32,0.55-2.48,1.37-3.5,2.46
		c-1.02,1.09-1.84,2.45-2.46,4.07c-0.62,1.62-0.93,3.5-0.93,5.64c0,2.24,0.31,4.19,0.93,5.86c0.62,1.66,1.45,3.04,2.48,4.13
		s2.22,1.91,3.56,2.45s2.75,0.81,4.22,0.81c1.39,0,2.73-0.27,4.04-0.81s2.47-1.36,3.5-2.45c1.03-1.09,1.85-2.45,2.46-4.07
		c0.61-1.62,0.92-3.51,0.92-5.67c0-2.24-0.31-4.19-0.92-5.86c-0.61-1.66-1.44-3.04-2.48-4.13s-2.23-1.91-3.56-2.45
		C605.07,255.12,603.67,254.85,602.2,254.85z"/>
	<path class="st3" d="M632.38,278.24c1.61,1.04,3.29,1.84,5.05,2.4c1.75,0.56,3.48,0.84,5.17,0.84c0.88,0,1.65-0.08,2.32-0.24
		c0.67-0.16,1.24-0.39,1.71-0.7c0.47-0.3,0.81-0.68,1.04-1.12c0.22-0.44,0.34-0.95,0.34-1.52c0-0.79-0.27-1.49-0.79-2.09
		c-0.53-0.6-1.22-1.16-2.08-1.67c-0.86-0.51-1.84-1.01-2.95-1.5c-1.11-0.49-2.24-1.01-3.39-1.57c-1.15-0.56-2.28-1.2-3.39-1.93
		s-2.1-1.57-2.97-2.54c-0.87-0.97-1.56-2.1-2.09-3.41s-0.79-2.82-0.79-4.56c0-2.02,0.37-3.83,1.1-5.44
		c0.73-1.61,1.77-2.99,3.12-4.13s2.97-2.01,4.86-2.61c1.9-0.6,4.03-0.9,6.39-0.9c2.3,0,4.39,0.26,6.27,0.78
		c1.88,0.52,3.66,1.28,5.35,2.28l-2.42,8.5c-1.45-0.83-2.92-1.49-4.43-1.97c-1.51-0.48-3.04-0.72-4.59-0.72
		c-0.71,0-1.37,0.08-1.97,0.23c-0.6,0.15-1.11,0.37-1.53,0.66c-0.42,0.29-0.74,0.64-0.98,1.05c-0.23,0.42-0.35,0.9-0.35,1.45
		c0,0.75,0.26,1.42,0.79,1.99c0.53,0.57,1.23,1.1,2.09,1.59c0.87,0.49,1.85,0.97,2.95,1.44c1.1,0.47,2.23,0.99,3.38,1.56
		c1.15,0.57,2.28,1.21,3.39,1.93c1.11,0.71,2.1,1.57,2.97,2.57c0.87,1,1.56,2.16,2.09,3.49c0.53,1.33,0.8,2.88,0.8,4.65
		c0,2.04-0.4,3.88-1.19,5.54c-0.79,1.65-1.9,3.06-3.32,4.22s-3.11,2.06-5.08,2.69c-1.97,0.63-4.12,0.95-6.47,0.95
		c-2.59,0-4.91-0.3-6.97-0.91c-2.06-0.61-3.96-1.51-5.69-2.7L632.38,278.24z"/>
</g>
<path class="st0" d="M316.2,424.79c3.44-8.73,2.35-18.5,1.36-27.84c-0.99-9.33-1.74-19.21,2.28-27.7
	c4.02-8.48,14.56-14.61,23.02-10.53c6.27,3.02,9.29,10.64,8.76,17.58s-3.96,13.3-7.72,19.15
	C336.3,407.24,327.01,417.92,316.2,424.79z"/>
<path class="st0" d="M475.07,355.47c-6.21-8.08-18.97-5.48-22.39,4.12c-0.93,2.6-2,5.15-3.08,7.69
	c-5.79,13.68-11.58,27.35-17.37,41.03c-1.59,3.74-3.21,7.77-1.63,11.81c0.71,1.81,2.19,3.28,4.08,3.74c3.2,0.77,5.27-1.47,7.07-3.55
	c5.9-6.83,11.8-13.66,17.7-20.49c8.29-9.6,16.96-20.02,18.39-32.62C478.3,363.22,477.77,358.98,475.07,355.47z"/>
<path class="st21" d="M487.24,81.01c3.09-17.07,9.21-33.59,18-48.56c2.69-4.58,5.74-9.13,10.06-12.22
	c4.33-3.09,10.22-4.47,15.06-2.28c2.6,1.18,4.67,3.25,6.66,5.28c5.29,5.4,10.89,12.08,9.67,19.53c-1.19,7.31-8.38,11.85-14.86,15.44
	C517.68,66.06,503.52,73.9,487.24,81.01z"/>
<g>
	<path class="st7" d="M647.31,109.62c-1.81,0-3.47-0.41-4.99-0.85c-5.58-1.61-11.28-3.4-16.79-5.12
		c-19.01-5.97-38.66-12.14-57.45-12.14c-7.48,0-14.31,0.95-20.88,2.89l-5.35,1.59l-1.22-5.45c-1.09-4.85,1.38-9.94,7.56-15.57
		c11.29-10.31,27.04-15.98,44.33-15.98l0.47,0c14.08,0.09,29.31,3.95,45.26,11.48c6.01,2.84,12.14,6.26,16.35,12.04
		c5.26,7.23,5.63,16.65,0.9,22.91c-0.98,1.3-2.04,2.26-3.24,2.94C650.8,109.2,649.13,109.62,647.31,109.62z"/>
	<path class="st2" d="M592.52,64.21c0.15,0,0.29,0,0.44,0c14.93,0.09,29.56,4.61,43.06,10.98c5.4,2.55,10.84,5.56,14.36,10.39
		s4.56,11.93,0.96,16.69c-0.46,0.61-1,1.18-1.66,1.56c-0.73,0.41-1.53,0.57-2.36,0.57c-1.18,0-2.41-0.31-3.55-0.64
		c-24.84-7.15-50.49-17.47-75.68-17.47c-7.51,0-14.97,0.92-22.36,3.11c-0.75-3.36,2.43-7.33,5.98-10.57
		C562.63,68.86,577.73,64.21,592.52,64.21 M592.52,53.77c-18.59,0-35.59,6.16-47.84,17.35c-7.57,6.91-10.64,13.83-9.13,20.57
		l2.45,10.89l10.71-3.17c6.07-1.8,12.42-2.68,19.39-2.68c17.99,0,37.25,6.05,55.88,11.9c5.54,1.74,11.27,3.54,16.9,5.16
		c1.8,0.52,3.98,1.05,6.44,1.05c2.74,0,5.27-0.65,7.53-1.94c1.82-1.04,3.4-2.45,4.81-4.32c6.11-8.08,5.77-20.06-0.84-29.13
		c-4.91-6.75-12.03-10.7-18.34-13.69c-16.64-7.86-32.6-11.89-47.45-11.98L592.52,53.77L592.52,53.77z"/>
</g>
<g>
	<path class="st7" d="M286.49,93.87c-2.5,0-5.06-0.93-7.02-2.54c-3.37-2.77-4.89-6.64-6.12-9.76c-0.2-0.51-0.4-1.02-0.61-1.51
		c-6.39-15.43-22.01-25.3-37.11-34.84c-2.6-1.64-5.28-3.33-7.87-5.03c-4.21-2.75-9.3-8.06-9.82-13.95c-0.28-3.21,0.85-6.2,3.2-8.41
		c2.17-2.04,4.82-2.8,7.12-3.27c3.04-0.62,6.21-0.94,9.4-0.94c21.63,0,40.78,13.53,45.53,32.17c1.11,4.35,1.43,8.68,1.74,12.86
		c0.2,2.66,0.38,5.17,0.76,7.63c0.57,3.75,2.25,10.48,7.02,13.33l2.18,1.3l0.32,2.51c0.48,3.78-0.85,6.2-2.05,7.57
		C291.52,92.85,289.15,93.87,286.49,93.87C286.49,93.87,286.49,93.87,286.49,93.87z"/>
	<g>
		<path class="st2" d="M237.66,18.84c17.88,0,36.07,10.99,40.47,28.24c1.66,6.51,1.38,13.35,2.39,19.99
			c1.01,6.64,3.74,13.58,9.5,17.03c0.41,3.23-1.42,4.57-3.54,4.57c-1.28,0-2.66-0.49-3.71-1.35c-2.76-2.27-3.85-5.93-5.22-9.24
			c-8.19-19.78-29.03-30.52-46.95-42.24c-4.97-3.25-10.23-10.13-5.9-14.2c1.23-1.16,2.94-1.62,4.59-1.96
			C232.05,19.11,234.85,18.84,237.66,18.84 M237.66,8.4c-3.55,0-7.06,0.35-10.45,1.04c-2.85,0.58-6.52,1.63-9.66,4.58
			c-3.54,3.33-5.25,7.83-4.82,12.67c0.68,7.75,6.73,14.31,12.16,17.86c2.63,1.72,5.33,3.43,7.94,5.08
			c15.08,9.52,29.32,18.52,35.08,32.42c0.19,0.47,0.38,0.95,0.57,1.43c1.37,3.48,3.25,8.24,7.66,11.87
			c2.88,2.37,6.65,3.73,10.34,3.73c4.13,0,7.99-1.7,10.59-4.65c2.7-3.07,3.88-7.22,3.3-11.68l-0.64-5.03l-4.35-2.6
			c-2.11-1.26-3.81-4.87-4.54-9.64c-0.34-2.25-0.52-4.67-0.71-7.22c-0.33-4.41-0.66-8.97-1.89-13.77
			C282.91,23.58,261.64,8.4,237.66,8.4L237.66,8.4z"/>
	</g>
</g>
<path class="st7" d="M216.19,219.16c2.43-9.1,4.77-19.16,0.61-27.61c-2.85-5.79-8.31-9.77-13.56-13.53
	c-8.27-5.9-16.53-11.81-24.8-17.71c-5.8-4.14-12.32-11.15-8.71-17.3c1.41-2.4,4.13-3.81,6.87-4.29c10.16-1.8,18.85,7.06,24.9,15.43
	c5.75,7.95,11.04,16.23,15.83,24.79c4.25,7.58,8.21,15.8,7.93,24.49C224.98,212.11,219.09,221.2,216.19,219.16z"/>
<g>
	<path class="st7" d="M516.99,217.85c10.84-15.84,29.5-25.89,48.69-26.21c0.29,0,0.58-0.01,0.87-0.01c6.61,0,11.8,1.37,15.87,4.2
		c6.23,4.32,8.99,12.35,6.41,18.68c-2.57,6.3-8.57,9.5-17.84,9.5c-3.35,0-6.71-0.4-9.56-0.79c-3.73-0.51-7.69-0.77-11.8-0.77
		c-11.93,0-22.06,2.13-27.04,3.4l-13.42,3.42L516.99,217.85z"/>
	<g>
		<path class="st2" d="M566.55,196.85c4.52,0,9.19,0.7,12.89,3.26c3.92,2.72,6.35,8.01,4.55,12.42c-2.02,4.95-7.32,6.25-13.01,6.25
			c-2.99,0-6.08-0.36-8.86-0.74c-4.16-0.57-8.37-0.81-12.5-0.81c-10.6,0-20.71,1.62-28.33,3.57c9.88-14.44,26.98-23.65,44.47-23.94
			C566.03,196.85,566.29,196.85,566.55,196.85 M566.55,186.41c-0.32,0-0.64,0-0.96,0.01c-20.86,0.35-41.13,11.27-52.91,28.49
			l-15.64,22.85l26.83-6.85c4.74-1.21,14.4-3.24,25.75-3.24c3.87,0,7.6,0.24,11.09,0.72c3.02,0.41,6.6,0.83,10.27,0.83
			c7.97,0,18.38-2.21,22.68-12.75c3.53-8.67,0.06-19.16-8.27-24.94C580.42,188.09,574.26,186.41,566.55,186.41L566.55,186.41z"/>
	</g>
</g>
</svg>
