<?xml version="1.0" encoding="utf-8"?>
<!-- Generator: Adobe Adobe Illustrator 24.2.0, SVG Export Plug-In . SVG Version: 6.00 Build 0)  -->
<svg version="1.1" id="Layer_1" xmlns="http://www.w3.org/2000/svg" xmlns:xlink="http://www.w3.org/1999/xlink" x="0px" y="0px"
	 width="565.21px" height="539.78px" viewBox="0 0 565.21 539.78" style="enable-background:new 0 0 565.21 539.78;"
	 xml:space="preserve">
<style type="text/css">
	.st0{fill:#E30614;}
	.st1{fill:#FDE000;}
	.st2{fill:#EDE9E0;}
	.st3{fill:#053E61;}
	.st4{fill:#8F141C;}
	.st5{fill:#FC6900;}
	.st6{fill:#CCE70B;}
	.st7{fill:#41A0CB;}
	.st8{fill-rule:evenodd;clip-rule:evenodd;fill:#46A2DA;}
	.st9{fill-rule:evenodd;clip-rule:evenodd;fill:#E30614;}
	.st10{fill-rule:evenodd;clip-rule:evenodd;fill:#13110E;}
	.st11{fill-rule:evenodd;clip-rule:evenodd;fill:#FDE100;}
	.st12{fill-rule:evenodd;clip-rule:evenodd;fill:#17120F;}
	.st13{fill:#FFFFFF;}
	.st14{fill:#053E61;stroke:#FFFFFF;stroke-width:16;stroke-linecap:round;stroke-linejoin:round;stroke-miterlimit:10;}
	.st15{fill-rule:evenodd;clip-rule:evenodd;fill:#FDE000;}
	.st16{fill-rule:evenodd;clip-rule:evenodd;fill:#41A0CB;}
	.st17{fill-rule:evenodd;clip-rule:evenodd;fill:#EDE9E0;stroke:#053E61;stroke-width:21.3818;stroke-miterlimit:10;}
	.st18{fill:#053E61;stroke:#EDE9E0;stroke-width:20.8752;stroke-linecap:round;stroke-linejoin:round;stroke-miterlimit:10;}
	.st19{fill:#41A0CB;stroke:#EDE9E0;stroke-width:10.4376;stroke-miterlimit:10;}
</style>
<circle class="st17" cx="282.4" cy="269.89" r="259.2"/>
<g>
	<path class="st3" d="M104.06,225.32c0.94-0.04,1.81-0.08,2.63-0.12c0.81-0.04,1.61-0.07,2.37-0.09c0.76-0.02,1.54-0.04,2.34-0.05
		c0.79-0.01,1.63-0.02,2.51-0.02c4.5,0,8.52,0.49,12.03,1.45c3.52,0.97,6.48,2.37,8.9,4.2c2.42,1.83,4.26,4.07,5.52,6.7
		s1.9,5.62,1.9,8.96c0,3.57-0.66,6.75-1.97,9.56s-3.2,5.18-5.64,7.12c-2.45,1.95-5.42,3.43-8.93,4.45
		c-3.51,1.02-7.46,1.53-11.87,1.53c-0.9,0-1.73,0-2.51-0.01c-0.77-0.01-1.55-0.03-2.32-0.05c-0.78-0.02-1.56-0.05-2.36-0.08
		c-0.79-0.03-1.66-0.07-2.6-0.11V225.32z M114.89,259.72c0.24,0,0.48,0,0.72,0s0.49,0,0.75,0c2.27,0,4.31-0.29,6.14-0.89
		c1.83-0.59,3.38-1.44,4.66-2.54c1.28-1.1,2.26-2.46,2.94-4.07c0.68-1.61,1.03-3.45,1.03-5.5c0-1.96-0.33-3.71-0.98-5.24
		c-0.65-1.54-1.61-2.83-2.87-3.88c-1.26-1.05-2.81-1.85-4.66-2.4c-1.85-0.55-3.96-0.83-6.33-0.83c-0.24,0-0.48,0-0.72,0
		c-0.23,0-0.46,0-0.69,0V259.72z"/>
	<path class="st3" d="M175.34,234.25H159.5v8.16h14.8v8.93h-14.8v8.5h15.84v8.93h-26.66v-43.45h26.66V234.25z"/>
	<path class="st3" d="M183.51,257.3c1.61,1.04,3.29,1.84,5.04,2.4s3.48,0.84,5.17,0.84c0.88,0,1.65-0.08,2.32-0.24
		c0.67-0.16,1.24-0.39,1.71-0.7c0.47-0.3,0.81-0.68,1.04-1.12c0.22-0.44,0.34-0.95,0.34-1.52c0-0.79-0.27-1.49-0.79-2.09
		c-0.53-0.6-1.22-1.16-2.08-1.67c-0.86-0.51-1.84-1.01-2.95-1.5c-1.11-0.49-2.24-1.01-3.39-1.57c-1.15-0.56-2.28-1.2-3.39-1.93
		s-2.1-1.57-2.97-2.54c-0.87-0.97-1.56-2.1-2.09-3.41c-0.53-1.3-0.79-2.82-0.79-4.56c0-2.02,0.37-3.83,1.1-5.44
		c0.73-1.61,1.77-2.99,3.12-4.13s2.97-2.01,4.86-2.61c1.89-0.6,4.03-0.9,6.39-0.9c2.3,0,4.39,0.26,6.27,0.78
		c1.88,0.52,3.66,1.28,5.35,2.28l-2.42,8.5c-1.45-0.83-2.92-1.49-4.43-1.97c-1.51-0.48-3.04-0.72-4.59-0.72
		c-0.71,0-1.37,0.08-1.97,0.23c-0.6,0.15-1.11,0.37-1.53,0.66s-0.74,0.64-0.98,1.05c-0.23,0.42-0.35,0.9-0.35,1.45
		c0,0.75,0.27,1.42,0.79,1.99c0.53,0.57,1.23,1.1,2.1,1.59c0.87,0.49,1.85,0.97,2.95,1.44c1.1,0.47,2.23,0.99,3.38,1.56
		c1.15,0.57,2.28,1.21,3.39,1.93c1.11,0.71,2.1,1.57,2.97,2.57s1.56,2.16,2.09,3.49c0.53,1.33,0.8,2.88,0.8,4.65
		c0,2.04-0.4,3.88-1.19,5.54c-0.79,1.65-1.9,3.06-3.32,4.22c-1.42,1.16-3.11,2.06-5.08,2.69s-4.12,0.95-6.47,0.95
		c-2.59,0-4.91-0.3-6.97-0.91c-2.06-0.61-3.96-1.51-5.69-2.7L183.51,257.3z"/>
	<path class="st3" d="M238.42,225.32c2.78,7.16,5.25,14.4,7.42,21.73c2.17,7.33,3.92,14.57,5.25,21.73h-11.13
		c-0.22-1.26-0.46-2.55-0.71-3.85c-0.24-1.3-0.51-2.6-0.79-3.88h-13.91c-0.29,1.33-0.55,2.63-0.8,3.91
		c-0.25,1.28-0.48,2.56-0.71,3.82h-10.82c1.32-7.16,3.08-14.4,5.27-21.73c2.19-7.33,4.66-14.57,7.41-21.73H238.42z M236.5,252.44
		c-0.71-2.75-1.49-5.48-2.33-8.18c-0.84-2.7-1.73-5.37-2.67-8c-0.94,2.63-1.83,5.3-2.68,8s-1.63,5.43-2.34,8.18H236.5z"/>
	<path class="st3" d="M256.01,225.32c1.75-0.1,3.47-0.18,5.17-0.24c1.69-0.06,3.32-0.09,4.89-0.09c3.57,0,6.73,0.33,9.49,0.99
		c2.76,0.66,5.09,1.62,6.99,2.89c1.9,1.26,3.34,2.8,4.34,4.6c1,1.8,1.5,3.84,1.5,6.1c0,1.33-0.16,2.56-0.49,3.72
		c-0.32,1.15-0.8,2.22-1.43,3.2c-0.63,0.98-1.4,1.88-2.33,2.71c-0.92,0.83-1.97,1.55-3.15,2.19c1.44,2.57,2.87,5.31,4.29,8.23
		c1.42,2.92,2.81,5.97,4.18,9.17H277.6c-0.98-2.3-2.06-4.65-3.24-7.05c-1.18-2.4-2.44-4.78-3.76-7.14c-0.6,0.08-1.2,0.14-1.82,0.17
		c-0.62,0.03-1.27,0.06-1.94,0.08v13.94h-10.82V225.32z M266.84,246.35c0.22,0,0.45,0,0.66,0s0.44,0,0.69,0
		c1.45,0,2.74-0.14,3.88-0.43c1.13-0.29,2.08-0.71,2.84-1.26c0.76-0.55,1.33-1.22,1.73-1.99s0.6-1.66,0.6-2.64
		c0-0.94-0.2-1.79-0.6-2.54s-0.98-1.4-1.75-1.93c-0.77-0.53-1.72-0.94-2.85-1.23c-1.13-0.29-2.44-0.43-3.91-0.43
		c-0.23,0-0.44,0-0.64,0s-0.42,0-0.64,0V246.35z"/>
	<path class="st3" d="M294.79,225.32c1.75-0.1,3.48-0.18,5.17-0.24c1.69-0.06,3.32-0.09,4.89-0.09c3.57,0,6.73,0.33,9.49,0.99
		c2.76,0.66,5.09,1.62,6.99,2.89c1.9,1.26,3.34,2.8,4.34,4.6c1,1.8,1.5,3.84,1.5,6.1c0,1.33-0.16,2.56-0.49,3.72
		c-0.33,1.15-0.8,2.22-1.43,3.2s-1.41,1.88-2.33,2.71c-0.92,0.83-1.97,1.55-3.15,2.19c1.44,2.57,2.87,5.31,4.29,8.23
		s2.81,5.97,4.17,9.17h-11.86c-0.98-2.3-2.06-4.65-3.24-7.05s-2.44-4.78-3.76-7.14c-0.6,0.08-1.2,0.14-1.82,0.17
		s-1.26,0.06-1.94,0.08v13.94h-10.83V225.32z M305.61,246.35c0.22,0,0.44,0,0.66,0s0.45,0,0.69,0c1.45,0,2.75-0.14,3.88-0.43
		c1.13-0.29,2.08-0.71,2.84-1.26c0.76-0.55,1.33-1.22,1.73-1.99c0.4-0.78,0.6-1.66,0.6-2.64c0-0.94-0.2-1.79-0.6-2.54
		c-0.4-0.76-0.98-1.4-1.75-1.93c-0.77-0.53-1.72-0.94-2.85-1.23s-2.44-0.43-3.91-0.43c-0.22,0-0.44,0-0.64,0c-0.2,0-0.42,0-0.64,0
		V246.35z"/>
	<path class="st3" d="M354.45,224.61c1.89,0,3.76,0.21,5.58,0.63s3.54,1.04,5.15,1.88c1.61,0.84,3.09,1.87,4.45,3.1
		s2.53,2.67,3.52,4.31c0.99,1.64,1.75,3.48,2.29,5.5c0.54,2.03,0.81,4.26,0.81,6.68c0,2.51-0.28,4.81-0.83,6.91
		s-1.32,3.99-2.31,5.67c-0.99,1.68-2.18,3.16-3.56,4.43s-2.91,2.33-4.57,3.18c-1.66,0.85-3.44,1.48-5.32,1.91
		c-1.88,0.43-3.83,0.64-5.82,0.64c-1.9,0-3.76-0.21-5.58-0.64c-1.82-0.43-3.55-1.05-5.17-1.88c-1.62-0.83-3.11-1.86-4.46-3.09
		c-1.36-1.23-2.53-2.67-3.52-4.31c-0.99-1.64-1.76-3.48-2.31-5.5s-0.83-4.26-0.83-6.68c0-2.49,0.28-4.79,0.84-6.9
		c0.56-2.11,1.34-4.01,2.34-5.69c1-1.68,2.19-3.16,3.58-4.43c1.39-1.27,2.91-2.33,4.57-3.18s3.44-1.48,5.32-1.91
		C350.5,224.83,352.45,224.61,354.45,224.61z M354.02,233.91c-1.38,0-2.74,0.28-4.05,0.83c-1.31,0.55-2.48,1.37-3.5,2.46
		c-1.02,1.09-1.84,2.45-2.46,4.07c-0.62,1.62-0.93,3.5-0.93,5.64c0,2.24,0.31,4.19,0.93,5.86c0.62,1.66,1.45,3.04,2.48,4.13
		s2.22,1.91,3.56,2.45s2.75,0.81,4.22,0.81c1.38,0,2.73-0.27,4.04-0.81s2.47-1.36,3.5-2.45s1.85-2.45,2.46-4.07
		c0.61-1.62,0.92-3.51,0.92-5.67c0-2.24-0.3-4.19-0.92-5.86c-0.61-1.66-1.44-3.04-2.48-4.13c-1.04-1.09-2.23-1.91-3.56-2.45
		S355.48,233.91,354.02,233.91z"/>
	<path class="st3" d="M393.68,259.66h14.19v9.11h-25.01v-43.45h10.82V259.66z"/>
	<path class="st3" d="M423.98,259.66h14.19v9.11h-25.01v-43.45h10.83V259.66z"/>
	<path class="st3" d="M462.39,224.61c1.89,0,3.76,0.21,5.58,0.63s3.54,1.04,5.15,1.88c1.61,0.84,3.09,1.87,4.45,3.1
		s2.53,2.67,3.52,4.31c0.99,1.64,1.75,3.48,2.29,5.5c0.54,2.03,0.81,4.26,0.81,6.68c0,2.51-0.28,4.81-0.83,6.91
		s-1.32,3.99-2.31,5.67c-0.99,1.68-2.18,3.16-3.56,4.43s-2.91,2.33-4.57,3.18c-1.66,0.85-3.44,1.48-5.32,1.91
		c-1.88,0.43-3.83,0.64-5.82,0.64c-1.9,0-3.76-0.21-5.58-0.64c-1.82-0.43-3.55-1.05-5.17-1.88c-1.62-0.83-3.11-1.86-4.46-3.09
		c-1.36-1.23-2.53-2.67-3.52-4.31c-0.99-1.64-1.76-3.48-2.31-5.5s-0.83-4.26-0.83-6.68c0-2.49,0.28-4.79,0.84-6.9
		c0.56-2.11,1.34-4.01,2.34-5.69c1-1.68,2.19-3.16,3.58-4.43c1.39-1.27,2.91-2.33,4.57-3.18s3.44-1.48,5.32-1.91
		C458.45,224.83,460.39,224.61,462.39,224.61z M461.96,233.91c-1.38,0-2.74,0.28-4.05,0.83c-1.31,0.55-2.48,1.37-3.5,2.46
		c-1.02,1.09-1.84,2.45-2.46,4.07c-0.62,1.62-0.93,3.5-0.93,5.64c0,2.24,0.31,4.19,0.93,5.86c0.62,1.66,1.45,3.04,2.48,4.13
		s2.22,1.91,3.56,2.45s2.75,0.81,4.22,0.81c1.38,0,2.73-0.27,4.04-0.81s2.47-1.36,3.5-2.45s1.85-2.45,2.46-4.07
		c0.61-1.62,0.92-3.51,0.92-5.67c0-2.24-0.3-4.19-0.92-5.86c-0.61-1.66-1.44-3.04-2.48-4.13c-1.04-1.09-2.23-1.91-3.56-2.45
		S463.43,233.91,461.96,233.91z"/>
</g>
<g>
	<path class="st3" d="M110.06,299.01c-1.22-1-2.56-1.76-4.02-2.29s-2.96-0.79-4.51-0.79c-1.51,0-2.91,0.28-4.21,0.84
		s-2.42,1.39-3.38,2.49c-0.96,1.1-1.72,2.47-2.28,4.11c-0.56,1.64-0.84,3.54-0.84,5.7c0,2.06,0.25,3.9,0.76,5.54s1.24,3.02,2.2,4.17
		c0.96,1.15,2.12,2.03,3.5,2.63c1.38,0.6,2.94,0.9,4.7,0.9c0.98,0,1.9-0.08,2.77-0.25c0.87-0.16,1.7-0.4,2.49-0.72
		c0.8-0.32,1.56-0.72,2.31-1.21c0.74-0.49,1.48-1.05,2.22-1.68l2.41,8.84c-1.94,1.39-4.04,2.46-6.3,3.21
		c-2.26,0.75-4.74,1.13-7.43,1.13c-3.12,0-5.95-0.51-8.5-1.54s-4.73-2.5-6.54-4.4s-3.22-4.22-4.21-6.96
		c-0.99-2.73-1.48-5.8-1.48-9.2c0-2.43,0.25-4.67,0.75-6.74c0.5-2.07,1.2-3.94,2.11-5.63c0.91-1.68,2-3.17,3.27-4.46
		c1.27-1.29,2.69-2.38,4.25-3.27c1.56-0.89,3.24-1.55,5.03-1.99c1.79-0.44,3.67-0.66,5.62-0.66c2.37,0,4.54,0.3,6.53,0.9
		s3.75,1.5,5.28,2.71L110.06,299.01z"/>
	<path class="st3" d="M138.81,286.78c1.89,0,3.76,0.21,5.58,0.63s3.54,1.04,5.15,1.88c1.61,0.84,3.09,1.87,4.45,3.1
		s2.53,2.67,3.52,4.31c0.99,1.64,1.75,3.48,2.29,5.5c0.54,2.03,0.81,4.26,0.81,6.68c0,2.51-0.28,4.81-0.83,6.91
		s-1.32,3.99-2.31,5.67c-0.99,1.68-2.18,3.16-3.56,4.43s-2.91,2.33-4.57,3.18c-1.66,0.85-3.44,1.48-5.32,1.91
		c-1.88,0.43-3.83,0.64-5.82,0.64c-1.9,0-3.76-0.21-5.58-0.64c-1.82-0.43-3.55-1.05-5.17-1.88c-1.62-0.83-3.11-1.86-4.46-3.09
		c-1.36-1.23-2.53-2.67-3.52-4.31c-0.99-1.64-1.76-3.48-2.31-5.5s-0.83-4.26-0.83-6.68c0-2.49,0.28-4.79,0.84-6.9
		c0.56-2.11,1.34-4.01,2.34-5.69c1-1.68,2.19-3.16,3.58-4.43c1.39-1.27,2.91-2.33,4.57-3.18c1.66-0.85,3.44-1.48,5.32-1.91
		C134.87,287,136.81,286.78,138.81,286.78z M138.38,296.08c-1.38,0-2.74,0.28-4.05,0.83c-1.31,0.55-2.48,1.37-3.5,2.46
		c-1.02,1.09-1.84,2.45-2.46,4.07c-0.62,1.62-0.93,3.5-0.93,5.64c0,2.24,0.31,4.19,0.93,5.86c0.62,1.66,1.45,3.04,2.48,4.13
		s2.22,1.91,3.56,2.45s2.75,0.81,4.22,0.81c1.38,0,2.73-0.27,4.04-0.81s2.47-1.36,3.5-2.45s1.85-2.45,2.46-4.07
		c0.61-1.62,0.92-3.51,0.92-5.67c0-2.24-0.3-4.19-0.92-5.86c-0.61-1.66-1.44-3.04-2.48-4.13c-1.04-1.09-2.23-1.91-3.56-2.45
		S139.85,296.08,138.38,296.08z"/>
	<path class="st3" d="M217.05,287.49c0.63,3.96,1.18,7.79,1.65,11.5c0.47,3.71,0.86,7.35,1.18,10.93c0.32,3.58,0.57,7.11,0.75,10.6
		s0.33,6.96,0.43,10.43h-10.89c-0.1-2.83-0.23-5.65-0.37-8.46c-0.14-2.8-0.31-5.58-0.49-8.33c-0.19-2.75-0.4-5.47-0.65-8.15
		s-0.53-5.32-0.86-7.9l-8.69,32.84h-11.56l-8.65-32.9c-0.34,2.57-0.64,5.2-0.88,7.89c-0.24,2.69-0.46,5.42-0.65,8.18
		c-0.19,2.76-0.35,5.55-0.47,8.36c-0.12,2.81-0.23,5.64-0.33,8.47h-10.61c0.1-3.47,0.25-6.94,0.44-10.43
		c0.19-3.49,0.44-7.02,0.75-10.6c0.3-3.58,0.69-7.22,1.16-10.93c0.47-3.71,1.03-7.54,1.68-11.5h15.34l8.26,31.13l8.26-31.13H217.05z
		"/>
	<path class="st3" d="M262.9,314.67c0,2.67-0.41,5.06-1.24,7.16c-0.82,2.1-2.01,3.88-3.56,5.34c-1.55,1.46-3.44,2.57-5.67,3.33
		s-4.77,1.15-7.6,1.15c-2.69,0-5.11-0.37-7.26-1.1c-2.15-0.73-3.97-1.81-5.46-3.23c-1.49-1.42-2.64-3.14-3.44-5.18
		c-0.8-2.04-1.21-4.37-1.21-7v-27.64h10.82v27.28c0,1.35,0.18,2.5,0.54,3.46s0.85,1.74,1.49,2.35c0.63,0.61,1.38,1.05,2.24,1.33
		s1.79,0.41,2.79,0.41c1,0,1.93-0.14,2.79-0.41s1.6-0.71,2.24-1.3c0.63-0.59,1.13-1.33,1.49-2.22s0.54-1.94,0.54-3.17v-27.74h10.52
		V314.67z"/>
	<path class="st3" d="M310.05,330.94h-13.24l-14.1-23.76c-0.57-1-1.09-1.98-1.54-2.94c-0.46-0.96-0.87-1.93-1.24-2.91
		c0.08,0.98,0.15,1.95,0.2,2.92c0.05,0.97,0.08,1.94,0.08,2.92v23.76h-9.97v-43.45h13.24l14.1,23.76c0.59,0.98,1.11,1.95,1.56,2.91
		c0.45,0.96,0.86,1.92,1.22,2.87c-0.08-0.96-0.15-1.93-0.2-2.9s-0.08-1.94-0.08-2.88v-23.76h9.97V330.94z"/>
	<path class="st3" d="M328.88,330.94h-10.82v-43.45h10.82V330.94z"/>
	<path class="st3" d="M367.6,296.6h-11.28v34.34h-10.82V296.6h-11.29v-9.11h33.39V296.6z"/>
	<path class="st3" d="M391.78,287.49c2.78,7.16,5.25,14.4,7.42,21.73c2.17,7.33,3.92,14.57,5.25,21.73h-11.13
		c-0.22-1.26-0.46-2.55-0.71-3.85c-0.24-1.3-0.51-2.6-0.79-3.88h-13.91c-0.29,1.33-0.55,2.63-0.8,3.91
		c-0.25,1.28-0.48,2.56-0.71,3.82h-10.82c1.32-7.16,3.08-14.4,5.27-21.73c2.19-7.33,4.66-14.57,7.41-21.73H391.78z M389.85,314.61
		c-0.71-2.75-1.49-5.48-2.33-8.18c-0.84-2.7-1.73-5.37-2.67-8c-0.94,2.63-1.83,5.3-2.68,8s-1.63,5.43-2.34,8.18H389.85z"/>
	<path class="st3" d="M409.37,287.49c1.75-0.1,3.47-0.18,5.17-0.24c1.69-0.06,3.32-0.09,4.89-0.09c3.57,0,6.73,0.33,9.49,0.99
		c2.76,0.66,5.09,1.62,6.99,2.89c1.9,1.26,3.34,2.8,4.34,4.6c1,1.8,1.5,3.84,1.5,6.1c0,1.33-0.16,2.56-0.49,3.72
		c-0.32,1.15-0.8,2.22-1.43,3.2c-0.63,0.98-1.4,1.88-2.33,2.71c-0.92,0.83-1.97,1.55-3.15,2.19c1.44,2.57,2.87,5.31,4.29,8.23
		c1.42,2.92,2.81,5.97,4.18,9.17h-11.87c-0.98-2.3-2.06-4.65-3.24-7.05c-1.18-2.4-2.44-4.78-3.76-7.14c-0.6,0.08-1.2,0.14-1.82,0.17
		c-0.62,0.03-1.27,0.06-1.94,0.08v13.94h-10.82V287.49z M420.19,308.52c0.22,0,0.45,0,0.66,0s0.44,0,0.69,0
		c1.45,0,2.74-0.14,3.88-0.43c1.13-0.29,2.08-0.71,2.84-1.26c0.76-0.55,1.33-1.22,1.73-1.99s0.6-1.66,0.6-2.64
		c0-0.94-0.2-1.79-0.6-2.54s-0.98-1.4-1.75-1.93c-0.77-0.53-1.72-0.94-2.85-1.23c-1.13-0.29-2.44-0.43-3.91-0.43
		c-0.23,0-0.44,0-0.64,0s-0.42,0-0.64,0V308.52z"/>
	<path class="st3" d="M458.97,330.94h-10.82v-43.45h10.82V330.94z"/>
	<path class="st3" d="M487.99,286.78c1.9,0,3.76,0.21,5.58,0.63s3.54,1.04,5.15,1.88c1.61,0.84,3.09,1.87,4.45,3.1
		c1.36,1.23,2.53,2.67,3.52,4.31c0.99,1.64,1.75,3.48,2.29,5.5c0.54,2.03,0.81,4.26,0.81,6.68c0,2.51-0.28,4.81-0.83,6.91
		c-0.55,2.1-1.32,3.99-2.31,5.67c-0.99,1.68-2.18,3.16-3.56,4.43c-1.38,1.27-2.91,2.33-4.57,3.18c-1.66,0.85-3.44,1.48-5.32,1.91
		c-1.89,0.43-3.83,0.64-5.83,0.64c-1.9,0-3.76-0.21-5.58-0.64c-1.82-0.43-3.55-1.05-5.17-1.88c-1.62-0.83-3.11-1.86-4.46-3.09
		s-2.53-2.67-3.52-4.31c-0.99-1.64-1.76-3.48-2.31-5.5c-0.55-2.03-0.82-4.26-0.82-6.68c0-2.49,0.28-4.79,0.84-6.9
		c0.56-2.11,1.34-4.01,2.34-5.69c1-1.68,2.19-3.16,3.58-4.43c1.38-1.27,2.91-2.33,4.57-3.18c1.66-0.85,3.44-1.48,5.32-1.91
		C484.05,287,485.99,286.78,487.99,286.78z M487.56,296.08c-1.39,0-2.74,0.28-4.05,0.83c-1.32,0.55-2.48,1.37-3.5,2.46
		c-1.02,1.09-1.84,2.45-2.46,4.07c-0.62,1.62-0.93,3.5-0.93,5.64c0,2.24,0.31,4.19,0.93,5.86c0.62,1.66,1.45,3.04,2.48,4.13
		s2.22,1.91,3.56,2.45s2.75,0.81,4.22,0.81c1.39,0,2.73-0.27,4.04-0.81s2.47-1.36,3.5-2.45c1.03-1.09,1.85-2.45,2.46-4.07
		c0.61-1.62,0.92-3.51,0.92-5.67c0-2.24-0.31-4.19-0.92-5.86c-0.61-1.66-1.44-3.04-2.48-4.13c-1.04-1.09-2.23-1.91-3.56-2.45
		C490.43,296.35,489.03,296.08,487.56,296.08z"/>
</g>
<path class="st0" d="M330.5,50.18c-13.27-4.21-28.32,2.47-36.81,13.5s-11.35,25.5-11.28,39.42c0.05,9.2,1.61,19.15,8.17,25.61
	c7.25,7.15,18.46,8.03,28.64,8.03c11.62-0.01,23.47-0.68,34.32-4.84c10.85-4.16,20.69-12.31,24.36-23.34
	c3.25-9.75,1.4-20.38-0.48-30.49c-0.81-4.36-1.72-8.94-4.6-12.31c-2.11-2.48-5.07-4.04-7.95-5.55
	C352.48,53.72,338.66,47.04,330.5,50.18z"/>
<g>
	<path class="st0" d="M108.58,384.59c-38.33,0-69.54-13.15-85.62-36.09c-11.4-16.27-16.71-39.54-14.94-65.52
		c1.62-23.73,8.98-47.59,20.19-65.44c6.43-10.24,14.5-19.25,22.3-27.96c3.82-4.27,7.78-8.69,11.43-13.14
		c2.09-2.55,4.17-5.26,4.61-7.94c0.4-2.43-0.8-4.45-1.88-5.72c-2.18-2.56-5.68-4.21-8.93-4.21c-0.35,0-0.69,0.02-1.02,0.06
		c-6.3,0.71-12.4,5.83-16.31,13.71c-0.28,0.56-0.55,1.14-0.83,1.72c-2.07,4.33-4.64,9.72-10.26,12.21
		c-1.71,0.76-3.51,1.14-5.36,1.14c-8.67,0-16.64-8.55-16.73-17.94c-0.08-8.97,5.16-16.5,10.83-23.3
		c6.86-8.21,14.57-16.53,24.49-21.7c6.07-3.17,12.66-4.84,19.08-4.84c5.7,0,10.92,1.31,15.5,3.9c1.35,0.76,2.61,1.6,3.82,2.42
		c2.5,1.67,4.86,3.26,6.82,3.26c0.08,0,0.16,0,0.24-0.01c1.17-0.07,1.98-0.55,2.71-1.61c2.08-3.02,2.44-9.41,0.82-14.54
		c-0.78-2.49-1.69-4.97-2.66-7.6c-3.27-8.9-6.64-18.11-5.09-28.12c1.66-10.7,12.19-20.08,22.53-20.08c4.38,0,8.28,1.66,11.27,4.8
		c7.4,7.75,4.85,18.57,2.79,27.27c-0.24,1.03-0.48,2.05-0.7,3.05c-1.77,8.01-1.67,16.46,0.26,24.43c0.6,2.45,1.14,3.25,1.49,3.49
		c0.15,0.1,0.22,0.11,0.32,0.11c1.22,0,4.02-1.99,5.82-5.23c2.15-3.86,3.81-8.05,5.57-12.49c3.04-7.67,6.19-15.6,12.12-22.12
		c5.08-5.59,13.21-9.06,21.22-9.06c9.27,0,16.33,4.56,18.88,12.19c3.34,10.02-2.44,21.25-15.48,30.06l-1.81,1.21
		c-7.08,4.74-14.39,9.63-15.43,16.45c-1.18,7.73,6.84,15.06,14.94,17.43c3.13,0.91,6.41,1.38,9.75,1.38c4.86,0,9.72-1.01,14.08-2.91
		c3.88-1.7,7.49-4.1,11.33-6.65c4.04-2.69,8.22-5.47,12.95-7.54c4.18-1.83,8.76-2.79,13.25-2.79c8.24,0,14.88,3.21,18.71,9.05
		c4.89,7.46,3.89,18.17-2.43,26.05c-5.81,7.23-14.42,10.75-20.39,12.76c-17.65,5.96-36.31,6.79-54.36,7.59
		c-15.8,0.7-32.14,1.43-47.21,5.69C96,198.6,73.43,216.59,60.85,239.6c-15.38,28.13-18.49,56.51-8.31,75.9
		c15.34,29.21,29.91,30.62,48.36,32.4c6.88,0.66,14,1.35,21.62,3.5c18.27,5.14,27.31,14.82,24.2,25.9l-0.85,3.02l-3.07,0.66
		C131.72,383.37,120.2,384.59,108.58,384.59C108.58,384.59,108.58,384.59,108.58,384.59z"/>
	<path class="st2" d="M104.32,62.46c2.75,0,5.38,0.96,7.5,3.18c6.17,6.46,2.69,16.87,0.77,25.59c-1.94,8.8-1.84,18.03,0.29,26.79
		c0.6,2.49,1.5,5.12,3.62,6.57c1.04,0.71,2.14,1.02,3.26,1.02c4,0,8.2-3.98,10.38-7.91c6.13-11.03,8.5-24.29,16.99-33.63
		c4.25-4.68,11.09-7.35,17.36-7.35c6.25,0,11.93,2.66,13.93,8.63c3.14,9.39-5.24,18.54-13.45,24.09
		c-8.21,5.55-17.99,11.41-19.48,21.2c-1.64,10.72,8.23,20.19,18.64,23.22c3.64,1.06,7.42,1.59,11.21,1.59
		c5.54,0,11.09-1.13,16.17-3.35c8.6-3.76,15.67-10.43,24.27-14.19c3.42-1.5,7.35-2.36,11.16-2.36c5.76,0,11.25,1.97,14.34,6.69
		c3.92,5.97,2.33,14.35-2.14,19.92c-4.47,5.57-11.22,8.8-17.99,11.09c-32.37,10.92-68.45,3.9-101.33,13.2
		c-26.76,7.57-50.19,26.26-63.53,50.66c-13.34,24.4-21.28,56.2-8.35,80.82c22.53,42.92,45.7,30.76,73.18,38.5
		c10.18,2.87,23.45,9.28,20.59,19.46c-10.42,2.25-21.71,3.5-33.12,3.5c-31.72,0-64.34-9.61-81.35-33.86
		c-23.12-32.98-16.02-91.08,5.4-125.19c9.32-14.84,22.22-27.02,33.34-40.56c2.54-3.1,5.08-6.46,5.72-10.42
		c1.38-8.5-7.36-15.99-15.97-15.99c-0.54,0-1.07,0.03-1.6,0.09c-9.09,1.02-16.34,8.39-20.4,16.58c-2.17,4.37-4.07,9.5-8.53,11.48
		c-1.07,0.47-2.16,0.69-3.24,0.69c-5.88,0-11.45-6.41-11.51-12.77c-0.07-7.53,4.79-14.12,9.62-19.91
		c6.6-7.9,13.77-15.66,22.89-20.42c5.1-2.66,10.94-4.25,16.67-4.25c4.53,0,8.98,0.99,12.94,3.22c4.32,2.44,8.33,6.35,13.21,6.35
		c0.18,0,0.37-0.01,0.55-0.02c9.38-0.57,11.01-13.97,8.19-22.93c-3.46-11-9.34-21.97-7.57-33.36
		C88.24,69.76,96.74,62.46,104.32,62.46 M104.32,52.02l0,10.44L104.32,52.02c-12.95,0-25.63,11.21-27.69,24.49
		c-1.76,11.35,2.01,21.64,5.35,30.72c0.94,2.57,1.83,4.99,2.58,7.37c1.08,3.42,0.87,7.04,0.33,8.93c-0.92-0.51-2.14-1.32-3.04-1.93
		c-1.24-0.83-2.64-1.77-4.16-2.63c-5.38-3.03-11.45-4.57-18.07-4.57c-7.25,0-14.69,1.88-21.5,5.43
		c-10.73,5.6-18.88,14.36-26.08,22.99C5.73,150.39-0.1,158.86,0,169.52c0.12,12.31,10.37,23.11,21.95,23.11
		c2.58,0,5.1-0.53,7.47-1.59c7.39-3.27,10.55-9.9,12.86-14.73c0.27-0.56,0.53-1.11,0.8-1.65c2.41-4.85,6.88-10.25,12.21-10.84
		c0.14-0.02,0.29-0.02,0.44-0.02c1.73,0,3.77,0.98,4.96,2.38c0.39,0.45,0.77,1.08,0.71,1.5c-0.25,1.52-2.44,4.18-3.49,5.47
		c-3.58,4.37-7.33,8.54-11.29,12.97c-7.94,8.87-16.16,18.05-22.83,28.67C0.85,251.3-7.63,313.97,18.69,351.5
		c17.07,24.35,49.83,38.31,89.89,38.31c11.99,0,23.88-1.26,35.33-3.73l6.14-1.33l1.7-6.05c2.44-8.7-0.88-17.29-9.12-23.59
		c-5.96-4.55-13.45-7.27-18.69-8.74c-8.07-2.27-15.76-3.01-22.53-3.67c-8.75-0.84-16.31-1.57-23.17-5.21
		c-7.79-4.13-14.48-11.89-21.07-24.42c-9.37-17.84-6.28-44.37,8.26-70.97c11.92-21.8,33.31-38.86,57.21-45.62
		c14.49-4.1,29.81-4.78,46.02-5.5c18.41-0.82,37.44-1.66,55.8-7.86c6.59-2.23,16.13-6.14,22.79-14.44
		c7.72-9.62,8.84-22.85,2.73-32.18c-4.75-7.25-13.16-11.41-23.07-11.41c-5.2,0-10.5,1.12-15.34,3.23
		c-5.14,2.25-9.52,5.16-13.75,7.98c-3.63,2.42-7.07,4.7-10.53,6.22c-3.7,1.62-7.84,2.47-11.99,2.47c-2.84,0-5.63-0.39-8.28-1.17
		c-5.88-1.72-11.94-7.06-11.25-11.63c0.69-4.54,7.04-8.79,13.18-12.9c0.61-0.41,1.23-0.82,1.83-1.23
		c15.1-10.2,21.64-23.67,17.51-36.04c-3.25-9.72-12.38-15.76-23.83-15.76c-9.44,0-19.05,4.13-25.09,10.77
		c-6.56,7.22-10.04,15.98-13.1,23.7c-1.38,3.48-2.7,6.8-4.21,9.83c-0.77-5.68-0.53-11.51,0.7-17.11c0.21-0.97,0.45-1.97,0.69-2.98
		c2.09-8.87,5.25-22.27-4.1-32.07C115.42,54.3,110.07,52.02,104.32,52.02L104.32,52.02z"/>
</g>
<g>
	<path class="st7" d="M387.46,469.08c-8.3,0-13.63-5.98-13.98-11.76c-0.18-2.95,0.79-6.02,2.88-9.11c3.79-5.63,9.17-9.17,14.36-12.6
		c1.86-1.23,3.62-2.39,5.28-3.63c2.41-1.79,4.89-4.25,6.53-6.92c-15.35,7.25-31.27,14.07-48.41,17.28
		c-6.33,1.18-12.68,1.79-18.86,1.79c-16.39,0-31.19-4.24-42.8-12.25c-19.76-13.64-30.18-38.67-25.95-62.3
		c1.7-9.5,8.28-19.12,17.55-19.12c0.98,0,1.97,0.11,2.95,0.33c9.46,2.1,13.05,13.14,11.62,22.45c-0.3,1.93-0.71,3.82-1.12,5.65
		c-0.96,4.34-1.87,8.45-0.81,11.81c1.12,3.59,4.68,6.58,7.26,8.52c10.84,8.16,24.41,12.47,39.25,12.47
		c23.49,0,45.51-10.95,57.45-28.58c2.79-4.12,4.68-9.4,2.6-11.89c-0.39-0.47-1.58-1.88-6.32-1.88c-1.74,0-3.53,0.19-4.89,0.35
		c-20.06,2.39-40.53,5.94-51.07,20.48l-0.45,0.63c-1.06,1.49-2.37,3.34-4.42,4.76c-1.93,1.33-4.22,2.03-6.63,2.03
		c-5.5,0-10.92-3.6-13.17-8.75c-2.33-5.33-1.85-11.73,1.39-18.53c6.78-14.25,21.62-24.75,44.11-31.21c13.17-3.79,26.06-5.7,38.3-5.7
		c17.3,0,32.64,3.84,45.61,11.4c2.09,1.22,4.11,2.53,6.07,3.8c4.7,3.05,9.14,5.93,13.96,7.24c2.01,0.54,4.14,0.82,6.34,0.82
		c6.64,0,14.12-2.55,21.07-7.19c30.06-20.08,35.82-62.69,31.17-95.88c-1.79-12.77-8.38-27.92-14.76-42.57
		c-11.9-27.33-24.2-55.58-6.08-71.83l2.35-2.11l2.84,1.05c0.35,0.08,1.26,0.2,1.93,0.29c2.26,0.3,5.35,0.71,8.16,1.75
		c13.84,5.14,27.06,21.49,36.26,44.86c14.57,36.99,20.4,95.92-6.9,150.35c-12.03,23.98-31.58,44.32-55.07,57.28
		c-1.12,0.62-2.25,1.22-3.39,1.83c-6.12,3.27-11.9,6.36-15.45,11.22c-2.07,2.84-2.96,6.97-2.21,10.29c0.46,2.05,1.45,3.51,2.95,4.32
		c0.9,0.49,1.86,0.73,2.95,0.73c3.51,0,8.06-2.54,11.61-6.46c1.39-1.54,2.7-3.2,4.1-4.96c3.87-4.89,7.87-9.94,13.98-13.02
		c2.5-1.26,5.43-1.92,8.46-1.92c5.23,0,10.25,1.97,13.43,5.27c2.54,2.64,3.81,5.93,3.67,9.51c-0.21,5.56-3.69,9.76-7.07,13.12
		c-9.4,9.37-20.19,17.11-32.07,23.01c-9.14,4.54-17.6,6.84-25.14,6.84c-4.53,0-8.79-0.83-12.67-2.46
		c-7.55-3.18-13.42-10.71-14.94-19.16c-0.04-0.21-0.08-0.43-0.11-0.64c-9.35,7.25-16.93,13.81-23.86,19.8
		c-4.77,4.12-9.28,8.02-13.94,11.8c-3.9,3.16-8.55,6.58-14.33,7.21C388.49,469.05,387.97,469.08,387.46,469.08z"/>
	<path class="st2" d="M506.96,143.06c1.46,0.54,6.29,0.63,9.97,1.99c34.33,12.75,66.58,108.09,26.51,187.98
		c-11.59,23.1-30.3,42.56-52.93,55.05c-7.41,4.09-15.54,7.71-20.53,14.55c-4.99,6.84-4.98,18.23,2.45,22.28
		c1.74,0.95,3.58,1.36,5.44,1.36c5.62,0,11.49-3.77,15.48-8.18c5.31-5.88,9.47-13.26,16.55-16.82c1.85-0.93,3.98-1.37,6.11-1.37
		c6.04,0,12.11,3.52,11.89,9.37c-0.14,3.79-2.85,6.95-5.54,9.62c-8.96,8.93-19.38,16.4-30.71,22.03c-7.07,3.51-15.06,6.3-22.82,6.3
		c-3.64,0-7.23-0.61-10.64-2.05c-10.7-4.51-16.53-20.25-8.09-28.21c-22.87,16.39-35.9,29.28-50.07,40.76
		c-3.45,2.79-7.21,5.6-11.61,6.08c-0.32,0.04-0.65,0.05-0.98,0.05c-4.15,0-8.52-2.76-8.77-6.85c-0.13-2.1,0.82-4.13,1.99-5.88
		c4.45-6.6,12.05-10.2,18.44-14.96s12.14-12.38,10.1-20.08c-18.05,8.68-36.37,17.45-56.06,21.13c-5.86,1.1-11.89,1.7-17.9,1.7
		c-14.18,0-28.26-3.33-39.84-11.32c-17.93-12.37-27.62-35.65-23.78-57.08c1.23-6.88,5.91-14.82,12.41-14.82
		c0.59,0,1.2,0.07,1.82,0.2c6.55,1.46,8.61,9.94,7.6,16.57s-3.76,13.42-1.75,19.81c1.46,4.65,5.21,8.2,9.1,11.13
		c12.18,9.17,27.23,13.52,42.39,13.52c23.99,0,48.24-10.9,61.77-30.87c3.68-5.44,6.49-13.13,2.28-18.17
		c-2.47-2.95-6.33-3.76-10.32-3.76c-1.85,0-3.73,0.17-5.51,0.39c-20.19,2.4-42.75,6.14-54.68,22.6c-1.08,1.49-2.09,3.1-3.61,4.15
		c-1.11,0.77-2.38,1.11-3.67,1.11c-3.39,0-6.96-2.36-8.39-5.62c-1.96-4.49-0.79-9.77,1.32-14.2c7.35-15.45,24.39-23.71,40.84-28.44
		c11.88-3.41,24.46-5.5,36.86-5.5c15.12,0,29.97,3.1,42.98,10.69c7,4.09,13.47,9.45,21.29,11.57c2.53,0.69,5.12,1,7.71,1
		c8.4,0,16.87-3.33,23.96-8.07c31.11-20.77,38.63-63.89,33.44-100.94C524.3,215.82,482.89,164.66,506.96,143.06 M504.68,131.08
		l-4.69,4.21c-9.73,8.73-12.97,21.52-9.63,38.02c2.54,12.53,8.57,26.38,14.41,39.78c6.24,14.33,12.69,29.15,14.38,41.21
		c4.42,31.62-0.85,72.08-28.9,90.81c-6.09,4.07-12.55,6.31-18.17,6.31c-1.74,0-3.41-0.22-4.97-0.64c-4.04-1.1-8.14-3.76-12.49-6.58
		c-2.01-1.3-4.08-2.65-6.28-3.93c-13.78-8.04-30.01-12.11-48.24-12.11c-12.73,0-26.1,1.99-39.74,5.91
		c-23.98,6.89-39.92,18.32-47.38,33.98c-3.85,8.09-4.37,16.2-1.46,22.86c3.06,6.99,10.44,11.88,17.95,11.88
		c3.47,0,6.79-1.02,9.59-2.95c2.82-1.94,4.5-4.31,5.73-6.04c0.14-0.19,0.27-0.39,0.41-0.58c9.3-12.84,28.55-16.11,47.46-18.36
		c1.22-0.15,2.81-0.31,4.28-0.31c0.88,0,1.5,0.06,1.93,0.13c-0.2,1.11-0.9,3.1-2.53,5.5c-10.99,16.22-31.34,26.29-53.13,26.29
		c-13.5,0-26.33-4.06-36.11-11.42c-3.09-2.33-4.92-4.32-5.41-5.91c-0.64-2.04,0.12-5.48,0.93-9.13c0.42-1.91,0.86-3.88,1.18-5.98
		c0.82-5.34,0.27-10.86-1.54-15.56c-2.58-6.7-7.73-11.36-14.11-12.78c-1.35-0.3-2.73-0.45-4.09-0.45c-6.3,0-12.17,3.2-16.53,9
		c-3.03,4.03-5.21,9.15-6.16,14.41c-2.24,12.5-0.73,25.57,4.36,37.8c5.09,12.23,13.31,22.51,23.76,29.72
		c12.49,8.62,28.31,13.17,45.77,13.17c6.51,0,13.18-0.63,19.82-1.87c6.55-1.23,12.89-2.95,19.08-5c-0.74,0.89-1.46,1.83-2.13,2.83
		c-2.75,4.07-4.01,8.23-3.76,12.35c0.57,9.34,9,16.66,19.19,16.66c0.71,0,1.42-0.04,2.11-0.11c7.19-0.78,12.57-4.72,17.05-8.34
		c4.73-3.83,9.27-7.76,14.08-11.91c5.33-4.61,11.06-9.56,17.69-14.91c3.19,7.04,8.9,12.88,15.78,15.78
		c4.52,1.91,9.47,2.87,14.7,2.87c8.35,0,17.59-2.49,27.46-7.39c12.39-6.15,23.64-14.22,33.44-23.98c2.48-2.47,8.29-8.26,8.61-16.62
		c0.19-4.96-1.63-9.7-5.13-13.33c-4.2-4.37-10.47-6.87-17.19-6.87c-3.84,0-7.58,0.86-10.8,2.48c-7.14,3.59-11.71,9.36-15.73,14.44
		c-1.34,1.69-2.61,3.29-3.88,4.7c-2.78,3.08-6.07,4.74-7.74,4.74c-0.29,0-0.39-0.05-0.45-0.09c-0.67-0.66-0.89-4.4,0.98-6.96
		c2.84-3.9,8.11-6.71,13.69-9.69c1.16-0.62,2.32-1.24,3.46-1.87c24.4-13.46,44.72-34.6,57.21-59.51
		c28.08-55.98,22.07-116.57,7.09-154.61c-9.75-24.75-24.07-42.19-39.3-47.84c-3.36-1.25-6.79-1.7-9.29-2.03
		c-0.4-0.05-0.9-0.12-1.24-0.17L504.68,131.08L504.68,131.08z"/>
</g>
<path class="st7" d="M210.69,400.84c-20.98,4.09-36.7,26.24-33.64,47.39c1.2,8.3,5.25,16.56,12.36,21.02
	c4.11,2.58,8.96,3.74,13.77,4.35c13.19,1.68,28.36-1.47,35.68-12.57c4.75-7.21,5.3-16.46,4.05-25.01
	c-1.3-8.93-4.54-17.83-10.7-24.43S216.66,401.03,210.69,400.84z"/>
</svg>
