<?xml version="1.0" encoding="utf-8"?>
<!-- Generator: Adobe Adobe Illustrator 24.2.0, SVG Export Plug-In . SVG Version: 6.00 Build 0)  -->
<svg version="1.1" id="Layer_1" xmlns="http://www.w3.org/2000/svg" xmlns:xlink="http://www.w3.org/1999/xlink" x="0px" y="0px"
	 width="605.6px" height="539.78px" viewBox="0 0 605.6 539.78" style="enable-background:new 0 0 605.6 539.78;"
	 xml:space="preserve">
<style type="text/css">
	.st0{fill:#E30614;}
	.st1{fill:#FDE000;}
	.st2{fill:#EDE9E0;}
	.st3{fill:#053E61;}
	.st4{fill:#8F141C;}
	.st5{fill:#FC6900;}
	.st6{fill:#CCE70B;}
	.st7{fill:#41A0CB;}
	.st8{fill-rule:evenodd;clip-rule:evenodd;fill:#46A2DA;}
	.st9{fill-rule:evenodd;clip-rule:evenodd;fill:#E30614;}
	.st10{fill-rule:evenodd;clip-rule:evenodd;fill:#13110E;}
	.st11{fill-rule:evenodd;clip-rule:evenodd;fill:#FDE100;}
	.st12{fill-rule:evenodd;clip-rule:evenodd;fill:#17120F;}
	.st13{fill:#FFFFFF;}
	.st14{fill:#053E61;stroke:#FFFFFF;stroke-width:16;stroke-linecap:round;stroke-linejoin:round;stroke-miterlimit:10;}
	.st15{fill-rule:evenodd;clip-rule:evenodd;fill:#FDE000;}
	.st16{fill-rule:evenodd;clip-rule:evenodd;fill:#41A0CB;}
	.st17{fill-rule:evenodd;clip-rule:evenodd;fill:#EDE9E0;stroke:#053E61;stroke-width:21.3818;stroke-miterlimit:10;}
	.st18{fill:#053E61;stroke:#EDE9E0;stroke-width:20.8752;stroke-linecap:round;stroke-linejoin:round;stroke-miterlimit:10;}
	.st19{fill:#41A0CB;stroke:#EDE9E0;stroke-width:10.4376;stroke-miterlimit:10;}
</style>
<circle class="st17" cx="289.25" cy="269.89" r="259.2"/>
<path class="st1" d="M360.3,89.71c-62.24-9.37-127.11-0.53-184.59,25.13c-9.9,4.42-21.21,12.25-19.52,22.96
	c1.55,9.86,13.04,14.27,22.78,16.46c78.37,17.63,161.67,12.71,237.43-13.99c10.44-3.68,22.12-9.28,24.61-20.07
	c0.57-2.46,0.56-5.16-0.64-7.38c-2.16-4.01-7.26-5.21-11.75-5.99C401.23,102.09,375.66,92.02,360.3,89.71z"/>
<path class="st1" d="M147.05,161.18c15.58,25.65,50.42,30.12,80.42,30.66c73.61,1.3,150.16-5.49,214.07-42.06
	c3.9,6.48,1.67,15.27-3.35,20.94s-12.21,8.85-19.28,11.55c-46.56,17.75-97.16,21.28-146.92,23.99
	c-39.96,2.18-81.25,3.75-118.7-10.39c-7.23-2.73-14.89-6.68-17.66-13.89C132.86,174.77,138.99,164.59,147.05,161.18z"/>
<path class="st1" d="M466.2,300.83c-97.99-27.21-202.22-10.52-302.27,7.74c-10.21,1.86-20.67,3.83-29.57,9.17
	c-8.9,5.34-16.05,14.85-15.6,25.21c0.5,11.46,9.73,20.55,19.19,27.02c45.05,30.82,104.12,29.17,158.5,24.52
	c40-3.42,80.6-8,117.56-23.68c22.06-9.36,43.84-24.29,51.52-46.99C468.48,315.12,465.32,301.58,466.2,300.83z"/>
<g>
	<path class="st18" d="M41.11,222.48H25.27v8.16h14.8v8.93h-14.8v8.5h15.84V257H14.44v-43.45h26.67V222.48z"/>
	<path class="st18" d="M98.13,213.55c0.63,3.96,1.18,7.79,1.65,11.5c0.47,3.71,0.86,7.35,1.18,10.93c0.32,3.58,0.57,7.11,0.75,10.6
		s0.33,6.96,0.43,10.43H91.26c-0.1-2.83-0.23-5.65-0.37-8.46s-0.31-5.58-0.49-8.33s-0.4-5.47-0.65-8.15s-0.53-5.32-0.86-7.9
		L80.2,257H68.64l-8.65-32.9c-0.34,2.57-0.64,5.2-0.88,7.89c-0.24,2.69-0.46,5.42-0.65,8.18c-0.19,2.76-0.35,5.55-0.47,8.36
		c-0.12,2.81-0.23,5.64-0.33,8.47H47.04c0.1-3.47,0.25-6.94,0.44-10.43c0.19-3.49,0.44-7.02,0.75-10.6
		c0.31-3.58,0.69-7.22,1.16-10.93c0.47-3.71,1.03-7.54,1.68-11.5h15.34l8.26,31.13l8.26-31.13H98.13z"/>
	<path class="st18" d="M109.18,213.55c1.98-0.14,3.77-0.23,5.37-0.28c1.6-0.04,3.1-0.06,4.51-0.06c3.53,0,6.67,0.36,9.42,1.07
		s5.08,1.74,6.99,3.09c1.91,1.35,3.36,2.99,4.37,4.94c1.01,1.95,1.51,4.15,1.51,6.62c0,2.53-0.49,4.79-1.46,6.79
		s-2.37,3.71-4.2,5.12c-1.83,1.42-4.05,2.53-6.67,3.33c-2.62,0.81-5.57,1.27-8.83,1.39c-0.04,0-0.07,0-0.09,0c-0.02,0-0.05,0-0.09,0
		V257h-10.83V213.55z M120,236.54c0.2,0,0.41,0,0.61,0s0.41,0,0.61,0c1.39,0,2.64-0.17,3.76-0.5c1.11-0.34,2.06-0.82,2.84-1.44
		c0.78-0.62,1.38-1.38,1.79-2.28c0.42-0.9,0.63-1.92,0.63-3.06c0-1.06-0.2-2.02-0.6-2.87c-0.4-0.86-0.98-1.59-1.75-2.2
		c-0.77-0.61-1.71-1.08-2.84-1.41c-1.12-0.33-2.41-0.49-3.86-0.49c-0.2,0-0.41,0-0.61,0.01c-0.21,0.01-0.4,0.03-0.58,0.05V236.54z"
		/>
	<path class="st18" d="M168.13,212.84c1.9,0,3.76,0.21,5.58,0.63s3.54,1.04,5.15,1.88c1.61,0.84,3.09,1.87,4.45,3.1
		c1.36,1.23,2.53,2.67,3.52,4.31c0.99,1.64,1.75,3.48,2.29,5.5c0.54,2.03,0.81,4.26,0.81,6.68c0,2.51-0.28,4.81-0.83,6.91
		c-0.55,2.1-1.32,3.99-2.31,5.67c-0.99,1.68-2.18,3.16-3.56,4.43c-1.39,1.27-2.91,2.33-4.57,3.18c-1.66,0.85-3.44,1.48-5.32,1.91
		c-1.89,0.43-3.83,0.64-5.83,0.64c-1.9,0-3.76-0.21-5.58-0.64c-1.82-0.43-3.55-1.05-5.17-1.88c-1.62-0.83-3.11-1.86-4.46-3.09
		c-1.36-1.23-2.53-2.67-3.52-4.31c-0.99-1.64-1.76-3.48-2.31-5.5c-0.55-2.03-0.83-4.26-0.83-6.68c0-2.49,0.28-4.79,0.84-6.9
		c0.56-2.11,1.34-4.01,2.34-5.69c1-1.68,2.19-3.16,3.58-4.43c1.39-1.27,2.91-2.33,4.57-3.18c1.66-0.85,3.44-1.48,5.32-1.91
		C164.19,213.06,166.13,212.84,168.13,212.84z M167.7,222.14c-1.39,0-2.74,0.28-4.05,0.83c-1.32,0.55-2.48,1.37-3.5,2.46
		c-1.02,1.09-1.84,2.45-2.46,4.07c-0.62,1.62-0.93,3.5-0.93,5.64c0,2.24,0.31,4.19,0.93,5.86c0.62,1.66,1.45,3.04,2.48,4.13
		s2.22,1.91,3.56,2.45s2.75,0.81,4.22,0.81c1.39,0,2.73-0.27,4.04-0.81s2.47-1.36,3.5-2.45c1.03-1.09,1.85-2.45,2.46-4.07
		c0.61-1.62,0.92-3.51,0.92-5.67c0-2.24-0.31-4.19-0.92-5.86c-0.61-1.66-1.44-3.04-2.48-4.13s-2.23-1.91-3.56-2.45
		C170.57,222.41,169.17,222.14,167.7,222.14z"/>
	<path class="st18" d="M196.54,213.55c0.94-0.04,1.81-0.08,2.63-0.12s1.61-0.07,2.37-0.09c0.76-0.02,1.54-0.04,2.34-0.05
		c0.79-0.01,1.63-0.02,2.51-0.02c4.5,0,8.52,0.49,12.03,1.45c3.52,0.97,6.48,2.37,8.9,4.2c2.42,1.83,4.26,4.07,5.52,6.7
		s1.9,5.62,1.9,8.96c0,3.57-0.66,6.75-1.97,9.56s-3.2,5.18-5.64,7.12c-2.45,1.95-5.42,3.43-8.93,4.45
		c-3.51,1.02-7.46,1.53-11.86,1.53c-0.9,0-1.73,0-2.51-0.01c-0.77-0.01-1.55-0.03-2.32-0.05c-0.78-0.02-1.56-0.05-2.35-0.08
		c-0.8-0.03-1.66-0.07-2.6-0.11V213.55z M207.37,247.95c0.24,0,0.48,0,0.72,0c0.23,0,0.49,0,0.75,0c2.27,0,4.31-0.29,6.14-0.89
		c1.83-0.59,3.38-1.44,4.66-2.54s2.26-2.46,2.94-4.07c0.68-1.61,1.03-3.45,1.03-5.5c0-1.96-0.33-3.71-0.98-5.24
		s-1.61-2.83-2.87-3.88c-1.26-1.05-2.81-1.85-4.66-2.4c-1.85-0.55-3.96-0.83-6.33-0.83c-0.25,0-0.49,0-0.72,0s-0.46,0-0.69,0V247.95
		z"/>
	<path class="st18" d="M267.82,222.48h-15.84v8.16h14.8v8.93h-14.8v8.5h15.84V257h-26.67v-43.45h26.67V222.48z"/>
	<path class="st18" d="M274.61,213.55c1.75-0.1,3.48-0.18,5.17-0.24c1.69-0.06,3.32-0.09,4.89-0.09c3.57,0,6.73,0.33,9.49,0.99
		c2.76,0.66,5.09,1.62,6.99,2.89c1.9,1.26,3.34,2.8,4.34,4.6c1,1.8,1.5,3.84,1.5,6.1c0,1.33-0.16,2.56-0.49,3.72
		c-0.33,1.15-0.8,2.22-1.43,3.2c-0.63,0.98-1.41,1.88-2.33,2.71c-0.92,0.83-1.97,1.55-3.15,2.19c1.44,2.57,2.87,5.31,4.29,8.23
		c1.42,2.92,2.81,5.97,4.17,9.17H296.2c-0.98-2.3-2.06-4.65-3.24-7.05c-1.18-2.4-2.44-4.78-3.76-7.14c-0.6,0.08-1.2,0.14-1.82,0.17
		c-0.62,0.03-1.26,0.06-1.94,0.08V257h-10.83V213.55z M285.43,234.58c0.22,0,0.44,0,0.66,0s0.44,0,0.69,0
		c1.45,0,2.75-0.14,3.88-0.43c1.13-0.29,2.08-0.71,2.84-1.26s1.33-1.22,1.73-1.99c0.4-0.78,0.6-1.66,0.6-2.64
		c0-0.94-0.2-1.79-0.6-2.54c-0.4-0.76-0.98-1.4-1.75-1.93c-0.77-0.53-1.72-0.94-2.85-1.23c-1.13-0.29-2.44-0.43-3.91-0.43
		c-0.23,0-0.44,0-0.64,0c-0.2,0-0.42,0-0.64,0V234.58z"/>
	<path class="st18" d="M336.58,213.55c2.77,7.16,5.25,14.4,7.42,21.73c2.17,7.33,3.92,14.57,5.25,21.73h-11.13
		c-0.22-1.26-0.46-2.55-0.71-3.85c-0.25-1.3-0.51-2.6-0.8-3.88h-13.91c-0.29,1.33-0.55,2.63-0.8,3.91s-0.48,2.56-0.7,3.82h-10.83
		c1.32-7.16,3.08-14.4,5.27-21.73c2.19-7.33,4.66-14.57,7.41-21.73H336.58z M334.66,240.67c-0.71-2.75-1.49-5.48-2.33-8.18
		c-0.84-2.7-1.73-5.37-2.67-8c-0.94,2.63-1.83,5.3-2.68,8s-1.63,5.43-2.34,8.18H334.66z"/>
	<path class="st18" d="M404.38,213.55c0.63,3.96,1.18,7.79,1.65,11.5c0.47,3.71,0.86,7.35,1.18,10.93c0.32,3.58,0.57,7.11,0.75,10.6
		s0.33,6.96,0.43,10.43h-10.89c-0.1-2.83-0.23-5.65-0.37-8.46s-0.31-5.58-0.49-8.33s-0.4-5.47-0.65-8.15s-0.53-5.32-0.86-7.9
		L386.45,257h-11.56l-8.65-32.9c-0.34,2.57-0.64,5.2-0.88,7.89c-0.24,2.69-0.46,5.42-0.65,8.18c-0.19,2.76-0.35,5.55-0.47,8.36
		c-0.12,2.81-0.23,5.64-0.33,8.47h-10.61c0.1-3.47,0.25-6.94,0.44-10.43c0.19-3.49,0.44-7.02,0.75-10.6
		c0.31-3.58,0.69-7.22,1.16-10.93c0.47-3.71,1.03-7.54,1.68-11.5h15.34l8.26,31.13l8.26-31.13H404.38z"/>
	<path class="st18" d="M426.25,257h-10.83v-43.45h10.83V257z"/>
	<path class="st18" d="M460.93,222.48h-15.84v8.16h14.8v8.93h-14.8v8.5h15.84V257h-26.67v-43.45h26.67V222.48z"/>
	<path class="st18" d="M507.53,257h-13.24l-14.1-23.76c-0.57-1-1.09-1.98-1.54-2.94c-0.46-0.96-0.87-1.93-1.24-2.91
		c0.08,0.98,0.15,1.95,0.2,2.92c0.05,0.97,0.08,1.94,0.08,2.92V257h-9.97v-43.45h13.24l14.1,23.76c0.59,0.98,1.11,1.95,1.56,2.91
		c0.45,0.96,0.86,1.92,1.22,2.87c-0.08-0.96-0.15-1.93-0.2-2.9c-0.05-0.98-0.08-1.94-0.08-2.88v-23.76h9.97V257z"/>
	<path class="st18" d="M546.24,222.66h-11.28V257h-10.83v-34.34h-11.28v-9.11h33.39V222.66z"/>
	<path class="st18" d="M570.77,212.84c1.9,0,3.76,0.21,5.58,0.63s3.54,1.04,5.15,1.88c1.61,0.84,3.09,1.87,4.45,3.1
		c1.36,1.23,2.53,2.67,3.52,4.31c0.99,1.64,1.75,3.48,2.29,5.5c0.54,2.03,0.81,4.26,0.81,6.68c0,2.51-0.28,4.81-0.83,6.91
		c-0.55,2.1-1.32,3.99-2.31,5.67c-0.99,1.68-2.18,3.16-3.56,4.43c-1.39,1.27-2.91,2.33-4.57,3.18c-1.66,0.85-3.44,1.48-5.32,1.91
		c-1.89,0.43-3.83,0.64-5.83,0.64c-1.9,0-3.76-0.21-5.58-0.64c-1.82-0.43-3.55-1.05-5.17-1.88c-1.62-0.83-3.11-1.86-4.46-3.09
		c-1.36-1.23-2.53-2.67-3.52-4.31c-0.99-1.64-1.76-3.48-2.31-5.5c-0.55-2.03-0.83-4.26-0.83-6.68c0-2.49,0.28-4.79,0.84-6.9
		c0.56-2.11,1.34-4.01,2.34-5.69c1-1.68,2.19-3.16,3.58-4.43c1.39-1.27,2.91-2.33,4.57-3.18c1.66-0.85,3.44-1.48,5.32-1.91
		C566.83,213.06,568.77,212.84,570.77,212.84z M570.34,222.14c-1.39,0-2.74,0.28-4.05,0.83c-1.32,0.55-2.48,1.37-3.5,2.46
		c-1.02,1.09-1.84,2.45-2.46,4.07c-0.62,1.62-0.93,3.5-0.93,5.64c0,2.24,0.31,4.19,0.93,5.86c0.62,1.66,1.45,3.04,2.48,4.13
		s2.22,1.91,3.56,2.45s2.75,0.81,4.22,0.81c1.39,0,2.73-0.27,4.04-0.81s2.47-1.36,3.5-2.45c1.03-1.09,1.85-2.45,2.46-4.07
		c0.61-1.62,0.92-3.51,0.92-5.67c0-2.24-0.31-4.19-0.92-5.86c-0.61-1.66-1.44-3.04-2.48-4.13s-2.23-1.91-3.56-2.45
		C573.21,222.41,571.8,222.14,570.34,222.14z"/>
</g>
<g>
	<path class="st18" d="M143.61,285.95h-15.84v8.17h14.8v8.93h-14.8v8.5h15.84v8.93h-26.67v-43.45h26.67V285.95z"/>
	<path class="st18" d="M179.27,288.55c-1.22-1-2.56-1.76-4.02-2.29c-1.46-0.53-2.96-0.79-4.51-0.79c-1.51,0-2.91,0.28-4.21,0.84
		c-1.29,0.56-2.42,1.39-3.38,2.49s-1.72,2.47-2.28,4.11c-0.56,1.64-0.84,3.54-0.84,5.7c0,2.06,0.25,3.9,0.76,5.53
		c0.51,1.63,1.24,3.02,2.2,4.17c0.96,1.15,2.12,2.03,3.5,2.63c1.38,0.6,2.94,0.9,4.69,0.9c0.98,0,1.9-0.08,2.77-0.24
		c0.87-0.16,1.7-0.4,2.49-0.72c0.8-0.32,1.56-0.72,2.31-1.21c0.74-0.49,1.48-1.05,2.22-1.68l2.42,8.84
		c-1.94,1.39-4.04,2.46-6.3,3.21s-4.74,1.13-7.43,1.13c-3.12,0-5.95-0.51-8.5-1.54c-2.55-1.03-4.73-2.5-6.54-4.4
		s-3.22-4.22-4.2-6.96c-0.99-2.73-1.48-5.8-1.48-9.2c0-2.43,0.25-4.67,0.75-6.74c0.5-2.07,1.2-3.95,2.11-5.63
		c0.91-1.68,2-3.17,3.27-4.46s2.69-2.39,4.25-3.27s3.24-1.55,5.03-1.99c1.79-0.44,3.67-0.66,5.63-0.66c2.37,0,4.54,0.3,6.53,0.9
		c1.99,0.6,3.75,1.5,5.28,2.71L179.27,288.55z"/>
	<path class="st18" d="M208.01,276.32c1.9,0,3.76,0.21,5.58,0.63c1.82,0.42,3.54,1.05,5.15,1.88c1.61,0.84,3.09,1.87,4.45,3.1
		c1.36,1.23,2.53,2.67,3.52,4.31c0.99,1.64,1.75,3.48,2.29,5.5s0.81,4.26,0.81,6.68c0,2.51-0.28,4.81-0.83,6.91
		c-0.55,2.1-1.32,3.99-2.31,5.67c-0.99,1.68-2.18,3.16-3.56,4.43c-1.39,1.27-2.91,2.33-4.57,3.18c-1.66,0.85-3.44,1.48-5.32,1.91
		c-1.89,0.43-3.83,0.64-5.83,0.64c-1.9,0-3.76-0.21-5.58-0.64c-1.82-0.43-3.55-1.05-5.17-1.88c-1.62-0.83-3.11-1.85-4.46-3.09
		c-1.36-1.23-2.53-2.67-3.52-4.31c-0.99-1.64-1.76-3.47-2.31-5.5c-0.55-2.03-0.83-4.25-0.83-6.68c0-2.49,0.28-4.79,0.84-6.9
		c0.56-2.11,1.34-4.01,2.34-5.69s2.19-3.16,3.58-4.43c1.39-1.27,2.91-2.33,4.57-3.18c1.66-0.85,3.44-1.48,5.32-1.91
		C204.07,276.53,206.02,276.32,208.01,276.32z M207.58,285.62c-1.39,0-2.74,0.27-4.05,0.83c-1.32,0.55-2.48,1.37-3.5,2.46
		s-1.84,2.45-2.46,4.07c-0.62,1.62-0.93,3.5-0.93,5.64c0,2.24,0.31,4.19,0.93,5.86c0.62,1.66,1.45,3.04,2.48,4.13
		c1.03,1.09,2.22,1.91,3.56,2.45c1.35,0.54,2.75,0.81,4.22,0.81c1.39,0,2.73-0.27,4.04-0.81c1.3-0.54,2.47-1.36,3.5-2.45
		c1.03-1.09,1.85-2.45,2.46-4.07c0.61-1.62,0.92-3.51,0.92-5.67c0-2.24-0.31-4.19-0.92-5.86c-0.61-1.66-1.44-3.04-2.48-4.13
		c-1.04-1.09-2.23-1.91-3.56-2.45C210.45,285.89,209.05,285.62,207.58,285.62z"/>
	<path class="st18" d="M276.23,320.47h-13.24l-14.1-23.76c-0.57-1-1.09-1.98-1.54-2.94c-0.46-0.96-0.87-1.93-1.24-2.91
		c0.08,0.98,0.15,1.95,0.2,2.92c0.05,0.97,0.08,1.94,0.08,2.92v23.76h-9.97v-43.45h13.24l14.1,23.76c0.59,0.98,1.11,1.95,1.56,2.91
		c0.45,0.96,0.86,1.92,1.22,2.87c-0.08-0.96-0.15-1.93-0.2-2.91c-0.05-0.98-0.08-1.94-0.08-2.87v-23.76h9.97V320.47z"/>
	<path class="st18" d="M305.25,276.32c1.9,0,3.76,0.21,5.58,0.63c1.82,0.42,3.54,1.05,5.15,1.88c1.61,0.84,3.09,1.87,4.45,3.1
		c1.36,1.23,2.53,2.67,3.52,4.31c0.99,1.64,1.75,3.48,2.29,5.5s0.81,4.26,0.81,6.68c0,2.51-0.28,4.81-0.83,6.91
		c-0.55,2.1-1.32,3.99-2.31,5.67c-0.99,1.68-2.18,3.16-3.56,4.43c-1.39,1.27-2.91,2.33-4.57,3.18c-1.66,0.85-3.44,1.48-5.32,1.91
		c-1.89,0.43-3.83,0.64-5.83,0.64c-1.9,0-3.76-0.21-5.58-0.64c-1.82-0.43-3.55-1.05-5.17-1.88c-1.62-0.83-3.11-1.85-4.46-3.09
		c-1.36-1.23-2.53-2.67-3.52-4.31c-0.99-1.64-1.76-3.47-2.31-5.5c-0.55-2.03-0.83-4.25-0.83-6.68c0-2.49,0.28-4.79,0.84-6.9
		c0.56-2.11,1.34-4.01,2.34-5.69s2.19-3.16,3.58-4.43c1.39-1.27,2.91-2.33,4.57-3.18c1.66-0.85,3.44-1.48,5.32-1.91
		C301.31,276.53,303.26,276.32,305.25,276.32z M304.83,285.62c-1.39,0-2.74,0.27-4.05,0.83c-1.32,0.55-2.48,1.37-3.5,2.46
		s-1.84,2.45-2.46,4.07c-0.62,1.62-0.93,3.5-0.93,5.64c0,2.24,0.31,4.19,0.93,5.86c0.62,1.66,1.45,3.04,2.48,4.13
		c1.03,1.09,2.22,1.91,3.56,2.45c1.35,0.54,2.75,0.81,4.22,0.81c1.39,0,2.73-0.27,4.04-0.81c1.3-0.54,2.47-1.36,3.5-2.45
		c1.03-1.09,1.85-2.45,2.46-4.07c0.61-1.62,0.92-3.51,0.92-5.67c0-2.24-0.31-4.19-0.92-5.86c-0.61-1.66-1.44-3.04-2.48-4.13
		c-1.04-1.09-2.23-1.91-3.56-2.45C307.69,285.89,306.29,285.62,304.83,285.62z M316.32,266.75l-13.58,7.22l-3.97-6.76l12.87-8.35
		L316.32,266.75z"/>
	<path class="st18" d="M383.5,277.02c0.63,3.96,1.18,7.79,1.65,11.5c0.47,3.71,0.86,7.35,1.18,10.93c0.32,3.58,0.57,7.11,0.75,10.6
		c0.18,3.49,0.33,6.96,0.43,10.43h-10.89c-0.1-2.83-0.23-5.65-0.37-8.46c-0.14-2.8-0.31-5.58-0.49-8.33
		c-0.18-2.75-0.4-5.47-0.65-8.15s-0.53-5.32-0.86-7.91l-8.68,32.84h-11.56l-8.65-32.9c-0.34,2.57-0.64,5.2-0.88,7.89
		c-0.24,2.69-0.46,5.42-0.65,8.18c-0.19,2.76-0.35,5.55-0.47,8.36c-0.12,2.81-0.23,5.64-0.33,8.47h-10.61
		c0.1-3.46,0.25-6.94,0.44-10.43c0.19-3.49,0.44-7.02,0.75-10.6c0.31-3.58,0.69-7.22,1.16-10.93c0.47-3.71,1.03-7.54,1.68-11.5
		h15.34l8.26,31.13l8.26-31.13H383.5z"/>
	<path class="st18" d="M405.37,320.47h-10.83v-43.45h10.83V320.47z"/>
	<path class="st18" d="M442.25,288.55c-1.22-1-2.56-1.76-4.02-2.29c-1.46-0.53-2.96-0.79-4.51-0.79c-1.51,0-2.91,0.28-4.21,0.84
		c-1.29,0.56-2.42,1.39-3.38,2.49s-1.72,2.47-2.28,4.11c-0.56,1.64-0.84,3.54-0.84,5.7c0,2.06,0.25,3.9,0.76,5.53
		c0.51,1.63,1.24,3.02,2.2,4.17c0.96,1.15,2.12,2.03,3.5,2.63c1.38,0.6,2.94,0.9,4.69,0.9c0.98,0,1.9-0.08,2.77-0.24
		c0.87-0.16,1.7-0.4,2.49-0.72c0.8-0.32,1.56-0.72,2.31-1.21c0.74-0.49,1.48-1.05,2.22-1.68l2.42,8.84
		c-1.94,1.39-4.04,2.46-6.3,3.21s-4.74,1.13-7.43,1.13c-3.12,0-5.95-0.51-8.5-1.54c-2.55-1.03-4.73-2.5-6.54-4.4
		s-3.22-4.22-4.2-6.96c-0.99-2.73-1.48-5.8-1.48-9.2c0-2.43,0.25-4.67,0.75-6.74c0.5-2.07,1.2-3.95,2.11-5.63
		c0.91-1.68,2-3.17,3.27-4.46s2.69-2.39,4.25-3.27s3.24-1.55,5.03-1.99c1.79-0.44,3.67-0.66,5.63-0.66c2.37,0,4.54,0.3,6.53,0.9
		c1.99,0.6,3.75,1.5,5.28,2.71L442.25,288.55z"/>
	<path class="st18" d="M470.99,276.32c1.9,0,3.76,0.21,5.58,0.63c1.82,0.42,3.54,1.05,5.15,1.88c1.61,0.84,3.09,1.87,4.45,3.1
		c1.36,1.23,2.53,2.67,3.52,4.31c0.99,1.64,1.75,3.48,2.29,5.5s0.81,4.26,0.81,6.68c0,2.51-0.28,4.81-0.83,6.91
		c-0.55,2.1-1.32,3.99-2.31,5.67c-0.99,1.68-2.18,3.16-3.56,4.43c-1.39,1.27-2.91,2.33-4.57,3.18c-1.66,0.85-3.44,1.48-5.32,1.91
		c-1.89,0.43-3.83,0.64-5.83,0.64c-1.9,0-3.76-0.21-5.58-0.64c-1.82-0.43-3.55-1.05-5.17-1.88c-1.62-0.83-3.11-1.85-4.46-3.09
		c-1.36-1.23-2.53-2.67-3.52-4.31c-0.99-1.64-1.76-3.47-2.31-5.5c-0.55-2.03-0.83-4.25-0.83-6.68c0-2.49,0.28-4.79,0.84-6.9
		c0.56-2.11,1.34-4.01,2.34-5.69s2.19-3.16,3.58-4.43c1.39-1.27,2.91-2.33,4.57-3.18c1.66-0.85,3.44-1.48,5.32-1.91
		C467.05,276.53,468.99,276.32,470.99,276.32z M470.56,285.62c-1.39,0-2.74,0.27-4.05,0.83c-1.32,0.55-2.48,1.37-3.5,2.46
		s-1.84,2.45-2.46,4.07c-0.62,1.62-0.93,3.5-0.93,5.64c0,2.24,0.31,4.19,0.93,5.86c0.62,1.66,1.45,3.04,2.48,4.13
		c1.03,1.09,2.22,1.91,3.56,2.45c1.35,0.54,2.75,0.81,4.22,0.81c1.39,0,2.73-0.27,4.04-0.81c1.3-0.54,2.47-1.36,3.5-2.45
		c1.03-1.09,1.85-2.45,2.46-4.07c0.61-1.62,0.92-3.51,0.92-5.67c0-2.24-0.31-4.19-0.92-5.86c-0.61-1.66-1.44-3.04-2.48-4.13
		c-1.04-1.09-2.23-1.91-3.56-2.45C473.43,285.89,472.03,285.62,470.56,285.62z"/>
</g>
<g>
	<path class="st3" d="M41.11,222.48H25.27v8.16h14.8v8.93h-14.8v8.5h15.84V257H14.44v-43.45h26.67V222.48z"/>
	<path class="st3" d="M98.13,213.55c0.63,3.96,1.18,7.79,1.65,11.5c0.47,3.71,0.86,7.35,1.18,10.93c0.32,3.58,0.57,7.11,0.75,10.6
		s0.33,6.96,0.43,10.43H91.26c-0.1-2.83-0.23-5.65-0.37-8.46s-0.31-5.58-0.49-8.33s-0.4-5.47-0.65-8.15s-0.53-5.32-0.86-7.9
		L80.2,257H68.64l-8.65-32.9c-0.34,2.57-0.64,5.2-0.88,7.89c-0.24,2.69-0.46,5.42-0.65,8.18c-0.19,2.76-0.35,5.55-0.47,8.36
		c-0.12,2.81-0.23,5.64-0.33,8.47H47.04c0.1-3.47,0.25-6.94,0.44-10.43c0.19-3.49,0.44-7.02,0.75-10.6
		c0.31-3.58,0.69-7.22,1.16-10.93c0.47-3.71,1.03-7.54,1.68-11.5h15.34l8.26,31.13l8.26-31.13H98.13z"/>
	<path class="st3" d="M109.18,213.55c1.98-0.14,3.77-0.23,5.37-0.28c1.6-0.04,3.1-0.06,4.51-0.06c3.53,0,6.67,0.36,9.42,1.07
		s5.08,1.74,6.99,3.09c1.91,1.35,3.36,2.99,4.37,4.94c1.01,1.95,1.51,4.15,1.51,6.62c0,2.53-0.49,4.79-1.46,6.79
		s-2.37,3.71-4.2,5.12c-1.83,1.42-4.05,2.53-6.67,3.33c-2.62,0.81-5.57,1.27-8.83,1.39c-0.04,0-0.07,0-0.09,0c-0.02,0-0.05,0-0.09,0
		V257h-10.83V213.55z M120,236.54c0.2,0,0.41,0,0.61,0s0.41,0,0.61,0c1.39,0,2.64-0.17,3.76-0.5c1.11-0.34,2.06-0.82,2.84-1.44
		c0.78-0.62,1.38-1.38,1.79-2.28c0.42-0.9,0.63-1.92,0.63-3.06c0-1.06-0.2-2.02-0.6-2.87c-0.4-0.86-0.98-1.59-1.75-2.2
		c-0.77-0.61-1.71-1.08-2.84-1.41c-1.12-0.33-2.41-0.49-3.86-0.49c-0.2,0-0.41,0-0.61,0.01c-0.21,0.01-0.4,0.03-0.58,0.05V236.54z"
		/>
	<path class="st3" d="M168.13,212.84c1.9,0,3.76,0.21,5.58,0.63s3.54,1.04,5.15,1.88c1.61,0.84,3.09,1.87,4.45,3.1
		c1.36,1.23,2.53,2.67,3.52,4.31c0.99,1.64,1.75,3.48,2.29,5.5c0.54,2.03,0.81,4.26,0.81,6.68c0,2.51-0.28,4.81-0.83,6.91
		c-0.55,2.1-1.32,3.99-2.31,5.67c-0.99,1.68-2.18,3.16-3.56,4.43c-1.39,1.27-2.91,2.33-4.57,3.18c-1.66,0.85-3.44,1.48-5.32,1.91
		c-1.89,0.43-3.83,0.64-5.83,0.64c-1.9,0-3.76-0.21-5.58-0.64c-1.82-0.43-3.55-1.05-5.17-1.88c-1.62-0.83-3.11-1.86-4.46-3.09
		c-1.36-1.23-2.53-2.67-3.52-4.31c-0.99-1.64-1.76-3.48-2.31-5.5c-0.55-2.03-0.83-4.26-0.83-6.68c0-2.49,0.28-4.79,0.84-6.9
		c0.56-2.11,1.34-4.01,2.34-5.69c1-1.68,2.19-3.16,3.58-4.43c1.39-1.27,2.91-2.33,4.57-3.18c1.66-0.85,3.44-1.48,5.32-1.91
		C164.19,213.06,166.13,212.84,168.13,212.84z M167.7,222.14c-1.39,0-2.74,0.28-4.05,0.83c-1.32,0.55-2.48,1.37-3.5,2.46
		c-1.02,1.09-1.84,2.45-2.46,4.07c-0.62,1.62-0.93,3.5-0.93,5.64c0,2.24,0.31,4.19,0.93,5.86c0.62,1.66,1.45,3.04,2.48,4.13
		s2.22,1.91,3.56,2.45s2.75,0.81,4.22,0.81c1.39,0,2.73-0.27,4.04-0.81s2.47-1.36,3.5-2.45c1.03-1.09,1.85-2.45,2.46-4.07
		c0.61-1.62,0.92-3.51,0.92-5.67c0-2.24-0.31-4.19-0.92-5.86c-0.61-1.66-1.44-3.04-2.48-4.13s-2.23-1.91-3.56-2.45
		C170.57,222.41,169.17,222.14,167.7,222.14z"/>
	<path class="st3" d="M196.54,213.55c0.94-0.04,1.81-0.08,2.63-0.12s1.61-0.07,2.37-0.09c0.76-0.02,1.54-0.04,2.34-0.05
		c0.79-0.01,1.63-0.02,2.51-0.02c4.5,0,8.52,0.49,12.03,1.45c3.52,0.97,6.48,2.37,8.9,4.2c2.42,1.83,4.26,4.07,5.52,6.7
		s1.9,5.62,1.9,8.96c0,3.57-0.66,6.75-1.97,9.56s-3.2,5.18-5.64,7.12c-2.45,1.95-5.42,3.43-8.93,4.45
		c-3.51,1.02-7.46,1.53-11.86,1.53c-0.9,0-1.73,0-2.51-0.01c-0.77-0.01-1.55-0.03-2.32-0.05c-0.78-0.02-1.56-0.05-2.35-0.08
		c-0.8-0.03-1.66-0.07-2.6-0.11V213.55z M207.37,247.95c0.24,0,0.48,0,0.72,0c0.23,0,0.49,0,0.75,0c2.27,0,4.31-0.29,6.14-0.89
		c1.83-0.59,3.38-1.44,4.66-2.54s2.26-2.46,2.94-4.07c0.68-1.61,1.03-3.45,1.03-5.5c0-1.96-0.33-3.71-0.98-5.24
		s-1.61-2.83-2.87-3.88c-1.26-1.05-2.81-1.85-4.66-2.4c-1.85-0.55-3.96-0.83-6.33-0.83c-0.25,0-0.49,0-0.72,0s-0.46,0-0.69,0V247.95
		z"/>
	<path class="st3" d="M267.82,222.48h-15.84v8.16h14.8v8.93h-14.8v8.5h15.84V257h-26.67v-43.45h26.67V222.48z"/>
	<path class="st3" d="M274.61,213.55c1.75-0.1,3.48-0.18,5.17-0.24c1.69-0.06,3.32-0.09,4.89-0.09c3.57,0,6.73,0.33,9.49,0.99
		c2.76,0.66,5.09,1.62,6.99,2.89c1.9,1.26,3.34,2.8,4.34,4.6c1,1.8,1.5,3.84,1.5,6.1c0,1.33-0.16,2.56-0.49,3.72
		c-0.33,1.15-0.8,2.22-1.43,3.2c-0.63,0.98-1.41,1.88-2.33,2.71c-0.92,0.83-1.97,1.55-3.15,2.19c1.44,2.57,2.87,5.31,4.29,8.23
		c1.42,2.92,2.81,5.97,4.17,9.17H296.2c-0.98-2.3-2.06-4.65-3.24-7.05c-1.18-2.4-2.44-4.78-3.76-7.14c-0.6,0.08-1.2,0.14-1.82,0.17
		c-0.62,0.03-1.26,0.06-1.94,0.08V257h-10.83V213.55z M285.43,234.58c0.22,0,0.44,0,0.66,0s0.44,0,0.69,0
		c1.45,0,2.75-0.14,3.88-0.43c1.13-0.29,2.08-0.71,2.84-1.26s1.33-1.22,1.73-1.99c0.4-0.78,0.6-1.66,0.6-2.64
		c0-0.94-0.2-1.79-0.6-2.54c-0.4-0.76-0.98-1.4-1.75-1.93c-0.77-0.53-1.72-0.94-2.85-1.23c-1.13-0.29-2.44-0.43-3.91-0.43
		c-0.23,0-0.44,0-0.64,0c-0.2,0-0.42,0-0.64,0V234.58z"/>
	<path class="st3" d="M336.58,213.55c2.77,7.16,5.25,14.4,7.42,21.73c2.17,7.33,3.92,14.57,5.25,21.73h-11.13
		c-0.22-1.26-0.46-2.55-0.71-3.85c-0.25-1.3-0.51-2.6-0.8-3.88h-13.91c-0.29,1.33-0.55,2.63-0.8,3.91s-0.48,2.56-0.7,3.82h-10.83
		c1.32-7.16,3.08-14.4,5.27-21.73c2.19-7.33,4.66-14.57,7.41-21.73H336.58z M334.66,240.67c-0.71-2.75-1.49-5.48-2.33-8.18
		c-0.84-2.7-1.73-5.37-2.67-8c-0.94,2.63-1.83,5.3-2.68,8s-1.63,5.43-2.34,8.18H334.66z"/>
	<path class="st3" d="M404.38,213.55c0.63,3.96,1.18,7.79,1.65,11.5c0.47,3.71,0.86,7.35,1.18,10.93c0.32,3.58,0.57,7.11,0.75,10.6
		s0.33,6.96,0.43,10.43h-10.89c-0.1-2.83-0.23-5.65-0.37-8.46s-0.31-5.58-0.49-8.33s-0.4-5.47-0.65-8.15s-0.53-5.32-0.86-7.9
		L386.45,257h-11.56l-8.65-32.9c-0.34,2.57-0.64,5.2-0.88,7.89c-0.24,2.69-0.46,5.42-0.65,8.18c-0.19,2.76-0.35,5.55-0.47,8.36
		c-0.12,2.81-0.23,5.64-0.33,8.47h-10.61c0.1-3.47,0.25-6.94,0.44-10.43c0.19-3.49,0.44-7.02,0.75-10.6
		c0.31-3.58,0.69-7.22,1.16-10.93c0.47-3.71,1.03-7.54,1.68-11.5h15.34l8.26,31.13l8.26-31.13H404.38z"/>
	<path class="st3" d="M426.25,257h-10.83v-43.45h10.83V257z"/>
	<path class="st3" d="M460.93,222.48h-15.84v8.16h14.8v8.93h-14.8v8.5h15.84V257h-26.67v-43.45h26.67V222.48z"/>
	<path class="st3" d="M507.53,257h-13.24l-14.1-23.76c-0.57-1-1.09-1.98-1.54-2.94c-0.46-0.96-0.87-1.93-1.24-2.91
		c0.08,0.98,0.15,1.95,0.2,2.92c0.05,0.97,0.08,1.94,0.08,2.92V257h-9.97v-43.45h13.24l14.1,23.76c0.59,0.98,1.11,1.95,1.56,2.91
		c0.45,0.96,0.86,1.92,1.22,2.87c-0.08-0.96-0.15-1.93-0.2-2.9c-0.05-0.98-0.08-1.94-0.08-2.88v-23.76h9.97V257z"/>
	<path class="st3" d="M546.24,222.66h-11.28V257h-10.83v-34.34h-11.28v-9.11h33.39V222.66z"/>
	<path class="st3" d="M570.77,212.84c1.9,0,3.76,0.21,5.58,0.63s3.54,1.04,5.15,1.88c1.61,0.84,3.09,1.87,4.45,3.1
		c1.36,1.23,2.53,2.67,3.52,4.31c0.99,1.64,1.75,3.48,2.29,5.5c0.54,2.03,0.81,4.26,0.81,6.68c0,2.51-0.28,4.81-0.83,6.91
		c-0.55,2.1-1.32,3.99-2.31,5.67c-0.99,1.68-2.18,3.16-3.56,4.43c-1.39,1.27-2.91,2.33-4.57,3.18c-1.66,0.85-3.44,1.48-5.32,1.91
		c-1.89,0.43-3.83,0.64-5.83,0.64c-1.9,0-3.76-0.21-5.58-0.64c-1.82-0.43-3.55-1.05-5.17-1.88c-1.62-0.83-3.11-1.86-4.46-3.09
		c-1.36-1.23-2.53-2.67-3.52-4.31c-0.99-1.64-1.76-3.48-2.31-5.5c-0.55-2.03-0.83-4.26-0.83-6.68c0-2.49,0.28-4.79,0.84-6.9
		c0.56-2.11,1.34-4.01,2.34-5.69c1-1.68,2.19-3.16,3.58-4.43c1.39-1.27,2.91-2.33,4.57-3.18c1.66-0.85,3.44-1.48,5.32-1.91
		C566.83,213.06,568.77,212.84,570.77,212.84z M570.34,222.14c-1.39,0-2.74,0.28-4.05,0.83c-1.32,0.55-2.48,1.37-3.5,2.46
		c-1.02,1.09-1.84,2.45-2.46,4.07c-0.62,1.62-0.93,3.5-0.93,5.64c0,2.24,0.31,4.19,0.93,5.86c0.62,1.66,1.45,3.04,2.48,4.13
		s2.22,1.91,3.56,2.45s2.75,0.81,4.22,0.81c1.39,0,2.73-0.27,4.04-0.81s2.47-1.36,3.5-2.45c1.03-1.09,1.85-2.45,2.46-4.07
		c0.61-1.62,0.92-3.51,0.92-5.67c0-2.24-0.31-4.19-0.92-5.86c-0.61-1.66-1.44-3.04-2.48-4.13s-2.23-1.91-3.56-2.45
		C573.21,222.41,571.8,222.14,570.34,222.14z"/>
</g>
<g>
	<path class="st3" d="M143.61,285.95h-15.84v8.17h14.8v8.93h-14.8v8.5h15.84v8.93h-26.67v-43.45h26.67V285.95z"/>
	<path class="st3" d="M179.27,288.55c-1.22-1-2.56-1.76-4.02-2.29c-1.46-0.53-2.96-0.79-4.51-0.79c-1.51,0-2.91,0.28-4.21,0.84
		c-1.29,0.56-2.42,1.39-3.38,2.49s-1.72,2.47-2.28,4.11c-0.56,1.64-0.84,3.54-0.84,5.7c0,2.06,0.25,3.9,0.76,5.53
		c0.51,1.63,1.24,3.02,2.2,4.17c0.96,1.15,2.12,2.03,3.5,2.63c1.38,0.6,2.94,0.9,4.69,0.9c0.98,0,1.9-0.08,2.77-0.24
		c0.87-0.16,1.7-0.4,2.49-0.72c0.8-0.32,1.56-0.72,2.31-1.21c0.74-0.49,1.48-1.05,2.22-1.68l2.42,8.84
		c-1.94,1.39-4.04,2.46-6.3,3.21s-4.74,1.13-7.43,1.13c-3.12,0-5.95-0.51-8.5-1.54c-2.55-1.03-4.73-2.5-6.54-4.4
		s-3.22-4.22-4.2-6.96c-0.99-2.73-1.48-5.8-1.48-9.2c0-2.43,0.25-4.67,0.75-6.74c0.5-2.07,1.2-3.95,2.11-5.63
		c0.91-1.68,2-3.17,3.27-4.46s2.69-2.39,4.25-3.27s3.24-1.55,5.03-1.99c1.79-0.44,3.67-0.66,5.63-0.66c2.37,0,4.54,0.3,6.53,0.9
		c1.99,0.6,3.75,1.5,5.28,2.71L179.27,288.55z"/>
	<path class="st3" d="M208.01,276.32c1.9,0,3.76,0.21,5.58,0.63c1.82,0.42,3.54,1.05,5.15,1.88c1.61,0.84,3.09,1.87,4.45,3.1
		c1.36,1.23,2.53,2.67,3.52,4.31c0.99,1.64,1.75,3.48,2.29,5.5s0.81,4.26,0.81,6.68c0,2.51-0.28,4.81-0.83,6.91
		c-0.55,2.1-1.32,3.99-2.31,5.67c-0.99,1.68-2.18,3.16-3.56,4.43c-1.39,1.27-2.91,2.33-4.57,3.18c-1.66,0.85-3.44,1.48-5.32,1.91
		c-1.89,0.43-3.83,0.64-5.83,0.64c-1.9,0-3.76-0.21-5.58-0.64c-1.82-0.43-3.55-1.05-5.17-1.88c-1.62-0.83-3.11-1.85-4.46-3.09
		c-1.36-1.23-2.53-2.67-3.52-4.31c-0.99-1.64-1.76-3.47-2.31-5.5c-0.55-2.03-0.83-4.25-0.83-6.68c0-2.49,0.28-4.79,0.84-6.9
		c0.56-2.11,1.34-4.01,2.34-5.69s2.19-3.16,3.58-4.43c1.39-1.27,2.91-2.33,4.57-3.18c1.66-0.85,3.44-1.48,5.32-1.91
		C204.07,276.53,206.02,276.32,208.01,276.32z M207.58,285.62c-1.39,0-2.74,0.27-4.05,0.83c-1.32,0.55-2.48,1.37-3.5,2.46
		s-1.84,2.45-2.46,4.07c-0.62,1.62-0.93,3.5-0.93,5.64c0,2.24,0.31,4.19,0.93,5.86c0.62,1.66,1.45,3.04,2.48,4.13
		c1.03,1.09,2.22,1.91,3.56,2.45c1.35,0.54,2.75,0.81,4.22,0.81c1.39,0,2.73-0.27,4.04-0.81c1.3-0.54,2.47-1.36,3.5-2.45
		c1.03-1.09,1.85-2.45,2.46-4.07c0.61-1.62,0.92-3.51,0.92-5.67c0-2.24-0.31-4.19-0.92-5.86c-0.61-1.66-1.44-3.04-2.48-4.13
		c-1.04-1.09-2.23-1.91-3.56-2.45C210.45,285.89,209.05,285.62,207.58,285.62z"/>
	<path class="st3" d="M276.23,320.47h-13.24l-14.1-23.76c-0.57-1-1.09-1.98-1.54-2.94c-0.46-0.96-0.87-1.93-1.24-2.91
		c0.08,0.98,0.15,1.95,0.2,2.92c0.05,0.97,0.08,1.94,0.08,2.92v23.76h-9.97v-43.45h13.24l14.1,23.76c0.59,0.98,1.11,1.95,1.56,2.91
		c0.45,0.96,0.86,1.92,1.22,2.87c-0.08-0.96-0.15-1.93-0.2-2.91c-0.05-0.98-0.08-1.94-0.08-2.87v-23.76h9.97V320.47z"/>
	<path class="st3" d="M305.25,276.32c1.9,0,3.76,0.21,5.58,0.63c1.82,0.42,3.54,1.05,5.15,1.88c1.61,0.84,3.09,1.87,4.45,3.1
		c1.36,1.23,2.53,2.67,3.52,4.31c0.99,1.64,1.75,3.48,2.29,5.5s0.81,4.26,0.81,6.68c0,2.51-0.28,4.81-0.83,6.91
		c-0.55,2.1-1.32,3.99-2.31,5.67c-0.99,1.68-2.18,3.16-3.56,4.43c-1.39,1.27-2.91,2.33-4.57,3.18c-1.66,0.85-3.44,1.48-5.32,1.91
		c-1.89,0.43-3.83,0.64-5.83,0.64c-1.9,0-3.76-0.21-5.58-0.64c-1.82-0.43-3.55-1.05-5.17-1.88c-1.62-0.83-3.11-1.85-4.46-3.09
		c-1.36-1.23-2.53-2.67-3.52-4.31c-0.99-1.64-1.76-3.47-2.31-5.5c-0.55-2.03-0.83-4.25-0.83-6.68c0-2.49,0.28-4.79,0.84-6.9
		c0.56-2.11,1.34-4.01,2.34-5.69s2.19-3.16,3.58-4.43c1.39-1.27,2.91-2.33,4.57-3.18c1.66-0.85,3.44-1.48,5.32-1.91
		C301.31,276.53,303.26,276.32,305.25,276.32z M304.83,285.62c-1.39,0-2.74,0.27-4.05,0.83c-1.32,0.55-2.48,1.37-3.5,2.46
		s-1.84,2.45-2.46,4.07c-0.62,1.62-0.93,3.5-0.93,5.64c0,2.24,0.31,4.19,0.93,5.86c0.62,1.66,1.45,3.04,2.48,4.13
		c1.03,1.09,2.22,1.91,3.56,2.45c1.35,0.54,2.75,0.81,4.22,0.81c1.39,0,2.73-0.27,4.04-0.81c1.3-0.54,2.47-1.36,3.5-2.45
		c1.03-1.09,1.85-2.45,2.46-4.07c0.61-1.62,0.92-3.51,0.92-5.67c0-2.24-0.31-4.19-0.92-5.86c-0.61-1.66-1.44-3.04-2.48-4.13
		c-1.04-1.09-2.23-1.91-3.56-2.45C307.69,285.89,306.29,285.62,304.83,285.62z M316.32,266.75l-13.58,7.22l-3.97-6.76l12.87-8.35
		L316.32,266.75z"/>
	<path class="st3" d="M383.5,277.02c0.63,3.96,1.18,7.79,1.65,11.5c0.47,3.71,0.86,7.35,1.18,10.93c0.32,3.58,0.57,7.11,0.75,10.6
		c0.18,3.49,0.33,6.96,0.43,10.43h-10.89c-0.1-2.83-0.23-5.65-0.37-8.46c-0.14-2.8-0.31-5.58-0.49-8.33
		c-0.18-2.75-0.4-5.47-0.65-8.15s-0.53-5.32-0.86-7.91l-8.68,32.84h-11.56l-8.65-32.9c-0.34,2.57-0.64,5.2-0.88,7.89
		c-0.24,2.69-0.46,5.42-0.65,8.18c-0.19,2.76-0.35,5.55-0.47,8.36c-0.12,2.81-0.23,5.64-0.33,8.47h-10.61
		c0.1-3.46,0.25-6.94,0.44-10.43c0.19-3.49,0.44-7.02,0.75-10.6c0.31-3.58,0.69-7.22,1.16-10.93c0.47-3.71,1.03-7.54,1.68-11.5
		h15.34l8.26,31.13l8.26-31.13H383.5z"/>
	<path class="st3" d="M405.37,320.47h-10.83v-43.45h10.83V320.47z"/>
	<path class="st3" d="M442.25,288.55c-1.22-1-2.56-1.76-4.02-2.29c-1.46-0.53-2.96-0.79-4.51-0.79c-1.51,0-2.91,0.28-4.21,0.84
		c-1.29,0.56-2.42,1.39-3.38,2.49s-1.72,2.47-2.28,4.11c-0.56,1.64-0.84,3.54-0.84,5.7c0,2.06,0.25,3.9,0.76,5.53
		c0.51,1.63,1.24,3.02,2.2,4.17c0.96,1.15,2.12,2.03,3.5,2.63c1.38,0.6,2.94,0.9,4.69,0.9c0.98,0,1.9-0.08,2.77-0.24
		c0.87-0.16,1.7-0.4,2.49-0.72c0.8-0.32,1.56-0.72,2.31-1.21c0.74-0.49,1.48-1.05,2.22-1.68l2.42,8.84
		c-1.94,1.39-4.04,2.46-6.3,3.21s-4.74,1.13-7.43,1.13c-3.12,0-5.95-0.51-8.5-1.54c-2.55-1.03-4.73-2.5-6.54-4.4
		s-3.22-4.22-4.2-6.96c-0.99-2.73-1.48-5.8-1.48-9.2c0-2.43,0.25-4.67,0.75-6.74c0.5-2.07,1.2-3.95,2.11-5.63
		c0.91-1.68,2-3.17,3.27-4.46s2.69-2.39,4.25-3.27s3.24-1.55,5.03-1.99c1.79-0.44,3.67-0.66,5.63-0.66c2.37,0,4.54,0.3,6.53,0.9
		c1.99,0.6,3.75,1.5,5.28,2.71L442.25,288.55z"/>
	<path class="st3" d="M470.99,276.32c1.9,0,3.76,0.21,5.58,0.63c1.82,0.42,3.54,1.05,5.15,1.88c1.61,0.84,3.09,1.87,4.45,3.1
		c1.36,1.23,2.53,2.67,3.52,4.31c0.99,1.64,1.75,3.48,2.29,5.5s0.81,4.26,0.81,6.68c0,2.51-0.28,4.81-0.83,6.91
		c-0.55,2.1-1.32,3.99-2.31,5.67c-0.99,1.68-2.18,3.16-3.56,4.43c-1.39,1.27-2.91,2.33-4.57,3.18c-1.66,0.85-3.44,1.48-5.32,1.91
		c-1.89,0.43-3.83,0.64-5.83,0.64c-1.9,0-3.76-0.21-5.58-0.64c-1.82-0.43-3.55-1.05-5.17-1.88c-1.62-0.83-3.11-1.85-4.46-3.09
		c-1.36-1.23-2.53-2.67-3.52-4.31c-0.99-1.64-1.76-3.47-2.31-5.5c-0.55-2.03-0.83-4.25-0.83-6.68c0-2.49,0.28-4.79,0.84-6.9
		c0.56-2.11,1.34-4.01,2.34-5.69s2.19-3.16,3.58-4.43c1.39-1.27,2.91-2.33,4.57-3.18c1.66-0.85,3.44-1.48,5.32-1.91
		C467.05,276.53,468.99,276.32,470.99,276.32z M470.56,285.62c-1.39,0-2.74,0.27-4.05,0.83c-1.32,0.55-2.48,1.37-3.5,2.46
		s-1.84,2.45-2.46,4.07c-0.62,1.62-0.93,3.5-0.93,5.64c0,2.24,0.31,4.19,0.93,5.86c0.62,1.66,1.45,3.04,2.48,4.13
		c1.03,1.09,2.22,1.91,3.56,2.45c1.35,0.54,2.75,0.81,4.22,0.81c1.39,0,2.73-0.27,4.04-0.81c1.3-0.54,2.47-1.36,3.5-2.45
		c1.03-1.09,1.85-2.45,2.46-4.07c0.61-1.62,0.92-3.51,0.92-5.67c0-2.24-0.31-4.19-0.92-5.86c-0.61-1.66-1.44-3.04-2.48-4.13
		c-1.04-1.09-2.23-1.91-3.56-2.45C473.43,285.89,472.03,285.62,470.56,285.62z"/>
</g>
<path class="st1" d="M176.02,391.65c-1.04,5.27-2.08,10.53-3.13,15.8c69.08,53.01,164.91,69.09,247.51,41.56
	c31.89-10.63,65.73-33.41,66.65-67.02c0.05-1.91-0.09-4.02-1.44-5.37c-2.53-2.53-6.78-0.48-9.71,1.58
	c-86,60.41-206.76,66.86-298.7,15.95c-2.56-1.42-6.19-2.71-8.04-0.44S173.46,398.08,176.02,391.65z"/>
<path class="st1" d="M170.92,427.48c-8.95,3.21-14.09,14.37-10.71,23.26c1.42,3.72,4.03,6.87,6.9,9.63
	c16.3,15.71,40.12,20.06,62.47,23.69c17,2.76,34.15,5.54,51.36,4.75c17.21-0.79,34.7-5.41,48.24-16.05
	C272.6,475.18,215.39,459.88,170.92,427.48z"/>
</svg>
