<?xml version="1.0" encoding="utf-8"?>
<!-- Generator: Adobe Adobe Illustrator 24.2.0, SVG Export Plug-In . SVG Version: 6.00 Build 0)  -->
<svg version="1.1" id="Layer_1" xmlns="http://www.w3.org/2000/svg" xmlns:xlink="http://www.w3.org/1999/xlink" x="0px" y="0px"
	 width="557.39px" height="584.57px" viewBox="0 0 557.39 584.57" style="enable-background:new 0 0 557.39 584.57;"
	 xml:space="preserve">
<style type="text/css">
	.st0{fill:#E30614;}
	.st1{fill:#FDE000;}
	.st2{fill:#EDE9E0;}
	.st3{fill:#053E61;}
	.st4{fill:#8F141C;}
	.st5{fill:#FC6900;}
	.st6{fill:#CCE70B;}
	.st7{fill:#41A0CB;}
	.st8{fill-rule:evenodd;clip-rule:evenodd;fill:#46A2DA;}
	.st9{fill-rule:evenodd;clip-rule:evenodd;fill:#E30614;}
	.st10{fill-rule:evenodd;clip-rule:evenodd;fill:#13110E;}
	.st11{fill-rule:evenodd;clip-rule:evenodd;fill:#FDE100;}
	.st12{fill-rule:evenodd;clip-rule:evenodd;fill:#17120F;}
	.st13{fill:#FFFFFF;}
	.st14{fill:#053E61;stroke:#FFFFFF;stroke-width:16;stroke-linecap:round;stroke-linejoin:round;stroke-miterlimit:10;}
	.st15{fill-rule:evenodd;clip-rule:evenodd;fill:#FDE000;}
	.st16{fill-rule:evenodd;clip-rule:evenodd;fill:#41A0CB;}
	.st17{fill-rule:evenodd;clip-rule:evenodd;fill:#EDE9E0;stroke:#053E61;stroke-width:21.3818;stroke-miterlimit:10;}
	.st18{fill:#053E61;stroke:#EDE9E0;stroke-width:20.8752;stroke-linecap:round;stroke-linejoin:round;stroke-miterlimit:10;}
	.st19{fill:#41A0CB;stroke:#EDE9E0;stroke-width:10.4376;stroke-miterlimit:10;}
</style>
<circle class="st17" cx="269.89" cy="309.1" r="259.2"/>
<g>
	<path class="st7" d="M283.02,529.59c-0.42,0-0.83-0.05-1.25-0.15c-1.59-0.39-2.9-1.5-3.55-3
		c-22.19-51.48-70.34-94.03-147.19-130.06c-18.8-8.82-43.43-18.93-67.24-18.93c-9.18,0-17.81,1.53-25.66,4.55l-1.07,0.42
		c-3,1.17-6.39,2.51-10.18,2.51c-1.01,0-2.02-0.1-2.98-0.29c-10.11-2.04-15-13.37-12.45-28.87c9.56-58.28,31.41-115.4,63.19-165.18
		c3.2-5.01,6.79-10.15,12.42-13.13c3.33-1.76,7.2-2.66,11.49-2.66c5.02,0,10.06,1.2,14.32,2.38c24.66,6.8,56.92,16.35,87.69,29.96
		c30.03,13.29,53.35,28.03,71.02,44.92c24.47-57.33,82.71-92.02,131.33-101.19c2.56-0.48,5.32-0.93,8.17-0.93
		c2.73,0,5.15,0.41,7.39,1.25c8.84,3.3,12.92,12.63,15.36,18.2l85.55,195.58c17.05,38.99,8.06,57.29-2.49,65.77
		c-10.37,8.34-24.06,8.37-36.15,8.39c-1.25,0-2.48,0.01-3.71,0.02c-71.85,0.68-136.73,45.52-190.72,89.29
		C285.37,529.19,284.21,529.59,283.02,529.59z"/>
	<path class="st2" d="M411.08,155.14c1.9,0,3.78,0.25,5.57,0.92c6.36,2.37,9.69,9.19,12.4,15.41
		c28.52,65.19,57.03,130.38,85.55,195.58c8.6,19.66,15.74,46.17-0.98,59.61c-9.91,7.97-23.93,7.14-36.64,7.26
		c-72.75,0.69-137.44,44.64-193.95,90.46c-27.01-62.65-87.99-103.75-149.77-132.72c-21.78-10.21-45.97-19.43-69.46-19.43
		c-9.35,0-18.59,1.46-27.53,4.9c-3.04,1.17-6.2,2.58-9.38,2.58c-0.65,0-1.3-0.06-1.95-0.19c-8.85-1.78-9.8-14-8.34-22.91
		c9.5-57.88,30.88-113.78,62.44-163.22c2.8-4.38,5.86-8.89,10.46-11.33c2.81-1.49,5.89-2.05,9.05-2.05c4.3,0,8.76,1.04,12.93,2.19
		c55.12,15.2,122.77,37.62,162.02,79.2c20.46-56.51,77.21-95.38,130.37-105.4C406.24,155.54,408.68,155.14,411.08,155.14
		 M411.08,144.71c-3.28,0-6.33,0.49-9.13,1.02c-28.65,5.4-57.72,18.63-81.88,37.26c-21.99,16.95-39.13,37.6-50.23,60.38
		c-17.37-15.28-39.49-28.77-67.15-41.01c-31.08-13.75-63.57-23.37-88.41-30.22c-4.6-1.27-10.06-2.56-15.71-2.56
		c-5.16,0-9.84,1.1-13.94,3.26c-6.75,3.57-10.8,9.34-14.38,14.94C38.09,238.14,15.98,295.93,6.31,354.91
		c-0.63,3.82-1.39,11.29,0.51,18.48c2.32,8.8,8.18,14.76,16.07,16.35c1.3,0.26,2.65,0.4,4.01,0.4c4.78,0,8.83-1.59,12.09-2.87
		c0.35-0.14,0.69-0.27,1.04-0.4c7.35-2.83,15.13-4.2,23.78-4.2c22.78,0,46.72,9.85,65.03,18.44
		c75.65,35.47,122.95,77.14,144.61,127.4c1.29,3,3.92,5.22,7.09,6c0.82,0.2,1.66,0.3,2.49,0.3c2.37,0,4.69-0.81,6.57-2.33
		c23.48-19.04,54.83-43.18,89.13-61c34.55-17.95,66.72-26.83,98.35-27.13c1.21-0.01,2.44-0.01,3.67-0.02
		c12.94-0.03,27.61-0.06,39.41-9.55c11.97-9.62,22.38-29.91,4-71.93l-42.77-97.79l-42.77-97.79c-2.59-5.92-7.4-16.93-18.32-21
		C417.46,145.22,414.44,144.71,411.08,144.71L411.08,144.71z"/>
</g>
<g>
	<path class="st18" d="M128.46,301.46h-15.84v8.17h14.8v8.93h-14.8v8.5h15.84v8.93H101.8v-43.45h26.67V301.46z"/>
	<path class="st18" d="M135.25,292.53c0.94-0.04,1.81-0.08,2.63-0.12s1.61-0.07,2.37-0.09c0.76-0.02,1.54-0.04,2.34-0.05
		c0.79-0.01,1.63-0.02,2.51-0.02c4.5,0,8.52,0.48,12.03,1.45c3.52,0.97,6.48,2.37,8.9,4.21c2.42,1.83,4.26,4.07,5.52,6.7
		s1.9,5.62,1.9,8.96c0,3.57-0.66,6.75-1.97,9.56c-1.31,2.8-3.2,5.18-5.64,7.12c-2.45,1.95-5.42,3.43-8.93,4.45
		c-3.51,1.02-7.46,1.53-11.86,1.53c-0.9,0-1.73-0.01-2.51-0.02c-0.77-0.01-1.55-0.03-2.32-0.05c-0.78-0.02-1.56-0.05-2.35-0.08
		c-0.8-0.03-1.66-0.07-2.6-0.11V292.53z M146.07,326.94c0.24,0,0.48,0,0.72,0c0.23,0,0.49,0,0.75,0c2.27,0,4.31-0.3,6.14-0.89
		c1.83-0.59,3.38-1.44,4.66-2.54c1.28-1.1,2.26-2.46,2.94-4.07c0.68-1.61,1.03-3.45,1.03-5.5c0-1.96-0.33-3.71-0.98-5.24
		s-1.61-2.83-2.87-3.88s-2.81-1.85-4.66-2.4c-1.85-0.55-3.96-0.83-6.33-0.83c-0.25,0-0.49,0-0.72,0s-0.46,0-0.69,0V326.94z"/>
	<path class="st18" d="M214.63,319.72c0,2.67-0.41,5.06-1.24,7.16c-0.83,2.1-2.01,3.88-3.56,5.34c-1.55,1.46-3.44,2.57-5.67,3.33
		s-4.77,1.15-7.6,1.15c-2.69,0-5.11-0.37-7.26-1.1c-2.15-0.73-3.97-1.81-5.46-3.23c-1.49-1.42-2.64-3.14-3.44-5.18
		c-0.81-2.04-1.21-4.37-1.21-7v-27.64h10.83v27.28c0,1.35,0.18,2.5,0.54,3.46c0.36,0.96,0.85,1.74,1.49,2.35
		c0.63,0.61,1.38,1.06,2.24,1.33c0.86,0.28,1.79,0.41,2.79,0.41s1.93-0.14,2.79-0.41c0.86-0.27,1.6-0.71,2.24-1.3
		c0.63-0.59,1.13-1.33,1.49-2.22s0.54-1.94,0.54-3.17v-27.73h10.52V319.72z"/>
	<path class="st18" d="M250.84,304.06c-1.22-1-2.56-1.76-4.02-2.29c-1.46-0.53-2.96-0.79-4.51-0.79c-1.51,0-2.91,0.28-4.21,0.84
		c-1.29,0.56-2.42,1.39-3.38,2.49s-1.72,2.47-2.28,4.11c-0.56,1.64-0.84,3.54-0.84,5.7c0,2.06,0.25,3.9,0.76,5.53
		c0.51,1.63,1.24,3.02,2.2,4.17c0.96,1.15,2.12,2.03,3.5,2.63c1.38,0.6,2.94,0.9,4.69,0.9c0.98,0,1.9-0.08,2.77-0.24
		c0.87-0.16,1.7-0.4,2.49-0.72c0.8-0.32,1.56-0.72,2.31-1.21c0.74-0.49,1.48-1.05,2.22-1.68l2.42,8.84
		c-1.94,1.39-4.04,2.46-6.3,3.21s-4.74,1.13-7.43,1.13c-3.12,0-5.95-0.51-8.5-1.54c-2.55-1.03-4.73-2.5-6.54-4.4
		s-3.22-4.22-4.2-6.96c-0.99-2.73-1.48-5.8-1.48-9.2c0-2.43,0.25-4.67,0.75-6.74c0.5-2.07,1.2-3.95,2.11-5.63
		c0.91-1.68,2-3.17,3.27-4.46s2.69-2.39,4.25-3.27s3.24-1.55,5.03-1.99c1.79-0.44,3.67-0.66,5.63-0.66c2.37,0,4.54,0.3,6.53,0.9
		c1.99,0.6,3.75,1.5,5.28,2.71L250.84,304.06z"/>
	<path class="st18" d="M283.27,292.53c2.77,7.16,5.25,14.4,7.42,21.73c2.17,7.33,3.92,14.57,5.25,21.73h-11.13
		c-0.22-1.26-0.46-2.55-0.71-3.85s-0.51-2.6-0.8-3.88H269.4c-0.29,1.33-0.55,2.63-0.8,3.91s-0.48,2.56-0.7,3.82h-10.83
		c1.32-7.16,3.08-14.4,5.27-21.73c2.19-7.33,4.66-14.57,7.41-21.73H283.27z M281.35,319.66c-0.71-2.75-1.49-5.48-2.33-8.18
		c-0.84-2.7-1.73-5.37-2.67-8c-0.94,2.63-1.83,5.29-2.68,8s-1.63,5.43-2.34,8.18H281.35z"/>
	<path class="st18" d="M328.39,304.06c-1.22-1-2.56-1.76-4.02-2.29c-1.46-0.53-2.96-0.79-4.51-0.79c-1.51,0-2.91,0.28-4.21,0.84
		c-1.29,0.56-2.42,1.39-3.38,2.49s-1.72,2.47-2.28,4.11c-0.56,1.64-0.84,3.54-0.84,5.7c0,2.06,0.25,3.9,0.76,5.53
		c0.51,1.63,1.24,3.02,2.2,4.17c0.96,1.15,2.12,2.03,3.5,2.63c1.38,0.6,2.94,0.9,4.69,0.9c0.98,0,1.9-0.08,2.77-0.24
		c0.87-0.16,1.7-0.4,2.49-0.72c0.8-0.32,1.56-0.72,2.31-1.21c0.74-0.49,1.48-1.05,2.22-1.68l2.42,8.84
		c-1.94,1.39-4.04,2.46-6.3,3.21s-4.74,1.13-7.43,1.13c-3.12,0-5.95-0.51-8.5-1.54c-2.55-1.03-4.73-2.5-6.54-4.4
		s-3.22-4.22-4.2-6.96c-0.99-2.73-1.48-5.8-1.48-9.2c0-2.43,0.25-4.67,0.75-6.74c0.5-2.07,1.2-3.95,2.11-5.63
		c0.91-1.68,2-3.17,3.27-4.46s2.69-2.39,4.25-3.27s3.24-1.55,5.03-1.99c1.79-0.44,3.67-0.66,5.63-0.66c2.37,0,4.54,0.3,6.53,0.9
		c1.99,0.6,3.75,1.5,5.28,2.71L328.39,304.06z"/>
	<path class="st18" d="M347.99,335.99h-10.83v-43.45h10.83V335.99z"/>
	<path class="st18" d="M377.01,291.83c1.9,0,3.76,0.21,5.58,0.63c1.82,0.42,3.54,1.05,5.15,1.88c1.61,0.84,3.09,1.87,4.45,3.1
		c1.36,1.23,2.53,2.67,3.52,4.31c0.99,1.64,1.75,3.48,2.29,5.5s0.81,4.26,0.81,6.68c0,2.51-0.28,4.81-0.83,6.91
		c-0.55,2.1-1.32,3.99-2.31,5.67c-0.99,1.68-2.18,3.16-3.56,4.43c-1.39,1.27-2.91,2.33-4.57,3.18c-1.66,0.85-3.44,1.48-5.32,1.91
		c-1.89,0.43-3.83,0.64-5.83,0.64c-1.9,0-3.76-0.21-5.58-0.64c-1.82-0.43-3.55-1.05-5.17-1.88c-1.62-0.83-3.11-1.85-4.46-3.09
		c-1.36-1.23-2.53-2.67-3.52-4.31c-0.99-1.64-1.76-3.47-2.31-5.5c-0.55-2.03-0.83-4.25-0.83-6.68c0-2.49,0.28-4.79,0.84-6.9
		c0.56-2.11,1.34-4.01,2.34-5.69s2.19-3.16,3.58-4.43c1.39-1.27,2.91-2.33,4.57-3.18c1.66-0.85,3.44-1.48,5.32-1.91
		C373.07,292.04,375.01,291.83,377.01,291.83z M376.58,301.13c-1.39,0-2.74,0.27-4.05,0.83c-1.32,0.55-2.48,1.37-3.5,2.46
		s-1.84,2.45-2.46,4.07c-0.62,1.62-0.93,3.5-0.93,5.64c0,2.24,0.31,4.19,0.93,5.86c0.62,1.66,1.45,3.04,2.48,4.13
		c1.03,1.09,2.22,1.91,3.56,2.45c1.35,0.54,2.75,0.81,4.22,0.81c1.39,0,2.73-0.27,4.04-0.81c1.3-0.54,2.47-1.36,3.5-2.45
		c1.03-1.09,1.85-2.45,2.46-4.07c0.61-1.62,0.92-3.51,0.92-5.67c0-2.24-0.31-4.19-0.92-5.86c-0.61-1.66-1.44-3.04-2.48-4.13
		c-1.04-1.09-2.23-1.91-3.56-2.45C379.45,301.4,378.05,301.13,376.58,301.13z M388.08,282.26l-13.58,7.22l-3.97-6.76l12.87-8.35
		L388.08,282.26z"/>
	<path class="st18" d="M445.23,335.99h-13.24l-14.1-23.76c-0.57-1-1.09-1.98-1.54-2.94c-0.46-0.96-0.87-1.93-1.24-2.91
		c0.08,0.98,0.15,1.95,0.2,2.92c0.05,0.97,0.08,1.94,0.08,2.92v23.76h-9.97v-43.45h13.24l14.1,23.76c0.59,0.98,1.11,1.95,1.56,2.91
		c0.45,0.96,0.86,1.92,1.22,2.87c-0.08-0.96-0.15-1.93-0.2-2.91c-0.05-0.98-0.08-1.94-0.08-2.87v-23.76h9.97V335.99z"/>
</g>
<g>
	<path class="st3" d="M128.46,301.46h-15.84v8.17h14.8v8.93h-14.8v8.5h15.84v8.93H101.8v-43.45h26.67V301.46z"/>
	<path class="st3" d="M135.25,292.53c0.94-0.04,1.81-0.08,2.63-0.12s1.61-0.07,2.37-0.09c0.76-0.02,1.54-0.04,2.34-0.05
		c0.79-0.01,1.63-0.02,2.51-0.02c4.5,0,8.52,0.48,12.03,1.45c3.52,0.97,6.48,2.37,8.9,4.21c2.42,1.83,4.26,4.07,5.52,6.7
		s1.9,5.62,1.9,8.96c0,3.57-0.66,6.75-1.97,9.56c-1.31,2.8-3.2,5.18-5.64,7.12c-2.45,1.95-5.42,3.43-8.93,4.45
		c-3.51,1.02-7.46,1.53-11.86,1.53c-0.9,0-1.73-0.01-2.51-0.02c-0.77-0.01-1.55-0.03-2.32-0.05c-0.78-0.02-1.56-0.05-2.35-0.08
		c-0.8-0.03-1.66-0.07-2.6-0.11V292.53z M146.07,326.94c0.24,0,0.48,0,0.72,0c0.23,0,0.49,0,0.75,0c2.27,0,4.31-0.3,6.14-0.89
		c1.83-0.59,3.38-1.44,4.66-2.54c1.28-1.1,2.26-2.46,2.94-4.07c0.68-1.61,1.03-3.45,1.03-5.5c0-1.96-0.33-3.71-0.98-5.24
		s-1.61-2.83-2.87-3.88s-2.81-1.85-4.66-2.4c-1.85-0.55-3.96-0.83-6.33-0.83c-0.25,0-0.49,0-0.72,0s-0.46,0-0.69,0V326.94z"/>
	<path class="st3" d="M214.63,319.72c0,2.67-0.41,5.06-1.24,7.16c-0.83,2.1-2.01,3.88-3.56,5.34c-1.55,1.46-3.44,2.57-5.67,3.33
		s-4.77,1.15-7.6,1.15c-2.69,0-5.11-0.37-7.26-1.1c-2.15-0.73-3.97-1.81-5.46-3.23c-1.49-1.42-2.64-3.14-3.44-5.18
		c-0.81-2.04-1.21-4.37-1.21-7v-27.64h10.83v27.28c0,1.35,0.18,2.5,0.54,3.46c0.36,0.96,0.85,1.74,1.49,2.35
		c0.63,0.61,1.38,1.06,2.24,1.33c0.86,0.28,1.79,0.41,2.79,0.41s1.93-0.14,2.79-0.41c0.86-0.27,1.6-0.71,2.24-1.3
		c0.63-0.59,1.13-1.33,1.49-2.22s0.54-1.94,0.54-3.17v-27.73h10.52V319.72z"/>
	<path class="st3" d="M250.84,304.06c-1.22-1-2.56-1.76-4.02-2.29c-1.46-0.53-2.96-0.79-4.51-0.79c-1.51,0-2.91,0.28-4.21,0.84
		c-1.29,0.56-2.42,1.39-3.38,2.49s-1.72,2.47-2.28,4.11c-0.56,1.64-0.84,3.54-0.84,5.7c0,2.06,0.25,3.9,0.76,5.53
		c0.51,1.63,1.24,3.02,2.2,4.17c0.96,1.15,2.12,2.03,3.5,2.63c1.38,0.6,2.94,0.9,4.69,0.9c0.98,0,1.9-0.08,2.77-0.24
		c0.87-0.16,1.7-0.4,2.49-0.72c0.8-0.32,1.56-0.72,2.31-1.21c0.74-0.49,1.48-1.05,2.22-1.68l2.42,8.84
		c-1.94,1.39-4.04,2.46-6.3,3.21s-4.74,1.13-7.43,1.13c-3.12,0-5.95-0.51-8.5-1.54c-2.55-1.03-4.73-2.5-6.54-4.4
		s-3.22-4.22-4.2-6.96c-0.99-2.73-1.48-5.8-1.48-9.2c0-2.43,0.25-4.67,0.75-6.74c0.5-2.07,1.2-3.95,2.11-5.63
		c0.91-1.68,2-3.17,3.27-4.46s2.69-2.39,4.25-3.27s3.24-1.55,5.03-1.99c1.79-0.44,3.67-0.66,5.63-0.66c2.37,0,4.54,0.3,6.53,0.9
		c1.99,0.6,3.75,1.5,5.28,2.71L250.84,304.06z"/>
	<path class="st3" d="M283.27,292.53c2.77,7.16,5.25,14.4,7.42,21.73c2.17,7.33,3.92,14.57,5.25,21.73h-11.13
		c-0.22-1.26-0.46-2.55-0.71-3.85s-0.51-2.6-0.8-3.88H269.4c-0.29,1.33-0.55,2.63-0.8,3.91s-0.48,2.56-0.7,3.82h-10.83
		c1.32-7.16,3.08-14.4,5.27-21.73c2.19-7.33,4.66-14.57,7.41-21.73H283.27z M281.35,319.66c-0.71-2.75-1.49-5.48-2.33-8.18
		c-0.84-2.7-1.73-5.37-2.67-8c-0.94,2.63-1.83,5.29-2.68,8s-1.63,5.43-2.34,8.18H281.35z"/>
	<path class="st3" d="M328.39,304.06c-1.22-1-2.56-1.76-4.02-2.29c-1.46-0.53-2.96-0.79-4.51-0.79c-1.51,0-2.91,0.28-4.21,0.84
		c-1.29,0.56-2.42,1.39-3.38,2.49s-1.72,2.47-2.28,4.11c-0.56,1.64-0.84,3.54-0.84,5.7c0,2.06,0.25,3.9,0.76,5.53
		c0.51,1.63,1.24,3.02,2.2,4.17c0.96,1.15,2.12,2.03,3.5,2.63c1.38,0.6,2.94,0.9,4.69,0.9c0.98,0,1.9-0.08,2.77-0.24
		c0.87-0.16,1.7-0.4,2.49-0.72c0.8-0.32,1.56-0.72,2.31-1.21c0.74-0.49,1.48-1.05,2.22-1.68l2.42,8.84
		c-1.94,1.39-4.04,2.46-6.3,3.21s-4.74,1.13-7.43,1.13c-3.12,0-5.95-0.51-8.5-1.54c-2.55-1.03-4.73-2.5-6.54-4.4
		s-3.22-4.22-4.2-6.96c-0.99-2.73-1.48-5.8-1.48-9.2c0-2.43,0.25-4.67,0.75-6.74c0.5-2.07,1.2-3.95,2.11-5.63
		c0.91-1.68,2-3.17,3.27-4.46s2.69-2.39,4.25-3.27s3.24-1.55,5.03-1.99c1.79-0.44,3.67-0.66,5.63-0.66c2.37,0,4.54,0.3,6.53,0.9
		c1.99,0.6,3.75,1.5,5.28,2.71L328.39,304.06z"/>
	<path class="st3" d="M347.99,335.99h-10.83v-43.45h10.83V335.99z"/>
	<path class="st3" d="M377.01,291.83c1.9,0,3.76,0.21,5.58,0.63c1.82,0.42,3.54,1.05,5.15,1.88c1.61,0.84,3.09,1.87,4.45,3.1
		c1.36,1.23,2.53,2.67,3.52,4.31c0.99,1.64,1.75,3.48,2.29,5.5s0.81,4.26,0.81,6.68c0,2.51-0.28,4.81-0.83,6.91
		c-0.55,2.1-1.32,3.99-2.31,5.67c-0.99,1.68-2.18,3.16-3.56,4.43c-1.39,1.27-2.91,2.33-4.57,3.18c-1.66,0.85-3.44,1.48-5.32,1.91
		c-1.89,0.43-3.83,0.64-5.83,0.64c-1.9,0-3.76-0.21-5.58-0.64c-1.82-0.43-3.55-1.05-5.17-1.88c-1.62-0.83-3.11-1.85-4.46-3.09
		c-1.36-1.23-2.53-2.67-3.52-4.31c-0.99-1.64-1.76-3.47-2.31-5.5c-0.55-2.03-0.83-4.25-0.83-6.68c0-2.49,0.28-4.79,0.84-6.9
		c0.56-2.11,1.34-4.01,2.34-5.69s2.19-3.16,3.58-4.43c1.39-1.27,2.91-2.33,4.57-3.18c1.66-0.85,3.44-1.48,5.32-1.91
		C373.07,292.04,375.01,291.83,377.01,291.83z M376.58,301.13c-1.39,0-2.74,0.27-4.05,0.83c-1.32,0.55-2.48,1.37-3.5,2.46
		s-1.84,2.45-2.46,4.07c-0.62,1.62-0.93,3.5-0.93,5.64c0,2.24,0.31,4.19,0.93,5.86c0.62,1.66,1.45,3.04,2.48,4.13
		c1.03,1.09,2.22,1.91,3.56,2.45c1.35,0.54,2.75,0.81,4.22,0.81c1.39,0,2.73-0.27,4.04-0.81c1.3-0.54,2.47-1.36,3.5-2.45
		c1.03-1.09,1.85-2.45,2.46-4.07c0.61-1.62,0.92-3.51,0.92-5.67c0-2.24-0.31-4.19-0.92-5.86c-0.61-1.66-1.44-3.04-2.48-4.13
		c-1.04-1.09-2.23-1.91-3.56-2.45C379.45,301.4,378.05,301.13,376.58,301.13z M388.08,282.26l-13.58,7.22l-3.97-6.76l12.87-8.35
		L388.08,282.26z"/>
	<path class="st3" d="M445.23,335.99h-13.24l-14.1-23.76c-0.57-1-1.09-1.98-1.54-2.94c-0.46-0.96-0.87-1.93-1.24-2.91
		c0.08,0.98,0.15,1.95,0.2,2.92c0.05,0.97,0.08,1.94,0.08,2.92v23.76h-9.97v-43.45h13.24l14.1,23.76c0.59,0.98,1.11,1.95,1.56,2.91
		c0.45,0.96,0.86,1.92,1.22,2.87c-0.08-0.96-0.15-1.93-0.2-2.91c-0.05-0.98-0.08-1.94-0.08-2.87v-23.76h9.97V335.99z"/>
</g>
<g>
	<path class="st0" d="M269.3,251.42c-1.25,0-2.49-0.45-3.47-1.32c-8.59-7.63-13.35-18-13.77-29.98
		c-0.37-10.43,2.64-21.36,8.46-30.79c10.52-17.03,27.27-28.39,44.96-39.47l1.39-0.87c15.47-9.68,31.46-19.69,41.8-34.13
		c4.54-6.34,9.22-9.55,13.91-9.55c1.9,0,3.7,0.52,5.36,1.56c1.72,1.08,3.13,2.67,4.31,4.89c7.4,13.82-1.66,30.09-13.92,40.08
		c-10.27,8.37-22.06,14.35-33.47,20.14c-3.96,2.01-8.05,4.08-11.97,6.21c-11.55,6.26-27.82,16.37-35.64,31.78
		c-5.4,10.64-6.48,23.29-2.96,34.69c0.69,2.24-0.19,4.66-2.16,5.93C271.25,251.15,270.27,251.42,269.3,251.42z"/>
	<path class="st2" d="M362.57,110.53c0.87,0,1.74,0.23,2.59,0.76c1.1,0.69,1.87,1.78,2.48,2.92c6.13,11.45-2.55,25.37-12.62,33.57
		c-13.35,10.88-29.5,17.6-44.63,25.81c-15.14,8.21-30.01,18.65-37.8,34.01c-5.99,11.8-7.19,25.94-3.29,38.59
		c-16.11-14.32-14.5-37.67-4.34-54.12c10.16-16.45,26.91-27.53,43.29-37.79s33.4-20.67,44.66-36.38
		C355.32,114.53,358.96,110.53,362.57,110.53 M362.57,100.1c-6.47,0-12.58,3.95-18.15,11.73c-9.74,13.6-25.29,23.33-40.33,32.75
		l-1.39,0.87c-18.23,11.42-35.52,23.16-46.63,41.15c-6.36,10.29-9.63,22.26-9.23,33.71c0.47,13.44,5.84,25.09,15.52,33.69
		c1.96,1.74,4.44,2.64,6.94,2.64c1.95,0,3.92-0.55,5.65-1.66c3.94-2.53,5.71-7.38,4.33-11.86c-3.12-10.12-2.17-21.34,2.63-30.79
		c3.43-6.76,10.63-17.18,33.47-29.56c3.86-2.09,7.92-4.15,11.85-6.15c11.65-5.91,23.7-12.02,34.4-20.75
		c13.92-11.34,24.02-30.15,15.23-46.59c-1.63-3.04-3.64-5.28-6.15-6.85C368.24,100.91,365.43,100.1,362.57,100.1L362.57,100.1z"/>
</g>
<g>
	<path class="st1" d="M294.03,534.39c-1.39,0-2.76-0.56-3.77-1.61c-1.55-1.62-1.9-4.05-0.85-6.04
		c10.94-20.8,34.26-31.58,51.29-39.44c34.62-15.99,73.86-34.12,115.16-36.87c2.28-0.15,4.55-0.23,6.75-0.23
		c19.86,0,34.44,6.13,42.17,17.74c2.29,3.45,3.39,6.69,3.36,9.91c-0.1,9.91-9.68,16.06-24.99,16.06c-0.42,0-0.84,0-1.26-0.02
		c-3.16-0.08-6.36-0.12-9.53-0.12c-59.68,0-120.58,13.87-176.09,40.12C295.55,534.23,294.79,534.39,294.03,534.39z"/>
	<path class="st2" d="M462.61,455.42c14.61,0,29.93,3.56,37.82,15.41c1.39,2.08,2.51,4.46,2.48,6.96
		c-0.09,8.43-11.11,10.89-19.77,10.89c-0.38,0-0.76,0-1.13-0.01c-3.22-0.08-6.44-0.12-9.66-0.12c-61.65,0-123.27,14.59-178.33,40.62
		c9.71-18.45,29.93-28.39,48.86-37.13c36.23-16.74,73.49-33.75,113.32-36.4C458.3,455.5,460.45,455.42,462.61,455.42 M462.61,444.98
		c-2.31,0-4.7,0.08-7.09,0.24c-42.27,2.82-81.97,21.16-117,37.34c-17.7,8.18-41.95,19.38-53.72,41.75c-2.09,3.97-1.4,8.84,1.7,12.08
		c2.01,2.1,4.76,3.22,7.54,3.22c1.51,0,3.03-0.33,4.46-1c54.83-25.92,114.95-39.62,173.87-39.62c3.13,0,6.29,0.04,9.4,0.12
		c0.46,0.01,0.92,0.02,1.39,0.02c18.22,0,30.07-8.33,30.21-21.22c0.04-4.31-1.34-8.51-4.23-12.86
		C500.37,451.92,484.29,444.98,462.61,444.98L462.61,444.98z"/>
</g>
<g>
	<path class="st1" d="M455.27,579.09c-5.63,0-10.22-3.5-13.57-6.05c-29.48-22.48-66.61-34.86-104.55-34.86
		c-12.46,0-24.81,1.36-36.71,4.05c-0.38,0.09-0.77,0.13-1.15,0.13c-2.12,0-4.08-1.3-4.87-3.34c-0.93-2.42,0.05-5.15,2.31-6.42
		c20.69-11.65,44.85-17.81,69.88-17.81c31.9,0,63.39,9.98,88.65,28.11c5.28,3.79,10.97,8.61,13.13,15.65
		c1.41,4.61,0.69,10.02-1.89,14.12c-2.19,3.47-5.46,5.7-9.23,6.27C456.61,579.04,455.94,579.09,455.27,579.09
		C455.27,579.09,455.27,579.09,455.27,579.09z"/>
	<path class="st2" d="M366.62,520c30.28,0,60.77,9.31,85.6,27.13c4.72,3.39,9.48,7.39,11.19,12.95c1.7,5.55-1.18,12.83-6.92,13.7
		c-0.41,0.06-0.82,0.09-1.22,0.09c-3.8,0-7.29-2.61-10.4-4.98c-30.65-23.37-69.2-35.93-107.71-35.93c-12.72,0-25.44,1.37-37.86,4.17
		C319.8,525.59,343.15,520,366.62,520 M366.62,509.56c-25.93,0-50.98,6.39-72.44,18.48c-4.51,2.54-6.48,8.01-4.62,12.84
		c1.58,4.1,5.5,6.69,9.74,6.69c0.76,0,1.53-0.08,2.3-0.26c11.52-2.6,23.48-3.92,35.56-3.92c36.8,0,72.81,12,101.38,33.79
		c3.72,2.83,9.33,7.12,16.73,7.12c0.93,0,1.87-0.07,2.78-0.21c5.29-0.8,9.87-3.88,12.87-8.66c3.42-5.43,4.34-12.32,2.46-18.43
		c-2.62-8.52-9.09-14.06-15.08-18.36C432.17,519.89,399.61,509.56,366.62,509.56L366.62,509.56z"/>
</g>
<g>
	<path class="st1" d="M269.89,525.94c-1.06,0-2.12-0.32-3.03-0.97c-52.81-37.69-113.53-62.68-175.59-72.27
		c-4.49-0.69-15.48-3.07-20.58-10.14c-2.2-3.05-3.03-6.61-2.41-10.3c0.54-3.18,2.2-6.17,5.06-9.16c7.22-7.51,17.5-11.32,30.55-11.32
		c6.4,0,13.36,0.93,20.69,2.76c40.16,10.03,75.56,34.83,106.8,56.7c15.36,10.76,36.4,25.49,43.48,47.91
		c0.68,2.14-0.09,4.47-1.91,5.79C272.04,525.61,270.97,525.94,269.89,525.94z"/>
	<path class="st2" d="M103.9,417c6.52,0,13.22,1.05,19.42,2.6c38.72,9.67,72.38,33.02,105.07,55.91
		c17.08,11.96,35.22,25.32,41.5,45.2c-52.16-37.22-113.71-63.27-177.83-73.18c-8.7-1.34-20.11-5.73-18.64-14.41
		c0.42-2.47,1.95-4.61,3.68-6.41C84,419.55,93.75,417,103.9,417 M103.9,406.57c-14.53,0-26.07,4.35-34.32,12.92
		c-3.62,3.76-5.73,7.66-6.45,11.9c-0.86,5.09,0.29,10.01,3.32,14.22c6.03,8.36,17.63,11.26,24.01,12.25
		c61.26,9.47,121.21,34.14,173.36,71.36c1.81,1.29,3.94,1.94,6.06,1.94c2.15,0,4.31-0.67,6.14-1.99c3.63-2.64,5.17-7.31,3.82-11.59
		c-7.61-24.1-29.49-39.42-45.46-50.61c-31.61-22.14-67.43-47.22-108.53-57.49C118.11,407.55,110.72,406.57,103.9,406.57
		L103.9,406.57z"/>
</g>
<g>
	<path class="st1" d="M104.85,541.49c-1.54,0-3.03-0.24-4.43-0.72c-3.61-1.23-6.44-4-7.98-7.81c-1.81-4.5-1.57-9.95,0.64-14.23
		c3.37-6.54,9.83-10.28,15.7-13.08c19.79-9.42,42.19-14.4,64.78-14.4c34.79,0,67.84,11.49,93.06,32.36c2,1.65,2.48,4.52,1.13,6.73
		c-0.97,1.6-2.69,2.51-4.46,2.51c-0.68,0-1.37-0.13-2.03-0.41c-20.48-8.66-43.43-13.24-66.37-13.24c-27.43,0-54.45,6.41-78.11,18.53
		C113.68,539.31,109.43,541.49,104.85,541.49z"/>
	<path class="st2" d="M173.56,496.47c32.45,0,64.75,10.49,89.73,31.16c-21.57-9.13-44.98-13.65-68.4-13.65
		c-27.85,0-55.7,6.4-80.49,19.1c-3,1.54-6.31,3.19-9.56,3.19c-0.92,0-1.84-0.13-2.75-0.44c-5.5-1.87-7.04-9.55-4.38-14.71
		c2.66-5.16,8.06-8.26,13.3-10.76C130.54,501.07,152.08,496.47,173.56,496.47 M173.56,486.03L173.56,486.03
		c-23.37,0-46.55,5.15-67.03,14.9c-6.66,3.17-14.01,7.48-18.1,15.4c-2.93,5.68-3.24,12.62-0.84,18.57
		c2.11,5.24,6.06,9.07,11.13,10.8c1.95,0.66,4.01,1,6.12,1c5.84,0,10.74-2.51,14.31-4.34c22.94-11.75,49.12-17.95,75.74-17.95
		c22.24,0,44.49,4.44,64.33,12.83c1.32,0.56,2.7,0.83,4.06,0.83c3.55,0,6.98-1.82,8.93-5.02c2.69-4.43,1.72-10.16-2.27-13.46
		C243.79,497.95,209.56,486.03,173.56,486.03L173.56,486.03z"/>
</g>
<g>
	<path class="st0" d="M248.73,198.12c-0.35,0-0.71-0.04-1.06-0.11c-2.25-0.47-3.93-2.35-4.14-4.63
		c-1.39-15.06,4.29-31.48,16.87-48.8c3.65-5.02,7.6-9.86,11.43-14.55c6.56-8.04,12.76-15.63,17.67-24.18
		c6.83-11.91,10.87-25.44,11.66-39.14c0.94-16.23-4.62-35.2-19.17-40.96l-0.5-0.2c-2.11-0.82-5.29-2.05-7.11-5.26
		c-1.39-2.45-1.52-5.43-0.37-8.18c1.33-3.14,4.17-5.62,7.42-6.47c1.07-0.28,2.2-0.42,3.35-0.42c3.49,0,6.7,1.31,9.11,2.45
		c21.09,10,36.98,30.44,41.47,53.35s-2.52,47.83-18.28,65.05c-5.64,6.16-12.19,11.24-18.52,16.15c-3.34,2.59-6.79,5.26-9.98,8.01
		c-13.19,11.35-25.05,26.55-35.26,45.19C252.38,197.1,250.61,198.12,248.73,198.12z"/>
	<path class="st2" d="M284.77,10.44c2.34,0,4.71,0.93,6.87,1.95c19.64,9.31,34.4,28.3,38.58,49.63
		c4.18,21.33-2.33,44.49-17.01,60.52c-8.28,9.04-18.76,15.73-28.06,23.73C270,159.32,257.99,176,248.73,192.9
		c-1.5-16.28,6.29-32.03,15.89-45.26c9.61-13.23,21.26-25.02,29.4-39.19c7.24-12.61,11.5-26.92,12.35-41.44
		c1.06-18.26-5.46-39.38-22.46-46.12c-1.88-0.74-4-1.43-5-3.18c-1.52-2.68,0.85-6.25,3.84-7.03
		C283.42,10.52,284.09,10.44,284.77,10.44 M284.77,0c-1.59,0-3.17,0.2-4.67,0.59c-4.86,1.27-8.94,4.82-10.91,9.49
		c-1.79,4.25-1.56,8.91,0.63,12.79c2.73,4.82,7.3,6.6,9.76,7.55l0.47,0.18c8.46,3.35,17.04,15.99,15.89,35.81
		c-0.75,12.9-4.54,25.64-10.98,36.85c-4.69,8.18-10.76,15.61-17.18,23.47c-3.87,4.74-7.87,9.64-11.61,14.78
		c-13.34,18.37-19.35,35.98-17.84,52.35c0.42,4.57,3.78,8.33,8.27,9.26c0.71,0.15,1.42,0.22,2.12,0.22c3.76,0,7.29-2.03,9.15-5.42
		c9.91-18.08,21.37-32.8,34.08-43.74c3.09-2.66,6.34-5.18,9.78-7.84c6.5-5.04,13.23-10.26,19.17-16.75
		c16.86-18.41,24.35-45.07,19.55-69.57c-4.8-24.5-21.79-46.36-44.35-57.06C293.21,1.58,289.3,0,284.77,0L284.77,0z"/>
</g>
</svg>
