<?xml version="1.0" encoding="utf-8"?>
<!-- Generator: Adobe Adobe Illustrator 24.2.0, SVG Export Plug-In . SVG Version: 6.00 Build 0)  -->
<svg version="1.1" id="Layer_1" xmlns="http://www.w3.org/2000/svg" xmlns:xlink="http://www.w3.org/1999/xlink" x="0px" y="0px"
	 width="539.78px" height="551.53px" viewBox="0 0 539.78 551.53" style="enable-background:new 0 0 539.78 551.53;"
	 xml:space="preserve">
<style type="text/css">
	.st0{fill:#E30614;}
	.st1{fill:#FDE000;}
	.st2{fill:#EDE9E0;}
	.st3{fill:#053E61;}
	.st4{fill:#8F141C;}
	.st5{fill:#FC6900;}
	.st6{fill:#CCE70B;}
	.st7{fill:#41A0CB;}
	.st8{fill-rule:evenodd;clip-rule:evenodd;fill:#46A2DA;}
	.st9{fill-rule:evenodd;clip-rule:evenodd;fill:#E30614;}
	.st10{fill-rule:evenodd;clip-rule:evenodd;fill:#13110E;}
	.st11{fill-rule:evenodd;clip-rule:evenodd;fill:#FDE100;}
	.st12{fill-rule:evenodd;clip-rule:evenodd;fill:#17120F;}
	.st13{fill:#FFFFFF;}
	.st14{fill:#053E61;stroke:#FFFFFF;stroke-width:16;stroke-linecap:round;stroke-linejoin:round;stroke-miterlimit:10;}
	.st15{fill-rule:evenodd;clip-rule:evenodd;fill:#FDE000;}
	.st16{fill-rule:evenodd;clip-rule:evenodd;fill:#41A0CB;}
	.st17{fill-rule:evenodd;clip-rule:evenodd;fill:#EDE9E0;stroke:#053E61;stroke-width:21.3818;stroke-miterlimit:10;}
	.st18{fill:#053E61;stroke:#EDE9E0;stroke-width:20.8752;stroke-linecap:round;stroke-linejoin:round;stroke-miterlimit:10;}
	.st19{fill:#41A0CB;stroke:#EDE9E0;stroke-width:10.4376;stroke-miterlimit:10;}
</style>
<g>
	<circle class="st17" cx="269.89" cy="269.89" r="259.2"/>
	<path class="st9" d="M235.34,500.86c-8.03-8.6-19.54-12.79-30.2-17.75C132.2,449.15,88.03,366.24,91.55,285.86
		c1.11-25.4,6.4-50.49,7.39-75.9c0.47-12.29-4.9-29.05-17.07-27.22c-15.4,2.32-10.55,28.67-22.95,38.1
		c-9.5-17.82-12.93-41-1.3-57.51s41.62-18.26,50.05,0.09c1.23,2.68,2.48,6.06,5.4,6.53c3.27,0.52,5.59-3.12,6.5-6.31
		c3.23-11.33,0.44-24.19-7.19-33.17c-7.17-8.44-19.18-17.73-14.07-27.55c3.4-6.53,13.1-7.26,19.38-3.41s9.92,10.74,13.27,17.29
		c5.78,11.31,11.56,22.62,17.34,33.93c0.94,1.84,1.99,3.79,3.82,4.74c5.04,2.62,9.95-4.39,9.91-10.07
		c-0.09-10.23-6.57-19.47-7.39-29.67c-0.81-10.2,10.37-22.11,18.35-15.7c13.18,24.56,13.92,55.41,1.93,80.58
		c-1.73,3.62-3.73,7.79-2.08,11.45c1.18,2.63,3.93,4.14,6.53,5.37c22.43,10.57,48.25,13.77,72.58,9.01
		c-8.77-7.54,3.17-23.99,14.11-20.24c10.94,3.75,13.63,19.59,7.1,29.14c-9.26,13.55-28.43,14.79-44.85,14.66
		c-20.94-0.16-41.87-0.32-62.81-0.48c-4.92-0.04-10.05-0.03-14.46,2.17c-5.29,2.64-8.65,8.02-10.92,13.48
		c-8.66,20.82-4.88,44.91,3.5,65.85s21.05,39.85,30.77,60.2c5.44,11.39,10.75,24.13,21.92,30.03c10.73,5.67,26.23,4.76,31.94,15.47
		c1.96,3.67,2.2,7.98,2.4,12.14C231.91,454.31,233.15,479.79,235.34,500.86z"/>
	<g>
		<path class="st18" d="M180.52,277.11c1.61,1.04,3.29,1.84,5.05,2.4c1.75,0.56,3.48,0.84,5.17,0.84c0.88,0,1.65-0.08,2.32-0.24
			s1.24-0.39,1.71-0.7c0.47-0.3,0.81-0.68,1.04-1.12s0.34-0.95,0.34-1.52c0-0.8-0.27-1.49-0.79-2.09c-0.53-0.6-1.22-1.16-2.08-1.67
			c-0.86-0.51-1.84-1.01-2.95-1.5c-1.11-0.49-2.24-1.01-3.39-1.58c-1.15-0.56-2.28-1.2-3.39-1.93c-1.11-0.72-2.1-1.57-2.97-2.54
			c-0.87-0.97-1.56-2.1-2.09-3.41s-0.79-2.82-0.79-4.56c0-2.02,0.37-3.83,1.1-5.44c0.73-1.61,1.77-2.99,3.12-4.13
			s2.97-2.01,4.86-2.62c1.9-0.6,4.03-0.9,6.39-0.9c2.3,0,4.39,0.26,6.27,0.78c1.88,0.52,3.66,1.28,5.35,2.28l-2.42,8.5
			c-1.45-0.84-2.92-1.49-4.43-1.97c-1.51-0.48-3.04-0.72-4.59-0.72c-0.71,0-1.37,0.08-1.97,0.23c-0.6,0.15-1.11,0.37-1.53,0.66
			c-0.42,0.29-0.74,0.64-0.98,1.06s-0.35,0.9-0.35,1.45c0,0.75,0.26,1.42,0.79,1.99c0.53,0.57,1.23,1.1,2.09,1.59
			c0.87,0.49,1.85,0.97,2.95,1.44c1.1,0.47,2.23,0.99,3.38,1.56c1.15,0.57,2.28,1.21,3.39,1.93c1.11,0.71,2.1,1.57,2.97,2.57
			c0.87,1,1.56,2.16,2.09,3.49s0.8,2.87,0.8,4.65c0,2.04-0.4,3.88-1.19,5.54c-0.79,1.65-1.9,3.06-3.32,4.22s-3.11,2.06-5.08,2.69
			c-1.97,0.63-4.12,0.95-6.47,0.95c-2.59,0-4.91-0.3-6.97-0.91c-2.06-0.61-3.96-1.51-5.69-2.7L180.52,277.11z"/>
		<path class="st18" d="M235.43,245.13c2.77,7.16,5.25,14.4,7.42,21.73c2.17,7.33,3.92,14.57,5.25,21.73h-11.13
			c-0.22-1.26-0.46-2.55-0.71-3.85s-0.51-2.6-0.8-3.88h-13.91c-0.29,1.33-0.55,2.63-0.8,3.91s-0.48,2.56-0.7,3.82h-10.83
			c1.32-7.16,3.08-14.4,5.27-21.73c2.19-7.33,4.66-14.57,7.41-21.73H235.43z M233.5,272.25c-0.71-2.75-1.49-5.48-2.33-8.18
			c-0.84-2.7-1.73-5.37-2.67-8c-0.94,2.63-1.83,5.29-2.68,8s-1.63,5.43-2.34,8.18H233.5z"/>
		<path class="st18" d="M263.85,279.47h14.19v9.11h-25.01v-43.45h10.83V279.47z"/>
		<path class="st18" d="M316.69,272.31c0,2.67-0.41,5.06-1.24,7.16c-0.83,2.1-2.01,3.88-3.56,5.34c-1.55,1.46-3.44,2.57-5.67,3.33
			s-4.77,1.15-7.6,1.15c-2.69,0-5.11-0.37-7.26-1.1c-2.15-0.73-3.97-1.81-5.46-3.23c-1.49-1.42-2.64-3.14-3.44-5.18
			c-0.81-2.04-1.21-4.37-1.21-7v-27.64h10.83v27.28c0,1.35,0.18,2.5,0.54,3.46c0.36,0.96,0.85,1.74,1.49,2.35
			c0.63,0.61,1.38,1.06,2.24,1.33c0.86,0.28,1.79,0.41,2.79,0.41s1.93-0.14,2.79-0.41c0.86-0.27,1.6-0.71,2.24-1.3
			c0.63-0.59,1.13-1.33,1.49-2.22s0.54-1.94,0.54-3.17v-27.73h10.52V272.31z"/>
		<path class="st18" d="M324.02,245.13c0.94-0.04,1.81-0.08,2.63-0.12s1.61-0.07,2.37-0.09c0.76-0.02,1.54-0.04,2.34-0.05
			c0.79-0.01,1.63-0.02,2.51-0.02c4.5,0,8.52,0.48,12.03,1.45c3.52,0.97,6.48,2.37,8.9,4.21c2.42,1.83,4.26,4.07,5.52,6.7
			s1.9,5.62,1.9,8.96c0,3.57-0.66,6.75-1.97,9.56c-1.31,2.8-3.2,5.18-5.64,7.12c-2.45,1.95-5.42,3.43-8.93,4.45
			c-3.51,1.02-7.46,1.53-11.86,1.53c-0.9,0-1.73-0.01-2.51-0.02c-0.77-0.01-1.55-0.03-2.32-0.05c-0.78-0.02-1.56-0.05-2.35-0.08
			c-0.8-0.03-1.66-0.07-2.6-0.11V245.13z M334.85,279.53c0.24,0,0.48,0,0.72,0c0.23,0,0.49,0,0.75,0c2.27,0,4.31-0.3,6.14-0.89
			c1.83-0.59,3.38-1.44,4.66-2.54c1.28-1.1,2.26-2.46,2.94-4.07c0.68-1.61,1.03-3.45,1.03-5.5c0-1.96-0.33-3.71-0.98-5.24
			s-1.61-2.83-2.87-3.88s-2.81-1.85-4.66-2.4c-1.85-0.55-3.96-0.83-6.33-0.83c-0.25,0-0.49,0-0.72,0s-0.46,0-0.69,0V279.53z"/>
	</g>
	<g>
		<path class="st3" d="M180.52,277.11c1.61,1.04,3.29,1.84,5.05,2.4c1.75,0.56,3.48,0.84,5.17,0.84c0.88,0,1.65-0.08,2.32-0.24
			s1.24-0.39,1.71-0.7c0.47-0.3,0.81-0.68,1.04-1.12s0.34-0.95,0.34-1.52c0-0.8-0.27-1.49-0.79-2.09c-0.53-0.6-1.22-1.16-2.08-1.67
			c-0.86-0.51-1.84-1.01-2.95-1.5c-1.11-0.49-2.24-1.01-3.39-1.58c-1.15-0.56-2.28-1.2-3.39-1.93c-1.11-0.72-2.1-1.57-2.97-2.54
			c-0.87-0.97-1.56-2.1-2.09-3.41s-0.79-2.82-0.79-4.56c0-2.02,0.37-3.83,1.1-5.44c0.73-1.61,1.77-2.99,3.12-4.13
			s2.97-2.01,4.86-2.62c1.9-0.6,4.03-0.9,6.39-0.9c2.3,0,4.39,0.26,6.27,0.78c1.88,0.52,3.66,1.28,5.35,2.28l-2.42,8.5
			c-1.45-0.84-2.92-1.49-4.43-1.97c-1.51-0.48-3.04-0.72-4.59-0.72c-0.71,0-1.37,0.08-1.97,0.23c-0.6,0.15-1.11,0.37-1.53,0.66
			c-0.42,0.29-0.74,0.64-0.98,1.06s-0.35,0.9-0.35,1.45c0,0.75,0.26,1.42,0.79,1.99c0.53,0.57,1.23,1.1,2.09,1.59
			c0.87,0.49,1.85,0.97,2.95,1.44c1.1,0.47,2.23,0.99,3.38,1.56c1.15,0.57,2.28,1.21,3.39,1.93c1.11,0.71,2.1,1.57,2.97,2.57
			c0.87,1,1.56,2.16,2.09,3.49s0.8,2.87,0.8,4.65c0,2.04-0.4,3.88-1.19,5.54c-0.79,1.65-1.9,3.06-3.32,4.22s-3.11,2.06-5.08,2.69
			c-1.97,0.63-4.12,0.95-6.47,0.95c-2.59,0-4.91-0.3-6.97-0.91c-2.06-0.61-3.96-1.51-5.69-2.7L180.52,277.11z"/>
		<path class="st3" d="M235.43,245.13c2.77,7.16,5.25,14.4,7.42,21.73c2.17,7.33,3.92,14.57,5.25,21.73h-11.13
			c-0.22-1.26-0.46-2.55-0.71-3.85s-0.51-2.6-0.8-3.88h-13.91c-0.29,1.33-0.55,2.63-0.8,3.91s-0.48,2.56-0.7,3.82h-10.83
			c1.32-7.16,3.08-14.4,5.27-21.73c2.19-7.33,4.66-14.57,7.41-21.73H235.43z M233.5,272.25c-0.71-2.75-1.49-5.48-2.33-8.18
			c-0.84-2.7-1.73-5.37-2.67-8c-0.94,2.63-1.83,5.29-2.68,8s-1.63,5.43-2.34,8.18H233.5z"/>
		<path class="st3" d="M263.85,279.47h14.19v9.11h-25.01v-43.45h10.83V279.47z"/>
		<path class="st3" d="M316.69,272.31c0,2.67-0.41,5.06-1.24,7.16c-0.83,2.1-2.01,3.88-3.56,5.34c-1.55,1.46-3.44,2.57-5.67,3.33
			s-4.77,1.15-7.6,1.15c-2.69,0-5.11-0.37-7.26-1.1c-2.15-0.73-3.97-1.81-5.46-3.23c-1.49-1.42-2.64-3.14-3.44-5.18
			c-0.81-2.04-1.21-4.37-1.21-7v-27.64h10.83v27.28c0,1.35,0.18,2.5,0.54,3.46c0.36,0.96,0.85,1.74,1.49,2.35
			c0.63,0.61,1.38,1.06,2.24,1.33c0.86,0.28,1.79,0.41,2.79,0.41s1.93-0.14,2.79-0.41c0.86-0.27,1.6-0.71,2.24-1.3
			c0.63-0.59,1.13-1.33,1.49-2.22s0.54-1.94,0.54-3.17v-27.73h10.52V272.31z"/>
		<path class="st3" d="M324.02,245.13c0.94-0.04,1.81-0.08,2.63-0.12s1.61-0.07,2.37-0.09c0.76-0.02,1.54-0.04,2.34-0.05
			c0.79-0.01,1.63-0.02,2.51-0.02c4.5,0,8.52,0.48,12.03,1.45c3.52,0.97,6.48,2.37,8.9,4.21c2.42,1.83,4.26,4.07,5.52,6.7
			s1.9,5.62,1.9,8.96c0,3.57-0.66,6.75-1.97,9.56c-1.31,2.8-3.2,5.18-5.64,7.12c-2.45,1.95-5.42,3.43-8.93,4.45
			c-3.51,1.02-7.46,1.53-11.86,1.53c-0.9,0-1.73-0.01-2.51-0.02c-0.77-0.01-1.55-0.03-2.32-0.05c-0.78-0.02-1.56-0.05-2.35-0.08
			c-0.8-0.03-1.66-0.07-2.6-0.11V245.13z M334.85,279.53c0.24,0,0.48,0,0.72,0c0.23,0,0.49,0,0.75,0c2.27,0,4.31-0.3,6.14-0.89
			c1.83-0.59,3.38-1.44,4.66-2.54c1.28-1.1,2.26-2.46,2.94-4.07c0.68-1.61,1.03-3.45,1.03-5.5c0-1.96-0.33-3.71-0.98-5.24
			s-1.61-2.83-2.87-3.88s-2.81-1.85-4.66-2.4c-1.85-0.55-3.96-0.83-6.33-0.83c-0.25,0-0.49,0-0.72,0s-0.46,0-0.69,0V279.53z"/>
	</g>
	<path class="st9" d="M245.18,176.21c-16.58-6.41-28.58-20.91-38.49-35.66c-5.17-7.69-10.16-16.22-9.93-25.48
		c0.26-10.55,7.29-19.76,15.28-26.65c10.22-8.81,26.85-14.67,36.31-5.05c4.05,4.12,3.18,13.59-2.56,12.99
		c-2.13-0.22-3.8-1.87-5.79-2.68c-4.51-1.82-9.86,1.33-11.93,5.74s-1.61,9.57-0.57,14.33c4.04,18.47,15.8,34.16,27.27,49.2
		C252.62,165.07,250.48,167.19,245.18,176.21z"/>
	<path class="st16" d="M273.29,159.89c10.38-14.26,16.13-31.26,21.74-47.98c2.36-7.04,4.73-14.76,2.16-21.73
		c-2.57-6.97-12.56-11.32-17.67-5.92c-2.36,2.49-2.91,6.13-4.26,9.28c-1.35,3.15-4.44,6.25-7.75,5.33
		c-2.65-0.74-4.01-3.75-4.25-6.49c-0.76-8.56,6.01-16.31,13.9-19.71c9.95-4.29,22.07-3.06,30.96,3.13s14.25,17.14,13.68,27.95
		c-0.71,13.43-9.58,24.84-18.06,35.27c-10.29,12.66-20.57,25.32-30.86,37.98C273.07,169.86,273.25,162.72,273.29,159.89z"/>
	<path class="st16" d="M257.72,473.32c-16.69-29.89-4.79-68.52,16.43-95.38c21.21-26.87,50.42-46.16,74.47-70.51
		c14.68-14.86,28.02-33.15,28.72-54.03s-16.51-43.13-50.75-49.09c-6.41-11.38-12.67-24.03-10.6-36.93s16.61-24.26,28.19-18.22
		c-6.85,11.59-10.63,28.68,0.13,36.76c8.74,6.56,22.13,1.97,28.72-6.76c6.58-8.72,8.15-20.12,9.49-30.96
		c0.71-5.75,1.43-11.49,2.14-17.24c0.83-6.71,1.62-13.79-1.04-20c-2.66-6.21-10.1-10.92-16.28-8.16
		c-6.13,2.74-7.59,10.54-10.86,16.4c-5.02,9-16.12,14.17-26.24,12.21c4.5-17.15,14.29-32.87,27.71-44.46
		c7.68-6.64,18.87-12.05,27.63-6.91c9.39,5.51,9.4,18.76,9.05,29.64s2.28,24.65,12.88,27.14c0.62-7.02,1.48-14.62,6.32-19.75
		c4.84-5.13,15.1-5.33,17.72,1.21c1.71,4.27-0.52,9.02-2.7,13.07c-6.5,12.1-13.01,24.21-19.51,36.31
		c6.14,7.26,17.82,0.19,23.61-7.35c5.78-7.55,14.35-16.8,22.91-12.67c7.81,3.77,6.8,16.05,0.73,22.26s-14.93,8.55-22.61,12.57
		s-15.06,11.63-13.52,20.17c3.95,21.89,49.51,7.41,54.53,29.08c0.99,4.28-0.25,8.73-1.48,12.94c-1.42,4.86-2.97,9.94-6.6,13.47
		c-3.63,3.52-10.04,4.72-13.64,1.17c-4.98-4.92-0.96-13.39-2.26-20.26c-2.42-12.76-22.56-13.34-31.05-3.51
		c-8.49,9.82-8.94,23.96-10.41,36.86c-5.38,47.49-31.03,92.34-81.48,142.99c-22.11,23.69-42.7,48.81-61.59,75.15
		C265.77,483.94,265.07,477.34,257.72,473.32z"/>
</g>
</svg>
